G04 EasyPC Gerber Version 20.0 Build 4102 *
G04 #@! TF.Part,Single*
G04 #@! TF.FileFunction,Copper,L1,Top *
%FSLAX35Y35*%
%MOIN*%
G04 #@! TA.AperFunction,SMDPad*
%ADD12R,0.02500X0.08000*%
%ADD20R,0.03150X0.03937*%
%ADD24R,0.03150X0.07087*%
%ADD17R,0.03937X0.04291*%
%ADD21R,0.05118X0.10630*%
%ADD74R,0.05118X0.13780*%
%ADD75R,0.05118X0.14567*%
%ADD29R,0.09055X0.14409*%
%ADD28R,0.09055X0.16929*%
%ADD26R,0.31496X0.45276*%
G04 #@! TA.AperFunction,ComponentPad*
%ADD73R,0.06000X0.06000*%
G04 #@! TA.AperFunction,SMDPad*
%ADD19R,0.06300X0.06300*%
G04 #@! TD.AperFunction*
%ADD10C,0.00500*%
%ADD11C,0.01000*%
G04 #@! TA.AperFunction,SMDPad*
%ADD18R,0.08000X0.02500*%
%ADD14R,0.03937X0.03150*%
%ADD13R,0.04291X0.03937*%
%ADD23R,0.06693X0.03937*%
%ADD70R,0.04800X0.04000*%
%ADD71R,0.08661X0.05787*%
%ADD15R,0.12598X0.06693*%
%ADD25R,0.15748X0.08386*%
%ADD27R,0.21654X0.12205*%
%ADD16R,0.25197X0.23228*%
G04 #@! TD.AperFunction*
%ADD79C,0.01500*%
%ADD77C,0.02500*%
G04 #@! TA.AperFunction,ViaPad*
%ADD80C,0.04800*%
G04 #@! TD.AperFunction*
%ADD78C,0.05000*%
G04 #@! TA.AperFunction,ViaPad*
%ADD76C,0.05591*%
G04 #@! TA.AperFunction,ComponentPad*
%ADD72C,0.07087*%
%ADD22C,0.07874*%
X0Y0D02*
D02*
D10*
X89364Y43557D02*
G75*
G03X90802Y42120I1437D01*
G01*
X291589*
G75*
G03X293026Y43557J1437*
G01*
Y307337*
G75*
G03X291589Y308774I-1437*
G01*
X90801*
G75*
G03X89364Y307336J-1437*
G01*
Y43557*
X145469Y80634D02*
X146909D01*
Y74197*
X145514*
Y70110*
G75*
G02X144926Y68694I-2000*
G01*
X144376Y68144*
Y65183*
G75*
G02X146421Y61667I-2000J-3516*
G01*
G75*
G02X138331I-4045*
G01*
G75*
G02X140376Y65183I4045*
G01*
Y68972*
G75*
G02X140384Y69152I1999J2*
G01*
G75*
G02X132469Y70329I-3870J1177*
G01*
G75*
G02X135330Y74197I4045*
G01*
X133118*
Y80634*
X139909*
Y74197*
X137698*
G75*
G02X140559Y70329I-1184J-3868*
G01*
G75*
G02X140508Y69686I-4046J-1*
G01*
G75*
G02X140963Y70388I1868J-713*
G01*
X141514Y70939*
Y74197*
X140118*
Y80634*
X140266*
X136900Y84000*
X129278*
Y82870*
G75*
G02X128690Y81454I-2000*
G01*
X127053Y79817*
Y77091*
X128272*
Y73647*
X130255Y71664*
G75*
G02X130843Y70248I-1413J-1416*
G01*
Y55840*
G75*
G02X130255Y54424I-2000*
G01*
X125489Y49659*
G75*
G02X124074Y49071I-1416J1413*
G01*
X99994*
Y46821*
X91494*
Y55321*
X99994*
Y53071*
X120073*
G75*
G02X120691Y59672I2618J3084*
G01*
Y60880*
G75*
G02X121278Y62296I2000*
G01*
X123053Y64070*
Y65142*
X121835*
Y65467*
X120398*
Y65142*
X113961*
Y70791*
X120398*
Y70467*
X121835*
Y70791*
X125471*
X124821Y71441*
X121835*
Y77091*
X123053*
Y80646*
G75*
G02X123641Y82061I2000*
G01*
X125278Y83698*
Y84000*
X124254*
G75*
G02X123690Y82891I-1976J307*
G01*
X119179Y78380*
Y77091*
X120398*
Y71441*
X113961*
Y72266*
X113887*
X101280Y59659*
G75*
G02X99994Y59076I-1416J1413*
G01*
Y56821*
X91494*
Y65321*
X99994*
Y64030*
X111643Y75678*
G75*
G02X113058Y76266I1416J-1413*
G01*
X113961*
Y77091*
X115179*
Y79209*
G75*
G02X115767Y80624I2000*
G01*
X119778Y84635*
Y94500*
X131945*
X130557Y95888*
X120695*
G75*
G02X113134Y97888I-3516J2000*
G01*
G75*
G02X120695Y99888I4045*
G01*
X131385*
G75*
G02X132801Y99300J-2000*
G01*
X137602Y94500*
X139778*
Y86779*
X144926Y81630*
G75*
G02X145469Y80634I-1413J-1416*
G01*
X91494Y75321D02*
X99994D01*
Y66821*
X91494*
Y75321*
Y85321D02*
X99994D01*
Y76821*
X91494*
Y85321*
Y95321D02*
X99994D01*
Y86821*
X91494*
Y95321*
Y105321D02*
X99994D01*
Y96821*
X91494*
Y105321*
X128990Y270929D02*
G75*
G02Y263429J-3750D01*
G01*
X126471*
X118079Y255037*
G75*
G02X117967Y245452I-113J-4792*
G01*
G75*
G02X113174Y250133J4793*
G01*
X109906Y246864*
Y140332*
G75*
G02X117287Y138045I3337J-2287*
G01*
G75*
G02X109906Y135758I-4045*
G01*
Y130475*
G75*
G02X108805Y127821I-3750*
G01*
X99994Y119010*
Y116799*
X91494*
Y125299*
X95677*
X97177Y126799*
X91494*
Y135299*
X99994*
Y129617*
X102406Y132028*
Y248417*
G75*
G02X103506Y251071I3750*
G01*
X122264Y269829*
G75*
G02X124918Y270929I2654J-2650*
G01*
X128990*
X129298Y189226D02*
G75*
G02X137388I4045D01*
G01*
G75*
G02X129298I-4045*
G01*
X281433Y161272D02*
X289933D01*
Y152772*
X281433*
Y155022*
X266376*
X251136Y139782*
G75*
G02X249720Y139195I-1416J1413*
G01*
X206415*
X197854Y130634*
X201500*
Y124984*
X195063*
Y127843*
X193626Y126406*
Y124984*
X189149*
X189799Y124335*
X193626*
Y118685*
X192215*
G75*
G02X191820Y118126I-1807J856*
G01*
X188974Y115280*
X192372*
X195778Y118685*
X195063*
Y124335*
X201500*
Y118685*
X200281*
Y118360*
G75*
G02X199694Y116944I-2000*
G01*
X198029Y115280*
X201303*
Y106087*
X188952*
X195167Y99872*
G75*
G02X195754Y98456I-1413J-1416*
G01*
Y97563*
X201303*
Y88370*
X186205*
Y97563*
X191754*
Y97628*
X184270Y105111*
G75*
G02X183683Y106527I1413J1416*
G01*
Y114817*
G75*
G02X184270Y116233I2000*
G01*
X187189Y119151*
Y121288*
X184965Y123512*
Y118551*
X178528*
Y125343*
X183134*
X182926Y125551*
X178528*
Y132343*
X184965*
Y129169*
X187189Y126944*
Y130634*
X192198*
X204171Y142607*
G75*
G02X205587Y143195I1416J-1413*
G01*
X248892*
X258851Y153154*
X243360*
Y164039*
X249846*
X224069Y189816*
Y144866*
X190073*
Y154650*
X187900*
Y154256*
X176738*
Y154650*
X151549*
G75*
G02X150886Y154709J3751*
G01*
X135811*
Y169413*
X159965*
Y162150*
X176738*
Y162543*
X187900*
Y162150*
X190073*
Y192642*
X221243*
X218785Y195100*
X198041*
G75*
G02X196626Y195688J2000*
G01*
X194446Y197867*
G75*
G02X193859Y199283I1413J1416*
G01*
Y206530*
G75*
G02X194446Y207946I2000*
G01*
X200005Y213504*
Y214728*
X196423*
Y223016*
X200005*
Y223193*
X199260Y223938*
G75*
G02X198674Y225352I1415J1414*
G01*
Y227252*
X197026*
Y233752*
X201574*
X200074Y235252*
X197026*
Y241752*
X204325*
Y240502*
X212274*
G75*
G02X213690Y239915J-2000*
G01*
X216571Y237033*
X222189*
Y238033*
X221315*
G75*
G02X219899Y238621J2000*
G01*
X210270Y248250*
X208028*
G75*
G02X201324Y250250I-3053J2000*
G01*
G75*
G02X208028Y252250I3650*
G01*
X211098*
G75*
G02X212514Y251663J-2000*
G01*
X222143Y242033*
X222189*
Y242533*
X232689*
Y242033*
X244189*
Y242533*
X254689*
Y242033*
X257474*
X258447Y243006*
Y250719*
X265204*
X254274Y261648*
G75*
G02X246205Y262061I-4024J413*
G01*
G75*
G02X249837Y266085I4045*
G01*
X239039Y276884*
X234630*
Y281274*
X202819*
Y281224*
X202878*
Y268094*
X195260*
Y281224*
X195319*
Y290142*
X195260*
Y298235*
X193035Y300460*
Y290142*
X192976*
Y281224*
X193035*
Y268094*
X185417*
Y281224*
X185476*
Y290142*
X185417*
Y301781*
X183193*
Y290142*
X175575*
Y300538*
X172435Y297398*
Y295594*
X172760*
Y289157*
X167110*
Y295594*
X167435*
Y298433*
G75*
G02X168167Y300201I2500*
G01*
X174015Y306048*
G75*
G02X175785Y306781I1768J-1768*
G01*
X192748*
G75*
G02X194518Y306048I2J-2500*
G01*
X197294Y303272*
X202878*
Y290142*
X202819*
Y288774*
X234630*
Y293163*
X242248*
Y284281*
X272184Y254345*
G75*
G02X273284Y251691I-2650J-2654*
G01*
Y241683*
G75*
G02X272184Y239030I-3750*
G01*
X267250Y234095*
Y228522*
X265348*
Y216957*
G75*
G02X265068Y215807I-2500J0*
G01*
X265280*
Y209016*
X258843*
Y215807*
X259561*
Y216170*
G75*
G02X260296Y217941I2500J0*
G01*
X260348Y217993*
Y228522*
X258626*
X258370Y228266*
G75*
G02X256600Y227533I-1768J1768*
G01*
X254689*
Y222533*
X251439*
Y220941*
X253631Y218748*
G75*
G02X254219Y217333I-1413J-1416*
G01*
Y215807*
X255437*
Y209016*
X249000*
Y215807*
X250219*
Y216504*
X248026Y218696*
G75*
G02X247439Y220112I1413J1416*
G01*
Y222533*
X244189*
Y223737*
X241426Y226499*
G75*
G02X238139Y224959I-2987J2097*
G01*
X243789Y219309*
G75*
G02X244376Y217893I-1413J-1416*
G01*
Y215807*
X245594*
Y209016*
X239157*
Y215807*
X240376*
Y217065*
X232689Y224752*
Y222533*
X222189*
Y233033*
X215743*
G75*
G02X214327Y233621J2000*
G01*
X213026Y234922*
Y231252*
X207116*
X210324Y228044*
G75*
G02X210911Y226628I-1413J-1416*
G01*
Y217840*
G75*
G02X218862Y216785I3906J-1054*
G01*
G75*
G02X215139Y212753I-4045*
G01*
G75*
G02X215525Y211572I-1615J-1181*
G01*
Y210235*
X220288*
X223526Y213474*
G75*
G02X224942Y214061I1416J-1413*
G01*
X229315*
Y214886*
X235752*
Y209236*
X229315*
Y210061*
X225770*
X222532Y206823*
G75*
G02X221116Y206235I-1416J1413*
G01*
X217253*
G75*
G02X215871Y199100I-2436J-3230*
G01*
X219613*
G75*
G02X221029Y198513J-2000*
G01*
X243360Y176181*
Y184354*
X261608*
Y173469*
X246073*
X253897Y165645*
G75*
G02X254484Y164229I-1413J-1416*
G01*
Y164039*
X261608*
Y155911*
X264131Y158434*
G75*
G02X265547Y159022I1416J-1413*
G01*
X281433*
Y161272*
X234630Y264423D02*
X242248D01*
Y248144*
X234630*
Y264423*
X186757Y215998D02*
G75*
G02X194057I3650D01*
G01*
G75*
G02X192244Y212844I-3650*
G01*
G75*
G02X191820Y212220I-1836J793*
G01*
X189295Y209695*
Y197819*
X183921*
Y194503*
X184971Y193453*
G75*
G02X186070Y190801I-2652J-2652*
G01*
G75*
G02Y190800I-2256J-1*
G01*
G75*
G02Y190795I-2103J-2*
G01*
Y178528*
X187900*
Y170240*
X176738*
Y170634*
X172297*
G75*
G02X168617Y173665J3750*
G01*
X165153*
G75*
G02X159591Y177415I-1517J3750*
G01*
G75*
G02X165153Y181165I4045*
G01*
X172297*
G75*
G02X175978Y178134J-3750*
G01*
X176738*
Y178528*
X178570*
Y189248*
X177520Y190298*
G75*
G02X176421Y192950I2652J2652*
G01*
G75*
G02Y192951I2256J1*
G01*
G75*
G02Y192956I2103J2*
G01*
Y195869*
G75*
G02X175615Y196490I1962J3380*
G01*
X168750Y203355*
G75*
G02X167602Y206121I2760J2766*
G01*
Y215998*
G75*
G02X168750Y218764I3907*
G01*
X171539Y221554*
Y223675*
G75*
G02X171638Y224547I3908*
G01*
Y232209*
X179256*
Y224547*
G75*
G02X179354Y223675I-3810J-872*
G01*
Y219935*
G75*
G02X179256Y219063I-3908*
G01*
Y215142*
X176180*
X175417Y214380*
Y207740*
X177346Y205811*
Y210555*
X182996*
Y203737*
G75*
G02X183646Y202825I-2825J-2700*
G01*
Y210555*
X184663*
G75*
G02X185058Y211115I1807J-856*
G01*
X187604Y213661*
G75*
G02X186757Y215998I2804J2337*
G01*
X175575Y281224D02*
X183193D01*
Y268094*
X175575*
Y281224*
X171638Y265947D02*
X179256D01*
Y248880*
X171638*
Y265947*
X258843Y208807D02*
X265280D01*
Y202016*
X258843*
Y208807*
X265102Y172691D02*
G75*
G02X273193I4045D01*
G01*
G75*
G02X265102I-4045*
G01*
X249000Y208807D02*
X255437D01*
Y202016*
X249000*
Y208807*
X239157D02*
X245594D01*
Y202016*
X239157*
Y208807*
X229315Y208587D02*
X235752D01*
Y202937*
X229315*
Y208587*
X211598Y58518D02*
G75*
G02X221972I5187D01*
G01*
G75*
G02X211598I-5187*
G01*
X238470Y63304D02*
G75*
G02X241657Y58518I-2000J-4786D01*
G01*
G75*
G02X231283I-5187*
G01*
G75*
G02X234470Y63304I5187*
G01*
Y73930*
X224231Y84169*
G75*
G02X223644Y85585I1413J1416*
G01*
Y88961*
X211795*
Y114689*
X239492*
Y88961*
X227644*
Y86413*
X237883Y76174*
G75*
G02X238470Y74758I-1413J-1416*
G01*
Y63304*
X218646Y123085D02*
G75*
G02X226736I4045D01*
G01*
G75*
G02X218646I-4045*
G01*
X281433Y151272D02*
X289933D01*
Y142772*
X281433*
Y145022*
X267326*
X252150Y129846*
X255831*
Y124197*
X249394*
Y127090*
X247913Y125609*
G75*
G02X247169Y125138I-1416J1412*
G01*
Y124197*
X242693*
X243342Y123547*
X247169*
Y117898*
X245951*
Y109776*
X246835Y108893*
Y115280*
X251100*
G75*
G02X250612Y116589I1512J1309*
G01*
Y117898*
X249394*
Y123547*
X255831*
Y117898*
X254612*
Y117417*
X255796Y116233*
G75*
G02X256330Y115280I-1413J-1416*
G01*
X261933*
Y106087*
X249641*
X255796Y99931*
G75*
G02X256384Y98515I-1413J-1416*
G01*
Y97563*
X261933*
Y88370*
X246835*
Y97563*
X252384*
Y97687*
X242538Y107532*
G75*
G02X241951Y108948I1413J1416*
G01*
Y117898*
X240732*
Y120500*
X238508Y122725*
Y117764*
X232071*
Y124555*
X236678*
X236469Y124764*
X232071*
Y131555*
X238508*
Y128381*
X240732Y126157*
Y129846*
X246494*
X265081Y148434*
G75*
G02X266497Y149022I1416J-1413*
G01*
X281433*
Y151272*
Y55321D02*
X289933D01*
Y46821*
X281433*
Y55321*
Y65321D02*
X289933D01*
Y56821*
X281433*
Y65321*
Y75321D02*
X289933D01*
Y66821*
X281433*
Y75321*
Y85321D02*
X289933D01*
Y76821*
X281433*
Y85321*
Y95321D02*
X289933D01*
Y86821*
X281433*
Y95321*
Y105321D02*
X289933D01*
Y96821*
X281433*
Y105321*
Y115321D02*
X289933D01*
Y106821*
X281433*
Y115321*
Y125321D02*
X289933D01*
Y116821*
X281433*
Y125321*
Y141272D02*
X289933D01*
Y132772*
X281433*
Y141272*
X258016Y127022D02*
G75*
G02X266106I4045D01*
G01*
G75*
G02X258016I-4045*
G01*
X158187Y129256D02*
X163837D01*
Y119669*
X158187*
Y129256*
Y146972D02*
X163837D01*
Y137386*
X158187*
Y146972*
X167465Y123085D02*
G75*
G02X175555I4045D01*
G01*
G75*
G02X167465I-4045*
G01*
X185715Y63304D02*
G75*
G02X188902Y58518I-2000J-4786D01*
G01*
G75*
G02X178528I-5187*
G01*
G75*
G02X181715Y63304I5187*
G01*
Y69993*
X163601Y88106*
G75*
G02X163094Y88961I1413J1416*
G01*
X151165*
Y114689*
X178862*
Y88961*
X168403*
X185127Y72237*
G75*
G02X185715Y70821I-1413J-1416*
G01*
Y63304*
X158843Y58518D02*
G75*
G02X169217I5187D01*
G01*
G75*
G02X158843I-5187*
G01*
X137189Y146972D02*
X142839D01*
Y137386*
X142014*
Y132214*
G75*
G02X141426Y130798I-2000*
G01*
X139884Y129256*
X142839*
Y119669*
X142014*
Y119224*
G75*
G02X141426Y117809I-2000*
G01*
X139778Y116160*
Y106000*
X119778*
Y116500*
X125278*
Y121920*
X120491Y126706*
G75*
G02X119904Y128122I1413J1416*
G01*
Y136567*
G75*
G02X118254Y139620I2000J3053*
G01*
G75*
G02X125554I3650*
G01*
G75*
G02X123904Y136567I-3650*
G01*
Y128950*
X128690Y124164*
G75*
G02X129278Y122748I-1413J-1416*
G01*
Y116500*
X130278*
Y124478*
G75*
G02X130865Y125893I2000*
G01*
X138014Y133042*
Y137386*
X137189*
Y146972*
X141480Y97888D02*
G75*
G02X149571I4045D01*
G01*
G75*
G02X141480I-4045*
G01*
X123904Y173382D02*
G75*
G02X125554Y170329I-2000J-3053D01*
G01*
G75*
G02X118254I-3650*
G01*
G75*
G02X119904Y173382I3650*
G01*
Y191702*
X116554Y195051*
G75*
G02X115967Y196467I1413J1416*
G01*
Y226598*
X112189*
Y243508*
X123744*
Y226598*
X119967*
Y197295*
X123316Y193946*
G75*
G02X123904Y192530I-1413J-1416*
G01*
Y173382*
X111086Y118396D02*
G75*
G02X119177I4045D01*
G01*
G75*
G02X111086I-4045*
G01*
X91494Y145299D02*
X99994D01*
Y136799*
X91494*
Y145299*
Y155299D02*
X99994D01*
Y146799*
X91494*
Y155299*
Y165299D02*
X99994D01*
Y156799*
X91494*
Y165299*
Y175299D02*
X99994D01*
Y166799*
X91494*
Y175299*
Y185299D02*
X99994D01*
Y176799*
X91494*
Y185299*
Y195299D02*
X99994D01*
Y186799*
X91494*
Y195299*
X112189Y307445D02*
X123744D01*
Y288016*
X112189*
Y307445*
X117967Y284404D02*
G75*
G02X122760Y279611J-4793D01*
G01*
G75*
G02X117967Y274818I-4793*
G01*
G75*
G02X113173Y279611J4793*
G01*
G75*
G02X117967Y284404I4793*
G01*
X147109Y210573D02*
X159965D01*
Y195868*
X135811*
Y210573*
X138232*
Y214817*
G75*
G02X145732I3750*
G01*
Y211950*
X147109Y210573*
X144276Y295594D02*
X149925D01*
Y289157*
X144276*
Y295594*
X160811D02*
X166461D01*
Y289157*
X160811*
Y290376*
X156224*
Y289157*
X150575*
Y295594*
X156224*
Y294376*
X160811*
Y295594*
X155654Y258124D02*
G75*
G02X163744I4045D01*
G01*
G75*
G02X155654I-4045*
G01*
X279709Y302876D02*
X288902D01*
Y296439*
X279709*
Y297502*
X268035*
Y296441*
X258843*
Y297659*
X241492*
G75*
G02X234789Y299659I-3053J2000*
G01*
G75*
G02X241492Y301659I3650*
G01*
X258843*
Y302878*
X268035*
Y301817*
X279709*
Y302876*
X269827Y293163D02*
G75*
G02X277917I4045D01*
G01*
G75*
G02X269827I-4045*
G01*
X279709Y290671D02*
X288902D01*
Y284234*
X279709*
Y290671*
X281433Y171272D02*
X289933D01*
Y162772*
X281433*
Y171272*
Y181272D02*
X289933D01*
Y172772*
X281433*
Y181272*
Y191272D02*
X289933D01*
Y182772*
X281433*
Y191272*
Y201272D02*
X289933D01*
Y192772*
X281433*
Y201272*
Y211272D02*
X289933D01*
Y202772*
X281433*
Y211272*
Y221272D02*
X289933D01*
Y212772*
X281433*
Y221272*
Y231272D02*
X289933D01*
Y222772*
X281433*
Y231272*
X258843Y290673D02*
X268035D01*
Y284236*
X258843*
Y290673*
X292776Y42747D02*
G36*
Y51071D01*
X289933*
Y46821*
X281433*
Y51071*
X126902*
X125489Y49659*
G75*
G02X124074Y49071I-1416J1413*
G01*
X99994*
Y46821*
X91494*
Y51071*
X89614*
Y42748*
G75*
G03X89991Y42370I1187J810*
G01*
X292398*
G75*
G03X292776Y42747I-810J1187*
G01*
G37*
X119407Y58518D02*
G36*
X99994D01*
Y56821*
X91494*
Y58518*
X89614*
Y51071*
X91494*
Y55321*
X99994*
Y53071*
X120073*
G75*
G02X118646Y56156I2618J3084*
G01*
G75*
G02X119407Y58518I4045*
G01*
G37*
X289933D02*
G36*
Y56821D01*
X281433*
Y58518*
X241657*
G75*
G02X231283I-5187*
G01*
X221972*
G75*
G02X211598I-5187*
G01*
X188902*
G75*
G02X178528I-5187*
G01*
X169217*
G75*
G02X158843I-5187*
G01*
X144915*
G75*
G02X139837I-2539J3150*
G01*
X130843*
Y55840*
G75*
G02X130255Y54424I-2000*
G01*
X126902Y51071*
X281433*
Y55321*
X289933*
Y51071*
X292776*
Y58518*
X289933*
G37*
X110341Y74377D02*
G36*
X99994D01*
Y66821*
X91494*
Y74377*
X89614*
Y58518*
X91494*
Y65321*
X99994*
Y64030*
X110341Y74377*
G37*
X119407Y58518D02*
G36*
G75*
G02X120691Y59672I3284J-2363D01*
G01*
Y60880*
G75*
G02X121278Y62296I2000*
G01*
X123053Y64070*
Y65142*
X121835*
Y65467*
X120398*
Y65142*
X113961*
Y70791*
X120398*
Y70467*
X121835*
Y70791*
X125471*
X124821Y71441*
X121835*
Y74377*
X120398*
Y71441*
X113961*
Y72266*
X113887*
X101280Y59659*
G75*
G02X99994Y59076I-1415J1412*
G01*
Y58518*
X119407*
G37*
X139837D02*
G36*
G75*
G02X138331Y61667I2539J3150D01*
G01*
Y61668*
G75*
G02X140376Y65183I4044*
G01*
Y68972*
Y68973*
G75*
G02X140384Y69152I2034*
G01*
G75*
G02X132469Y70329I-3870J1177*
G01*
G75*
G02X135330Y74197I4046J-1*
G01*
X133118*
Y74377*
X128272*
Y73647*
X130255Y71664*
G75*
G02X130843Y70248I-1413J-1416*
G01*
Y58518*
X139837*
G37*
X140118Y74377D02*
G36*
X139909D01*
Y74197*
X137698*
G75*
G02X140559Y70329I-1185J-3869*
G01*
G75*
G02Y70323I-3899J-3*
G01*
G75*
G02X140508Y69686I-3989*
G01*
G75*
G02X140963Y70388I1863J-710*
G01*
X141514Y70939*
Y74197*
X140118*
Y74377*
G37*
X178528Y58518D02*
G36*
G75*
G02X181715Y63304I5187J0D01*
G01*
Y69993*
X177330Y74377*
X146909*
Y74197*
X145514*
Y70110*
G75*
G02X144926Y68694I-2000*
G01*
X144376Y68144*
Y65183*
G75*
G02X146421Y61668I-1999J-3516*
G01*
Y61667*
G75*
G02X144915Y58518I-4045*
G01*
X158843*
G75*
G02X169217I5187*
G01*
X178528*
G37*
X231283D02*
G36*
G75*
G02X234470Y63304I5187J0D01*
G01*
Y73930*
X234023Y74377*
X182987*
X185127Y72237*
G75*
G02X185715Y70821I-1413J-1416*
G01*
Y63304*
G75*
G02X188902Y58518I-2000J-4786*
G01*
X211598*
G75*
G02X221972I5187*
G01*
X231283*
G37*
X289933Y74377D02*
G36*
Y66821D01*
X281433*
Y74377*
X238470*
Y63304*
G75*
G02X241657Y58518I-2000J-4786*
G01*
X281433*
Y65321*
X289933*
Y58518*
X292776*
Y74377*
X289933*
G37*
X116213Y81071D02*
G36*
X99994D01*
Y76821*
X91494*
Y81071*
X89614*
Y74377*
X91494*
Y75321*
X99994*
Y74377*
X110341*
X111643Y75678*
G75*
G02X113058Y76266I1416J-1413*
G01*
X113961*
Y77091*
X115179*
Y79209*
G75*
G02X115767Y80624I2000*
G01*
X116213Y81071*
G37*
X123099D02*
G36*
X121870D01*
X119179Y78380*
Y77091*
X120398*
Y74377*
X121835*
Y77091*
X123053*
Y80646*
G75*
G02X123099Y81071I2000J0*
G01*
G37*
X140118Y74377D02*
G36*
Y80634D01*
X140266*
X139829Y81071*
X128307*
X127053Y79817*
Y77091*
X128272*
Y74377*
X133118*
Y80634*
X139909*
Y74377*
X140118*
G37*
X177330D02*
G36*
X170636Y81071D01*
X145321*
G75*
G02X145469Y80634I-1807J-856*
G01*
X146909*
Y74377*
X177330*
G37*
X234023D02*
G36*
X227329Y81071D01*
X176293*
X182987Y74377*
X234023*
G37*
X289933Y81071D02*
G36*
Y76821D01*
X281433*
Y81071*
X232986*
X237883Y76174*
G75*
G02X238470Y74758I-1413J-1416*
G01*
Y74377*
X281433*
Y75321*
X289933*
Y74377*
X292776*
Y81071*
X289933*
G37*
X119778Y91071D02*
G36*
X99994D01*
Y86821*
X91494*
Y91071*
X89614*
Y81071*
X91494*
Y85321*
X99994*
Y81071*
X116213*
X119778Y84635*
Y91071*
G37*
X123099Y81071D02*
G36*
G75*
G02X123641Y82061I1954J-426D01*
G01*
X125278Y83698*
Y84000*
X124254*
G75*
G02X123690Y82891I-1980J309*
G01*
X121870Y81071*
X123099*
G37*
X139829D02*
G36*
X136900Y84000D01*
X129278*
Y82870*
G75*
G02X128690Y81454I-2000*
G01*
X128307Y81071*
X139829*
G37*
X170636D02*
G36*
X163601Y88106D01*
G75*
G02X163094Y88961I1411J1415*
G01*
X151165*
Y91071*
X139778*
Y86779*
X144926Y81630*
G75*
G02X145321Y81071I-1412J-1416*
G01*
X170636*
G37*
X211795Y91071D02*
G36*
X201303D01*
Y88370*
X186205*
Y91071*
X178862*
Y88961*
X168403*
X176293Y81071*
X227329*
X224231Y84169*
G75*
G02X223644Y85585I1413J1416*
G01*
Y88961*
X211795*
Y91071*
G37*
X289933D02*
G36*
Y86821D01*
X281433*
Y91071*
X261933*
Y88370*
X246835*
Y91071*
X239492*
Y88961*
X227644*
Y86413*
X232986Y81071*
X281433*
Y85321*
X289933*
Y81071*
X292776*
Y91071*
X289933*
G37*
X119778D02*
G36*
Y94500D01*
X131945*
X130557Y95888*
X120695*
G75*
G02X113134Y97888I-3516J2000*
G01*
G75*
G02X114683Y101071I4045*
G01*
X99994*
Y96821*
X91494*
Y101071*
X89614*
Y91071*
X91494*
Y95321*
X99994*
Y91071*
X119778*
G37*
X151165Y101071D02*
G36*
X148022D01*
G75*
G02X149571Y97888I-2496J-3183*
G01*
G75*
G02X141480I-4045*
G01*
G75*
G02X143029Y101071I4045*
G01*
X119675*
G75*
G02X120695Y99888I-2496J-3184*
G01*
X131385*
G75*
G02X132801Y99300J-2000*
G01*
X137602Y94500*
X139778*
Y91071*
X151165*
Y101071*
G37*
X186205Y91071D02*
G36*
Y97563D01*
X191754*
Y97628*
X188311Y101071*
X178862*
Y91071*
X186205*
G37*
X211795Y101071D02*
G36*
X193968D01*
X195167Y99872*
G75*
G02X195754Y98456I-1413J-1416*
G01*
Y97563*
X201303*
Y91071*
X211795*
Y101071*
G37*
X246835Y91071D02*
G36*
Y97563D01*
X252384*
Y97687*
X249000Y101071*
X239492*
Y91071*
X246835*
G37*
X289933Y101071D02*
G36*
Y96821D01*
X281433*
Y101071*
X254656*
X255796Y99931*
G75*
G02X256384Y98515I-1413J-1416*
G01*
Y97563*
X261933*
Y91071*
X281433*
Y95321*
X289933*
Y91071*
X292776*
Y101071*
X289933*
G37*
X151165Y111071D02*
G36*
X139778D01*
Y106000*
X119778*
Y111071*
X89614*
Y101071*
X91494*
Y105321*
X99994*
Y101071*
X114683*
G75*
G02X119675I2496J-3183*
G01*
X143029*
G75*
G02X148022I2496J-3183*
G01*
X151165*
Y111071*
G37*
X183683D02*
G36*
X178862D01*
Y101071*
X188311*
X184270Y105111*
G75*
G02X183683Y106527I1413J1416*
G01*
Y111071*
G37*
X211795D02*
G36*
X201303D01*
Y106087*
X188952*
X193968Y101071*
X211795*
Y111071*
G37*
X249000Y101071D02*
G36*
X242538Y107532D01*
G75*
G02X241951Y108948I1413J1416*
G01*
Y111071*
X239492*
Y101071*
X249000*
G37*
X246835Y111071D02*
G36*
X245951D01*
Y109776*
X246835Y108893*
Y111071*
G37*
X289933D02*
G36*
Y106821D01*
X281433*
Y111071*
X261933*
Y106087*
X249641*
X254656Y101071*
X281433*
Y105321*
X289933*
Y101071*
X292776*
Y111071*
X289933*
G37*
X119778D02*
G36*
Y116500D01*
X125278*
Y118396*
X119177*
G75*
G02X111086I-4045*
G01*
X99994*
Y116799*
X91494*
Y118396*
X89614*
Y111071*
X119778*
G37*
X130278Y118396D02*
G36*
X129278D01*
Y116500*
X130278*
Y118396*
G37*
X183683Y111071D02*
G36*
Y114817D01*
G75*
G02X184270Y116233I2000*
G01*
X186434Y118396*
X141834*
G75*
G02X141426Y117809I-1820J829*
G01*
X139778Y116160*
Y111071*
X151165*
Y114689*
X178862*
Y111071*
X183683*
G37*
X195489Y118396D02*
G36*
X192047D01*
G75*
G02X191820Y118126I-1632J1140*
G01*
X188974Y115280*
X192372*
X195489Y118396*
G37*
X240732D02*
G36*
X238508D01*
Y117764*
X232071*
Y118396*
X200281*
Y118360*
G75*
G02X199694Y116944I-2000*
G01*
X198029Y115280*
X201303*
Y111071*
X211795*
Y114689*
X239492*
Y111071*
X241951*
Y117898*
X240732*
Y118396*
G37*
X246835Y111071D02*
G36*
Y115280D01*
X251100*
G75*
G02X250612Y116589I1514J1309*
G01*
Y117898*
X249394*
Y118396*
X247169*
Y117898*
X245951*
Y111071*
X246835*
G37*
X289933Y118396D02*
G36*
Y116821D01*
X281433*
Y118396*
X255831*
Y117898*
X254612*
Y117417*
X255796Y116233*
G75*
G02X256330Y115280I-1415J-1417*
G01*
X261933*
Y111071*
X281433*
Y115321*
X289933*
Y111071*
X292776*
Y118396*
X289933*
G37*
X91494Y123085D02*
G36*
X89614D01*
Y118396*
X91494*
Y123085*
G37*
X125278Y118396D02*
G36*
Y121920D01*
X124113Y123085*
X104069*
X99994Y119010*
Y118396*
X111086*
G75*
G02X119177I4045*
G01*
X125278*
G37*
X130278Y123085D02*
G36*
X129249D01*
G75*
G02X129278Y122748I-1972J-335*
G01*
Y118396*
X130278*
Y123085*
G37*
X185392D02*
G36*
X184965D01*
Y118551*
X178528*
Y123085*
X175555*
G75*
G02X167465I-4045*
G01*
X163837*
Y119669*
X158187*
Y123085*
X142839*
Y119669*
X142014*
Y119224*
G75*
G02X141834Y118396I-2000*
G01*
X186434*
X187189Y119151*
Y121288*
X185392Y123085*
G37*
X195063D02*
G36*
X193626D01*
Y118685*
X192215*
G75*
G02X192047Y118396I-1800J852*
G01*
X195489*
X195778Y118685*
X195063*
Y123085*
G37*
X232071D02*
G36*
X226736D01*
G75*
G02X218646I-4045*
G01*
X201500*
Y118685*
X200281*
Y118396*
X232071*
Y123085*
G37*
X240732Y118396D02*
G36*
Y120500D01*
X238508Y122725*
Y118396*
X240732*
G37*
X249394Y123085D02*
G36*
X247169D01*
Y118396*
X249394*
Y123085*
G37*
X281433D02*
G36*
X262991D01*
G75*
G02X261131I-930J3937*
G01*
X255831*
Y118396*
X281433*
Y123085*
G37*
X289933D02*
G36*
Y118396D01*
X292776*
Y123085*
X289933*
G37*
X91494Y127022D02*
G36*
X89614D01*
Y123085*
X91494*
Y125299*
X95677*
X97177Y126799*
X91494*
Y127022*
G37*
X124113Y123085D02*
G36*
X120491Y126706D01*
G75*
G02X120233Y127022I1413J1416*
G01*
X108006*
X104069Y123085*
X124113*
G37*
X131993Y127022D02*
G36*
X125832D01*
X128690Y124164*
G75*
G02X129249Y123085I-1413J-1416*
G01*
X130278*
Y124478*
G75*
G02X130865Y125893I2000*
G01*
X131993Y127022*
G37*
X158187D02*
G36*
X142839D01*
Y123085*
X158187*
Y127022*
G37*
X167465Y123085D02*
G36*
G75*
G02X170580Y127022I4045D01*
G01*
X163837*
Y123085*
X167465*
G37*
X178528Y127022D02*
G36*
X172439D01*
G75*
G02X175555Y123085I-930J-3937*
G01*
X178528*
Y125343*
X183134*
X182926Y125551*
X178528*
Y127022*
G37*
X185392Y123085D02*
G36*
X184965Y123512D01*
Y123085*
X185392*
G37*
X187189Y127022D02*
G36*
X187112D01*
X187189Y126944*
Y127022*
G37*
X218646Y123085D02*
G36*
G75*
G02X221761Y127022I4045D01*
G01*
X201500*
Y124984*
X195063*
Y127022*
X194242*
X193626Y126406*
Y124984*
X189149*
X189799Y124335*
X193626*
Y123085*
X195063*
Y124335*
X201500*
Y123085*
X218646*
G37*
X232071D02*
G36*
Y124555D01*
X236678*
X236469Y124764*
X232071*
Y127022*
X223620*
G75*
G02X226736Y123085I-930J-3937*
G01*
X232071*
G37*
X240732Y127022D02*
G36*
X239868D01*
X240732Y126157*
Y127022*
G37*
X258016D02*
G36*
X255831D01*
Y124197*
X249394*
Y127022*
X249326*
X247913Y125609*
G75*
G02X247169Y125138I-1415J1411*
G01*
Y124197*
X242693*
X243342Y123547*
X247169*
Y123085*
X249394*
Y123547*
X255831*
Y123085*
X261131*
G75*
G02X258016Y127022I930J3937*
G01*
G37*
X266106D02*
G36*
G75*
G02X262991Y123085I-4045D01*
G01*
X281433*
Y125321*
X289933*
Y123085*
X292776*
Y127022*
X266106*
G37*
X102406Y137022D02*
G36*
X99994D01*
Y136799*
X91494*
Y137022*
X89614*
Y127022*
X91494*
Y135299*
X99994*
Y129617*
X102406Y132028*
Y137022*
G37*
X120233Y127022D02*
G36*
G75*
G02X119904Y128122I1670J1100D01*
G01*
Y136567*
G75*
G02X119340Y137022I2000J3054*
G01*
X117156*
G75*
G02X109906Y135758I-3913J1024*
G01*
Y130475*
G75*
G02Y130474I-5013J0*
G01*
G75*
G02X108805Y127821I-3748*
G01*
X108006Y127022*
X120233*
G37*
X131993D02*
G36*
X138014Y133042D01*
Y137022*
X124467*
G75*
G02X123904Y136567I-2564J2599*
G01*
Y128950*
X125832Y127022*
X131993*
G37*
X198585Y137022D02*
G36*
X142014D01*
Y132214*
G75*
G02X141426Y130798I-2000*
G01*
X139884Y129256*
X142839*
Y127022*
X158187*
Y129256*
X163837*
Y127022*
X170580*
G75*
G02X172439I930J-3937*
G01*
X178528*
Y132343*
X184965*
Y129169*
X187112Y127022*
X187189*
Y130634*
X192198*
X198585Y137022*
G37*
X195063Y127022D02*
G36*
Y127843D01*
X194242Y127022*
X195063*
G37*
X253669Y137022D02*
G36*
X204242D01*
X197854Y130634*
X201500*
Y127022*
X221761*
G75*
G02X223620I930J-3937*
G01*
X232071*
Y131555*
X238508*
Y128381*
X239868Y127022*
X240732*
Y129846*
X246494*
X253669Y137022*
G37*
X249394Y127022D02*
G36*
Y127090D01*
X249326Y127022*
X249394*
G37*
X289933Y137022D02*
G36*
Y132772D01*
X281433*
Y137022*
X259326*
X252150Y129846*
X255831*
Y127022*
X258016*
G75*
G02X266106I4045*
G01*
X292776*
Y137022*
X289933*
G37*
X91494Y142179D02*
G36*
X89614D01*
Y137022*
X91494*
Y142179*
G37*
X102406Y137022D02*
G36*
Y142179D01*
X99994*
Y137022*
X102406*
G37*
X119301Y142179D02*
G36*
X109906D01*
Y140332*
G75*
G02X117287Y138045I3337J-2287*
G01*
G75*
G02X117156Y137022I-4046J1*
G01*
X119340*
G75*
G02X118254Y139620I2563J2598*
G01*
G75*
G02X119301Y142179I3650*
G01*
G37*
X137189D02*
G36*
X124506D01*
G75*
G02X125554Y139620I-2603J-2559*
G01*
G75*
G02X124467Y137022I-3651J1*
G01*
X138014*
Y137386*
X137189*
Y142179*
G37*
X203743D02*
G36*
X163837D01*
Y137386*
X158187*
Y142179*
X142839*
Y137386*
X142014*
Y137022*
X198585*
X203743Y142179*
G37*
X253533D02*
G36*
X251136Y139782D01*
G75*
G02X249720Y139195I-1416J1413*
G01*
X206415*
X204242Y137022*
X253669*
X258826Y142179*
X253533*
G37*
X264483D02*
G36*
X259326Y137022D01*
X281433*
Y141272*
X289933*
Y137022*
X292776*
Y142179*
X264483*
G37*
X102406Y151049D02*
G36*
X99994D01*
Y146799*
X91494*
Y151049*
X89614*
Y142179*
X91494*
Y145299*
X99994*
Y142179*
X102406*
Y151049*
G37*
X256746D02*
G36*
X224069D01*
Y144866*
X190073*
Y151049*
X109906*
Y142179*
X119301*
G75*
G02X124506I2603J-2559*
G01*
X137189*
Y146972*
X142839*
Y142179*
X158187*
Y146972*
X163837*
Y142179*
X203743*
X204171Y142607*
G75*
G02X205587Y143195I1416J-1413*
G01*
X248892*
X256746Y151049*
G37*
X281433D02*
G36*
X262403D01*
X253533Y142179*
X258826*
X265081Y148434*
G75*
G02X266497Y149022I1416J-1413*
G01*
X281433*
Y151049*
G37*
X289933D02*
G36*
Y142772D01*
X281433*
Y145022*
X267326*
X264483Y142179*
X292776*
Y151049*
X289933*
G37*
X102406Y161049D02*
G36*
X99994D01*
Y156799*
X91494*
Y161049*
X89614*
Y151049*
X91494*
Y155299*
X99994*
Y151049*
X102406*
Y161049*
G37*
X135811D02*
G36*
X109906D01*
Y151049*
X190073*
Y154650*
X187900*
Y154256*
X176738*
Y154650*
X151549*
G75*
G02X150886Y154709I4J3797*
G01*
X135811*
Y161049*
G37*
X256746Y151049D02*
G36*
X258851Y153154D01*
X243360*
Y161049*
X224069*
Y151049*
X256746*
G37*
X281433Y161049D02*
G36*
X261608D01*
Y155911*
X264131Y158434*
G75*
G02X265547Y159022I1416J-1413*
G01*
X281433*
Y161049*
G37*
X289933D02*
G36*
Y152772D01*
X281433*
Y155022*
X266376*
X262403Y151049*
X281433*
Y151272*
X289933*
Y151049*
X292776*
Y161049*
X289933*
G37*
X102406Y167022D02*
G36*
X99994D01*
Y166799*
X91494*
Y167022*
X89614*
Y161049*
X91494*
Y165299*
X99994*
Y161049*
X102406*
Y167022*
G37*
X135811Y161049D02*
G36*
Y167022D01*
X123448*
G75*
G02X120359I-1544J3307*
G01*
X109906*
Y161049*
X135811*
G37*
X190073Y167022D02*
G36*
X159965D01*
Y162150*
X176738*
Y162543*
X187900*
Y162150*
X190073*
Y167022*
G37*
X243360Y161049D02*
G36*
Y164039D01*
X249846*
X246863Y167022*
X224069*
Y161049*
X243360*
G37*
X289933Y167022D02*
G36*
Y162772D01*
X281433*
Y167022*
X252520*
X253897Y165645*
G75*
G02X254484Y164229I-1413J-1416*
G01*
Y164039*
X261608*
Y161049*
X281433*
Y161272*
X289933*
Y161049*
X292776*
Y167022*
X289933*
G37*
X91494Y172691D02*
G36*
X89614D01*
Y167022*
X91494*
Y172691*
G37*
X102406D02*
G36*
X99994D01*
Y167022*
X102406*
Y172691*
G37*
X119121D02*
G36*
X109906D01*
Y167022*
X120359*
G75*
G02X118254Y170329I1544J3307*
G01*
G75*
G02X119121Y172691I3651J-1*
G01*
G37*
X190073D02*
G36*
X187900D01*
Y170240*
X176738*
Y170634*
X172297*
G75*
G02X168951Y172691J3750*
G01*
X124686*
G75*
G02X125554Y170329I-2782J-2363*
G01*
G75*
G02X123448Y167022I-3650*
G01*
X135811*
Y169413*
X159965*
Y167022*
X190073*
Y172691*
G37*
X246863Y167022D02*
G36*
X241194Y172691D01*
X224069*
Y167022*
X246863*
G37*
X252520D02*
G36*
X281433D01*
Y171272*
X289933*
Y167022*
X292776*
Y172691*
X273193*
G75*
G02X265102I-4045*
G01*
X246851*
X252520Y167022*
G37*
X102406Y177022D02*
G36*
X99994D01*
Y176799*
X91494*
Y177022*
X89614*
Y172691*
X91494*
Y175299*
X99994*
Y172691*
X102406*
Y177022*
G37*
X119121Y172691D02*
G36*
G75*
G02X119904Y173382I2783J-2363D01*
G01*
Y177022*
X109906*
Y172691*
X119121*
G37*
X159610Y177022D02*
G36*
X123904D01*
Y173382*
G75*
G02X124686Y172691I-2000J-3052*
G01*
X168951*
G75*
G02X168617Y173665I3346J1694*
G01*
X165153*
G75*
G02X159610Y177022I-1517J3750*
G01*
G37*
X190073D02*
G36*
X187900D01*
Y172691*
X190073*
Y177022*
G37*
X243360D02*
G36*
X242520D01*
X243360Y176181*
Y177022*
G37*
X241194Y172691D02*
G36*
X236863Y177022D01*
X224069*
Y172691*
X241194*
G37*
X289933Y177022D02*
G36*
Y172772D01*
X281433*
Y177022*
X261608*
Y173469*
X246073*
X246851Y172691*
X265102*
G75*
G02X273193I4045*
G01*
X292776*
Y177022*
X289933*
G37*
X91494Y181049D02*
G36*
X89614D01*
Y177022*
X91494*
Y181049*
G37*
X102406D02*
G36*
X99994D01*
Y177022*
X102406*
Y181049*
G37*
X119904D02*
G36*
X109906D01*
Y177022*
X119904*
Y181049*
G37*
X159610Y177022D02*
G36*
G75*
G02X159591Y177415I4027J394D01*
G01*
G75*
G02X161859Y181049I4046J0*
G01*
X123904*
Y177022*
X159610*
G37*
X178570Y181049D02*
G36*
X173223D01*
G75*
G02X175978Y178134I-926J-3634*
G01*
X176738*
Y178528*
X178570*
Y181049*
G37*
X190073D02*
G36*
X186070D01*
Y178528*
X187900*
Y177022*
X190073*
Y181049*
G37*
X243360D02*
G36*
X238493D01*
X242520Y177022*
X243360*
Y181049*
G37*
X236863Y177022D02*
G36*
X232836Y181049D01*
X224069*
Y177022*
X236863*
G37*
X281433Y181049D02*
G36*
X261608D01*
Y177022*
X281433*
Y181049*
G37*
X289933D02*
G36*
Y177022D01*
X292776*
Y181049*
X289933*
G37*
X102406Y189226D02*
G36*
X99994D01*
Y186799*
X91494*
Y189226*
X89614*
Y181049*
X91494*
Y185299*
X99994*
Y181049*
X102406*
Y189226*
G37*
X119904D02*
G36*
X109906D01*
Y181049*
X119904*
Y189226*
G37*
X178570D02*
G36*
X137388D01*
G75*
G02X129298I-4045*
G01*
X123904*
Y181049*
X161859*
G75*
G02X165153Y181165I1778J-3634*
G01*
X172297*
G75*
G02X173223Y181049J-3750*
G01*
X178570*
Y189226*
G37*
X190073D02*
G36*
X186070D01*
Y181049*
X190073*
Y189226*
G37*
X289933D02*
G36*
Y182772D01*
X281433*
Y189226*
X230315*
X238493Y181049*
X243360*
Y184354*
X261608*
Y181049*
X281433*
Y181272*
X289933*
Y181049*
X292776*
Y189226*
X289933*
G37*
X232836Y181049D02*
G36*
X224659Y189226D01*
X224069*
Y181049*
X232836*
G37*
X91494Y193864D02*
G36*
X89614D01*
Y189226*
X91494*
Y193864*
G37*
X102406D02*
G36*
X99994D01*
Y189226*
X102406*
Y193864*
G37*
X119904Y189226D02*
G36*
Y191702D01*
X117741Y193864*
X109906*
Y189226*
X119904*
G37*
X178570D02*
G36*
Y189248D01*
X177520Y190298*
G75*
G02X176421Y192950I2651J2652*
G01*
Y192951*
Y192956*
Y193864*
X123393*
G75*
G02X123904Y192530I-1490J-1334*
G01*
Y189226*
X129298*
G75*
G02X137388I4045*
G01*
X178570*
G37*
X220021Y193864D02*
G36*
X184560D01*
X184971Y193453*
G75*
G02X186070Y190801I-2651J-2652*
G01*
Y190800*
Y190795*
Y189226*
X190073*
Y192642*
X221243*
X220021Y193864*
G37*
X224659Y189226D02*
G36*
X224069Y189816D01*
Y189226*
X224659*
G37*
X289933Y193864D02*
G36*
Y192772D01*
X281433*
Y193864*
X225678*
X230315Y189226*
X281433*
Y191272*
X289933*
Y189226*
X292776*
Y193864*
X289933*
G37*
X102406Y205411D02*
G36*
X89614D01*
Y193864*
X91494*
Y195299*
X99994*
Y193864*
X102406*
Y205411*
G37*
X117741Y193864D02*
G36*
X116554Y195051D01*
G75*
G02X115967Y196467I1413J1416*
G01*
Y205411*
X109906*
Y193864*
X117741*
G37*
X176421D02*
G36*
Y195869D01*
G75*
G02X175615Y196490I1954J3370*
G01*
X168750Y203355*
G75*
G02X167667Y205411I2762J2767*
G01*
X159965*
Y195868*
X135811*
Y205411*
X119967*
Y197295*
X123316Y193946*
G75*
G02X123393Y193864I-1413J-1415*
G01*
X176421*
G37*
X220021D02*
G36*
X218785Y195100D01*
X198041*
G75*
G02X196626Y195688J2000*
G01*
X194446Y197867*
G75*
G02X193859Y199283I1413J1416*
G01*
Y205411*
X189295*
Y197819*
X183921*
Y194503*
X184560Y193864*
X220021*
G37*
X183646Y205411D02*
G36*
X182996D01*
Y203737*
G75*
G02X183646Y202825I-2842J-2712*
G01*
Y205411*
G37*
X289933D02*
G36*
Y202772D01*
X281433*
Y205411*
X265280*
Y202016*
X258843*
Y205411*
X255437*
Y202016*
X249000*
Y205411*
X245594*
Y202016*
X239157*
Y205411*
X235752*
Y202937*
X229315*
Y205411*
X218069*
G75*
G02X218863Y203006I-3252J-2406*
G01*
G75*
G02X215871Y199100I-4045*
G01*
X219613*
G75*
G02X221029Y198513J-2000*
G01*
X225678Y193864*
X281433*
Y201272*
X289933*
Y193864*
X292776*
Y205411*
X289933*
G37*
X102406Y217022D02*
G36*
X89614D01*
Y205411*
X102406*
Y217022*
G37*
X115967D02*
G36*
X109906D01*
Y205411*
X115967*
Y217022*
G37*
X135811Y205411D02*
G36*
Y210573D01*
X138232*
Y214817*
G75*
G02X138949Y217022I3750*
G01*
X119967*
Y205411*
X135811*
G37*
X167667D02*
G36*
G75*
G02X167602Y206121I3844J710D01*
G01*
Y215998*
G75*
G02X167739Y217022I3909J-1*
G01*
X145016*
G75*
G02X145732Y214817I-3033J-2205*
G01*
Y211950*
X147109Y210573*
X159965*
Y205411*
X167667*
G37*
X186904Y217022D02*
G36*
X179256D01*
Y215142*
X176180*
X175417Y214380*
Y207740*
X177346Y205811*
Y210555*
X182996*
Y205411*
X183646*
Y210555*
X184663*
G75*
G02X185058Y211115I1800J-852*
G01*
X187604Y213661*
G75*
G02X186757Y215998I2804J2337*
G01*
G75*
G02X186904Y217022I3650*
G01*
G37*
X196423D02*
G36*
X193911D01*
G75*
G02X194057Y215998I-3504J-1024*
G01*
G75*
G02Y215997I-3470J0*
G01*
G75*
G02X192244Y212844I-3649*
G01*
G75*
G02X191820Y212220I-1836J793*
G01*
X189295Y209695*
Y205411*
X193859*
Y206530*
G75*
G02X194446Y207946I2000*
G01*
X200005Y213504*
Y214728*
X196423*
Y217022*
G37*
X289933D02*
G36*
Y212772D01*
X281433*
Y217022*
X265348*
Y216957*
G75*
G02X265068Y215807I-2506J2*
G01*
X265280*
Y209016*
X258843*
Y215807*
X259561*
Y216170*
G75*
G02Y216171I2417J1*
G01*
G75*
G02X259710Y217022I2498J0*
G01*
X254219*
Y215807*
X255437*
Y209016*
X249000*
Y215807*
X250219*
Y216504*
X249701Y217022*
X244376*
Y215807*
X245594*
Y209016*
X239157*
Y215807*
X240376*
Y217022*
X218855*
G75*
G02X218862Y216785I-4040J-239*
G01*
G75*
G02X215139Y212753I-4045J0*
G01*
G75*
G02X215525Y211572I-1614J-1181*
G01*
Y211572*
Y210235*
X220288*
X223526Y213474*
G75*
G02X224942Y214061I1416J-1413*
G01*
X229315*
Y214886*
X235752*
Y209236*
X229315*
Y210061*
X225770*
X222532Y206823*
G75*
G02X221116Y206235I-1416J1413*
G01*
X217253*
G75*
G02X218069Y205411I-2436J-3229*
G01*
X229315*
Y208587*
X235752*
Y205411*
X239157*
Y208807*
X245594*
Y205411*
X249000*
Y208807*
X255437*
Y205411*
X258843*
Y208807*
X265280*
Y205411*
X281433*
Y211272*
X289933*
Y205411*
X292776*
Y217022*
X289933*
G37*
X102406Y227022D02*
G36*
X89614D01*
Y217022*
X102406*
Y227022*
G37*
X112189D02*
G36*
X109906D01*
Y217022*
X115967*
Y226598*
X112189*
Y227022*
G37*
X171638D02*
G36*
X123744D01*
Y226598*
X119967*
Y217022*
X138949*
G75*
G02X145016I3033J-2205*
G01*
X167739*
G75*
G02X168750Y218764I3773J-1024*
G01*
X171539Y221554*
Y223675*
G75*
G02X171638Y224547I3928J-2*
G01*
Y227022*
G37*
X196423Y217022D02*
G36*
Y223016D01*
X200005*
Y223193*
X199260Y223938*
G75*
G02X198674Y225352I1413J1413*
G01*
Y227022*
X179256*
Y224547*
G75*
G02X179354Y223675I-3830J-874*
G01*
Y219935*
G75*
G02X179256Y219063I-3928J2*
G01*
Y217022*
X186904*
G75*
G02X193911I3504J-1024*
G01*
X196423*
G37*
X222189Y227022D02*
G36*
X210872D01*
G75*
G02X210911Y226628I-1961J-393*
G01*
Y217840*
G75*
G02X218855Y217022I3906J-1054*
G01*
X240376*
Y217065*
X232689Y224752*
Y222533*
X222189*
Y227022*
G37*
X249701Y217022D02*
G36*
X248026Y218696D01*
G75*
G02X247439Y220112I1413J1416*
G01*
Y222533*
X244189*
Y223737*
X241426Y226499*
G75*
G02X238139Y224959I-2988J2098*
G01*
X243789Y219309*
G75*
G02X244376Y217893I-1413J-1416*
G01*
Y217022*
X249701*
G37*
X260348Y227022D02*
G36*
X254689D01*
Y222533*
X251439*
Y220941*
X253631Y218748*
G75*
G02X254219Y217333I-1413J-1416*
G01*
Y217022*
X259710*
G75*
G02X260296Y217941I2348J-851*
G01*
X260348Y217993*
Y227022*
G37*
X289933D02*
G36*
Y222772D01*
X281433*
Y227022*
X265348*
Y217022*
X281433*
Y221272*
X289933*
Y217022*
X292776*
Y227022*
X289933*
G37*
X108719Y256283D02*
G36*
X89614D01*
Y227022*
X102406*
Y248417*
G75*
G02Y248418I4511J1*
G01*
G75*
G02X103506Y251071I3748*
G01*
X108719Y256283*
G37*
X259639D02*
G36*
X242248D01*
Y248144*
X234630*
Y256283*
X179256*
Y248880*
X171638*
Y256283*
X163301*
G75*
G02X156096I-3602J1841*
G01*
X119325*
X118079Y255037*
G75*
G02X122760Y250245I-113J-4792*
G01*
G75*
G02X117967Y245452I-4793*
G01*
G75*
G02X113174Y250133J4793*
G01*
X109906Y246864*
Y227022*
X112189*
Y243508*
X123744*
Y227022*
X171638*
Y232209*
X179256*
Y227022*
X198674*
Y227252*
X197026*
Y233752*
X201574*
X200074Y235252*
X197026*
Y241752*
X204325*
Y240502*
X212274*
G75*
G02X213690Y239915J-2000*
G01*
X216571Y237033*
X222189*
Y238033*
X221315*
G75*
G02X219899Y238621J2000*
G01*
X210270Y248250*
X208028*
G75*
G02X201324Y250250I-3053J2000*
G01*
G75*
G02X208028Y252250I3650*
G01*
X211098*
G75*
G02X212514Y251663J-2000*
G01*
X222143Y242033*
X222189*
Y242533*
X232689*
Y242033*
X244189*
Y242533*
X254689*
Y242033*
X257474*
X258447Y243006*
Y250719*
X265204*
X259639Y256283*
G37*
X222189Y227022D02*
G36*
Y233033D01*
X215743*
G75*
G02X214327Y233621J2000*
G01*
X213026Y234922*
Y231252*
X207116*
X210324Y228044*
G75*
G02X210872Y227022I-1413J-1416*
G01*
X222189*
G37*
X260348D02*
G36*
Y228522D01*
X258626*
X258370Y228266*
G75*
G02X256600Y227533I-1767J1767*
G01*
X254689*
Y227022*
X260348*
G37*
X270246Y256283D02*
G36*
X272184Y254345D01*
G75*
G02X273284Y251693I-2648J-2653*
G01*
G75*
G02Y251691I-4511J0*
G01*
Y241683*
G75*
G02Y241682I-5013J0*
G01*
G75*
G02X272184Y239030I-3748*
G01*
X267250Y234095*
Y228522*
X265348*
Y227022*
X281433*
Y231272*
X289933*
Y227022*
X292776*
Y256283*
X270246*
G37*
X259639D02*
G36*
X254274Y261648D01*
G75*
G02X246205Y262061I-4024J413*
G01*
G75*
G02X249837Y266085I4046J-1*
G01*
X241263Y274659*
X202878*
Y268094*
X195260*
Y274659*
X193035*
Y268094*
X185417*
Y274659*
X183193*
Y268094*
X175575*
Y274659*
X89614*
Y256283*
X108719*
X122264Y269829*
G75*
G02X124918Y270929I2653J-2648*
G01*
X128990*
G75*
G02X132740Y267179J-3750*
G01*
G75*
G02X128990Y263429I-3750*
G01*
X126471*
X119325Y256283*
X156096*
G75*
G02X155654Y258124I3602J1841*
G01*
G75*
G02X163744I4045*
G01*
G75*
G02X163301Y256283I-4045*
G01*
X171638*
Y265947*
X179256*
Y256283*
X234630*
Y264423*
X242248*
Y256283*
X259639*
G37*
X270246D02*
G36*
X292776D01*
Y274659*
X251869*
X270246Y256283*
G37*
X175575Y279611D02*
G36*
X122760D01*
G75*
G02X117967Y274818I-4793*
G01*
G75*
G02X113173Y279611J4793*
G01*
X89614*
Y274659*
X175575*
Y279611*
G37*
X185417D02*
G36*
X183193D01*
Y274659*
X185417*
Y279611*
G37*
X195260D02*
G36*
X193035D01*
Y274659*
X195260*
Y279611*
G37*
X241263Y274659D02*
G36*
X239039Y276884D01*
X234630*
Y279611*
X202878*
Y274659*
X241263*
G37*
X251869D02*
G36*
X292776D01*
Y279611*
X246918*
X251869Y274659*
G37*
X185417Y279611D02*
G36*
Y281224D01*
X185476*
Y287453*
X89614*
Y279611*
X113173*
G75*
G02X117967Y284404I4793*
G01*
G75*
G02X122760Y279611J-4793*
G01*
X175575*
Y281224*
X183193*
Y279611*
X185417*
G37*
X195319Y287453D02*
G36*
X192976D01*
Y281224*
X193035*
Y279611*
X195260*
Y281224*
X195319*
Y287453*
G37*
X234630Y279611D02*
G36*
Y281274D01*
X202819*
Y281224*
X202878*
Y279611*
X234630*
G37*
X288902Y287453D02*
G36*
Y284234D01*
X279709*
Y287453*
X268035*
Y284236*
X258843*
Y287453*
X242248*
Y284281*
X246918Y279611*
X292776*
Y287453*
X288902*
G37*
X185417Y292376D02*
G36*
X183193D01*
Y290142*
X175575*
Y292376*
X172760*
Y289157*
X167110*
Y292376*
X166461*
Y289157*
X160811*
Y290376*
X156224*
Y289157*
X150575*
Y292376*
X149925*
Y289157*
X144276*
Y292376*
X123744*
Y288016*
X112189*
Y292376*
X89614*
Y287453*
X185476*
Y290142*
X185417*
Y292376*
G37*
X195319Y287453D02*
G36*
Y290142D01*
X195260*
Y292376*
X193035*
Y290142*
X192976*
Y287453*
X195319*
G37*
X234630Y292376D02*
G36*
X202878D01*
Y290142*
X202819*
Y288774*
X234630*
Y292376*
G37*
X277840D02*
G36*
G75*
G02X269904I-3968J787D01*
G01*
X242248*
Y287453*
X258843*
Y290673*
X268035*
Y287453*
X279709*
Y290671*
X288902*
Y287453*
X292776*
Y292376*
X277840*
G37*
X112189Y297730D02*
G36*
X89614D01*
Y292376*
X112189*
Y297730*
G37*
X167435D02*
G36*
X123744D01*
Y292376*
X144276*
Y295594*
X149925*
Y292376*
X150575*
Y295594*
X156224*
Y294376*
X160811*
Y295594*
X166461*
Y292376*
X167110*
Y295594*
X167435*
Y297730*
G37*
X175575D02*
G36*
X172767D01*
X172435Y297398*
Y295594*
X172760*
Y292376*
X175575*
Y297730*
G37*
X185417D02*
G36*
X183193D01*
Y292376*
X185417*
Y297730*
G37*
X195260D02*
G36*
X193035D01*
Y292376*
X195260*
Y297730*
G37*
X288902D02*
G36*
Y296439D01*
X279709*
Y297502*
X268035*
Y296441*
X258843*
Y297659*
X241492*
G75*
G02X235341Y297730I-3053J2000*
G01*
X202878*
Y292376*
X234630*
Y293163*
X242248*
Y292376*
X269904*
G75*
G02X269827Y293163I3968J788*
G01*
G75*
G02X277917I4045*
G01*
G75*
G02X277840Y292376I-4045J1*
G01*
X292776*
Y297730*
X288902*
G37*
X292776Y308146D02*
G36*
G75*
G03X292398Y308524I-1187J-810D01*
G01*
X89991*
G75*
G03X89614Y308146I810J-1186*
G01*
Y297730*
X112189*
Y307445*
X123744*
Y297730*
X167435*
Y298433*
G75*
G02Y298434I2820J0*
G01*
G75*
G02X168167Y300201I2498*
G01*
X174015Y306048*
G75*
G02X175785Y306781I1767J-1767*
G01*
X192748*
G75*
G02X194518Y306048I3J-2499*
G01*
X197294Y303272*
X202878*
Y297730*
X235341*
G75*
G02X234789Y299659I3098J1930*
G01*
G75*
G02X241492Y301659I3650*
G01*
X258843*
Y302878*
X268035*
Y301817*
X279709*
Y302876*
X288902*
Y297730*
X292776*
Y308146*
G37*
X175575Y297730D02*
G36*
Y300538D01*
X172767Y297730*
X175575*
G37*
X185417D02*
G36*
Y301781D01*
X183193*
Y297730*
X185417*
G37*
X195260D02*
G36*
Y298235D01*
X193035Y300460*
Y297730*
X195260*
G37*
X203417Y211260D02*
X199189Y207031D01*
X206406*
X209023Y209648*
G75*
G02X210439Y210235I1416J-1413*
G01*
X211525*
Y210744*
X207540Y214728*
X204005*
Y212676*
G75*
G02X203417Y211260I-2000*
G01*
G36*
X199189Y207031*
X206406*
X209023Y209648*
G75*
G02X210439Y210235I1416J-1413*
G01*
X211525*
Y210744*
X207540Y214728*
X204005*
Y212676*
G75*
G02X203417Y211260I-2000*
G01*
G37*
X232689Y238033D02*
Y230408D01*
X234801Y228296*
G75*
G02X234789Y228596I3637J298*
G01*
G75*
G02X241492Y230596I3650*
G01*
X242157*
G75*
G02X243573Y230009J-2000*
G01*
X244189Y229393*
Y238033*
X232689*
G36*
Y230408*
X234801Y228296*
G75*
G02X234789Y228596I3637J298*
G01*
G75*
G02X241492Y230596I3650*
G01*
X242157*
G75*
G02X243573Y230009J-2000*
G01*
X244189Y229393*
Y238033*
X232689*
G37*
D02*
D11*
X93243Y131049D02*
X91242D01*
X93243Y141049D02*
X91242D01*
X95743Y128549D02*
Y126549D01*
Y133549D02*
Y135549D01*
Y138549D02*
Y136549D01*
Y143549D02*
Y145549D01*
X98243Y131049D02*
X100242D01*
X98243Y141049D02*
X100242D01*
X111619Y136422D02*
X110205Y135008D01*
X111619Y139668D02*
X110205Y141083D01*
X112836Y118396D02*
X110836D01*
X113939Y297730D02*
X111939D01*
X114865Y136422D02*
X116280Y135008D01*
X114865Y139668D02*
X116280Y141083D01*
X115131Y116101D02*
Y114101D01*
Y120691D02*
Y122691D01*
X117427Y118396D02*
X119427D01*
X117967Y289766D02*
Y287766D01*
Y305695D02*
Y307695D01*
X121528Y111250D02*
X119528D01*
X121994Y297730D02*
X123994D01*
X122278Y107750D02*
Y105750D01*
Y114750D02*
Y116750D01*
X131048Y189226D02*
X129048D01*
X133343Y186931D02*
Y184931D01*
Y191522D02*
Y193522D01*
X134891Y68706D02*
X133476Y67291D01*
X134891Y71952D02*
X133476Y73366D01*
X134899Y75800D02*
X133045Y73947D01*
X134899Y79030D02*
X133045Y80884D01*
X135638Y189226D02*
X137638D01*
X138129Y75800D02*
X139982Y73947D01*
X138137Y68706D02*
X139551Y67291D01*
X138137Y71952D02*
X139551Y73366D01*
X143230Y97888D02*
X141230D01*
X145526Y95593D02*
Y93593D01*
Y100183D02*
Y102183D01*
X146026Y292376D02*
X144026D01*
X147100Y290907D02*
Y288907D01*
Y293844D02*
Y295844D01*
X147821Y97888D02*
X149821D01*
X148175Y292376D02*
X150175D01*
X157404Y258124D02*
X155404D01*
X159699Y255829D02*
Y253829D01*
Y260419D02*
Y262419D01*
X161994Y258124D02*
X163994D01*
X169215Y123085D02*
X167215D01*
X171510Y120789D02*
Y118789D01*
Y125380D02*
Y127380D01*
X173388Y257414D02*
X171388D01*
X173805Y123085D02*
X175805D01*
X175447Y250631D02*
Y248632D01*
Y264198D02*
Y266199D01*
X177506Y257414D02*
X179506D01*
X179096Y207337D02*
X177096D01*
X180171Y208805D02*
Y210805D01*
X180278Y121947D02*
X178278D01*
X181246Y207337D02*
X183246D01*
X181746Y120301D02*
Y118301D01*
X183215Y121947D02*
X185215D01*
X197060Y126588D02*
X195207Y124734D01*
X199503Y126588D02*
X201356Y124734D01*
X199503Y129030D02*
X201356Y130884D01*
X213194Y218408D02*
X211780Y219823D01*
X216440Y215163D02*
X217854Y213748D01*
X216440Y218408D02*
X217854Y219823D01*
X220396Y123085D02*
X218396D01*
X222691Y120789D02*
Y118789D01*
Y125380D02*
Y127380D01*
X223939Y225033D02*
X221939D01*
X224986Y123085D02*
X226986D01*
X227439Y224283D02*
Y222283D01*
X231065Y205762D02*
X229065D01*
X232533Y204687D02*
Y202687D01*
Y206837D02*
Y208837D01*
X233821Y121159D02*
X231821D01*
X234002Y205762D02*
X236002D01*
X235289Y119514D02*
Y117514D01*
X236380Y256283D02*
X234380D01*
X236758Y121159D02*
X238758D01*
X238439Y249894D02*
Y247894D01*
Y262673D02*
Y264673D01*
X240498Y256283D02*
X242498D01*
X240761Y203796D02*
X238907Y201943D01*
X240761Y207026D02*
X238907Y208880D01*
X243991Y203796D02*
X245844Y201943D01*
X243991Y207026D02*
X245844Y208880D01*
X245110Y178911D02*
X243110D01*
X248627Y260438D02*
X247213Y259024D01*
X248627Y263684D02*
X247213Y265098D01*
X250604Y203796D02*
X248750Y201943D01*
X250604Y207026D02*
X248750Y208880D01*
X251391Y125800D02*
X249537Y123947D01*
X251873Y260438D02*
X253287Y259024D01*
X252484Y175219D02*
Y173219D01*
Y182604D02*
Y184604D01*
X253833Y125800D02*
X255687Y123947D01*
X253833Y128243D02*
X255687Y130096D01*
X253833Y203796D02*
X255687Y201943D01*
X253833Y207026D02*
X255687Y208880D01*
X259766Y127022D02*
X257766D01*
X259858Y178911D02*
X261858D01*
X260446Y203796D02*
X258593Y201943D01*
X260446Y207026D02*
X258593Y208880D01*
X260593Y287455D02*
X258593D01*
X262061Y124726D02*
Y122726D01*
Y129317D02*
Y131317D01*
X263439Y285986D02*
Y283986D01*
Y288923D02*
Y290923D01*
X263676Y203796D02*
X265530Y201943D01*
X263676Y207026D02*
X265530Y208880D01*
X264356Y127022D02*
X266356D01*
X266285Y287455D02*
X268285D01*
X266852Y172691D02*
X264852D01*
X269148Y170396D02*
Y168396D01*
Y174986D02*
Y176986D01*
X271443Y172691D02*
X273443D01*
X272249Y291541D02*
X270835Y290126D01*
X272249Y294786D02*
X270835Y296201D01*
X275495Y291541D02*
X276909Y290126D01*
X275495Y294786D02*
X276909Y296201D01*
X281459Y287454D02*
X279459D01*
X283183Y197022D02*
X281183D01*
X284305Y285986D02*
Y283986D01*
Y288923D02*
Y290923D01*
X285683Y194522D02*
Y192522D01*
Y199522D02*
Y201522D01*
X287152Y287454D02*
X289152D01*
X288183Y197022D02*
X290183D01*
D02*
D12*
X122278Y89250D03*
Y111250D03*
X127278Y89250D03*
Y111250D03*
X132278Y89250D03*
Y111250D03*
X137278Y89250D03*
Y111250D03*
D02*
D13*
X136514Y77415D03*
X143514D03*
D02*
D14*
X117179Y67967D03*
Y74266D03*
X125053Y67967D03*
Y74266D03*
X190407Y121510D03*
Y127809D03*
X198281Y121510D03*
Y127809D03*
X232533Y205762D03*
Y212061D03*
X243951Y120722D03*
Y127022D03*
X252612Y120722D03*
Y127022D03*
D02*
D15*
X193754Y92967D03*
Y110683D03*
X254384Y92967D03*
Y110683D03*
D02*
D16*
X165014Y101825D03*
X225644D03*
D02*
D17*
X181746Y121947D03*
Y128947D03*
X235289Y121159D03*
Y128159D03*
X242376Y205411D03*
Y212411D03*
X252219Y205411D03*
Y212411D03*
X262061Y205411D03*
Y212411D03*
D02*
D18*
X227439Y225033D03*
Y230033D03*
Y235033D03*
Y240033D03*
X249439Y225033D03*
Y230033D03*
Y235033D03*
Y240033D03*
D02*
D19*
X262848Y232920D03*
Y246320D03*
D02*
D70*
X200674Y230502D03*
Y238502D03*
X209374Y234502D03*
D02*
D71*
X182320Y158400D03*
Y174384D03*
X202005Y202888D03*
Y218872D03*
D02*
D20*
X147100Y292376D03*
X153400D03*
X163636D03*
X169935D03*
X180171Y201037D03*
Y207337D03*
X186470Y201037D03*
Y207337D03*
D02*
D21*
X179384Y274659D03*
Y296707D03*
X189226Y274659D03*
Y296707D03*
X199069Y274659D03*
Y296707D03*
D02*
D22*
X164030Y58518D03*
X183715D03*
X216785D03*
X236470D03*
D02*
D23*
X263439Y287455D03*
Y299659D03*
X284305Y287454D03*
Y299659D03*
D02*
D24*
X140014Y124463D03*
Y142179D03*
X161011Y124463D03*
Y142179D03*
D02*
D25*
X252484Y158596D03*
Y178911D03*
D02*
D26*
X207071Y168754D03*
D02*
D27*
X147888Y162061D03*
Y203220D03*
D02*
D28*
X117967Y297730D03*
D02*
D29*
Y235053D03*
D02*
D72*
Y250245D03*
Y279611D03*
D02*
D73*
X95743Y51071D03*
Y61071D03*
Y71071D03*
Y81071D03*
Y91071D03*
Y101071D03*
Y121049D03*
Y131049D03*
Y141049D03*
Y151049D03*
Y161049D03*
Y171049D03*
Y181049D03*
Y191049D03*
X285683Y51071D03*
Y61071D03*
Y71071D03*
Y81071D03*
Y91071D03*
Y101071D03*
Y111071D03*
Y121071D03*
Y137022D03*
Y147022D03*
Y157022D03*
Y167022D03*
Y177022D03*
Y187022D03*
Y197022D03*
Y207022D03*
Y217022D03*
Y227022D03*
D02*
D74*
X238439Y256283D03*
Y285024D03*
D02*
D75*
X175447Y223675D03*
Y257414D03*
D02*
D76*
X113242Y138045D03*
X115131Y118396D03*
X117179Y97888D03*
X122691Y56156D03*
X133343Y189226D03*
X136514Y70329D03*
X142376Y61667D03*
X145526Y97888D03*
X159699Y258124D03*
X163636Y177415D03*
X171510Y123085D03*
X214817Y203006D03*
Y216785D03*
X222691Y123085D03*
X250250Y262061D03*
X262061Y127022D03*
X269148Y172691D03*
X273872Y293163D03*
D02*
D77*
X115131Y118396D02*
X122278Y111250D01*
X115131Y118396D02*
Y127276D01*
X113242Y129165*
Y138045*
X125053Y67967D02*
X117179D01*
X136514Y70329D02*
Y77415D01*
X145526Y97888D02*
Y117358D01*
X158536Y130368*
X163515*
X170799Y123085*
X171510*
X153400Y253793D02*
X152612D01*
X147100Y252219*
Y292376*
X159699Y258124D02*
X174659D01*
Y244344*
X180959Y238045*
Y207337*
X180171*
X171510Y123085D02*
X176059D01*
X177197Y121947*
X181746*
X199069Y296707D02*
Y297962D01*
X192750Y304281*
X175782*
X169935Y298433*
Y292376*
X214817Y203006D02*
X222297D01*
X225053Y205762*
X232533*
X222691Y123085D02*
X212848D01*
X208124Y127809*
X198281*
X222691Y123085D02*
X228028D01*
X229953Y121159*
X235289*
X223133Y225033D02*
X214885Y216785D01*
X214817*
X223133Y225033D02*
X221022D01*
X211554Y234502*
X209374*
X227439Y225033D02*
X223133D01*
X232533Y205762D02*
X237280D01*
X237630Y205411*
X242376*
X252219D02*
X262061D01*
X252219D02*
X242376D01*
X262061Y127022D02*
X252612D01*
X262061Y205411D02*
X269677D01*
X278067Y197022*
X285683*
X262848Y232920D02*
X259489D01*
X256603Y230033*
X249439*
X262848Y232920D02*
Y216957D01*
X262061Y216170*
Y212411*
D02*
D78*
X95743Y141049D02*
Y131049D01*
X128990Y267179D02*
X124918D01*
X106156Y248417*
Y130475*
X96730Y121049*
X95743*
X141982Y214817D02*
Y210396D01*
X147888Y204491*
Y203220*
X148823Y250496D02*
Y245730D01*
X135474Y232381*
Y222958*
X124885Y212369*
Y195584*
X131242Y189226*
X133343*
X148823Y250496D02*
Y258813D01*
X117967Y289669*
Y297730*
X148823Y250496D02*
X149463D01*
X152760Y253793*
X153400*
X154384*
X158715Y258124*
X159699*
X163636Y177415D02*
X172297D01*
Y174384*
X182320*
X175447Y223675D02*
Y219935D01*
X171510Y215998*
Y206121*
X178383Y199248*
X180171Y201037*
Y201037*
X182320Y158400D02*
X196717D01*
X207071Y168754*
X182320Y158400D02*
X151549D01*
X147888Y162061*
X182320Y174384D02*
Y190801D01*
X180171Y192950*
Y201037*
X189226Y285289D02*
Y296707D01*
Y285289D02*
Y274659D01*
X199069Y285024D02*
Y274659D01*
Y296707D02*
Y285024D01*
X238439Y256283D02*
X244472D01*
X250250Y262061*
X238439Y285024D02*
Y282787D01*
X269534Y251691*
Y241683*
X262848Y234997*
Y232920*
X238439Y285024D02*
X199069D01*
X269148Y172691D02*
X263926D01*
X257706Y178911*
X252484*
X273872Y293163D02*
X271510D01*
X265801Y287455*
X263439*
X273872Y293163D02*
X276234D01*
X281943Y287454*
X284305*
D02*
D79*
X117179Y74266D02*
X113058D01*
X99864Y61071*
X95743*
X117179Y74266D02*
Y79209D01*
X122278Y84307*
Y89250*
X117179Y97888D02*
X131385D01*
X137278Y91996*
Y89250*
X121904Y139620D02*
Y128122D01*
X127278Y122748*
Y111250*
X121904Y170329D02*
Y192530D01*
X117967Y196467*
Y235053*
X122691Y56156D02*
Y60880D01*
X125053Y63242*
Y67967*
Y74266D02*
Y74037D01*
X128843Y70248*
Y55840*
X124074Y51071*
X95743*
X125053Y74266D02*
Y80646D01*
X127278Y82870*
Y89250*
X132278Y111250D02*
Y124478D01*
X140014Y132214*
Y142179*
Y124463D02*
Y119224D01*
X137278Y116488*
Y111250*
X142376Y61667D02*
Y68972D01*
X143514Y70110*
Y77415*
Y80215*
X137278Y86451*
Y89250*
X153400Y292376D02*
X163636D01*
X183715Y58518D02*
Y70821D01*
X165014Y89522*
Y101825*
X186470Y207337D02*
Y201037D01*
X190407Y121510D02*
Y119541D01*
X185683Y114817*
Y106527*
X193754Y98456*
Y92967*
X190407Y121510D02*
X189795D01*
X182358Y128947*
X181746*
X190407Y127809D02*
X192201D01*
X205587Y141195*
X249720*
X265547Y157022*
X285683*
X190407Y215998D02*
Y213636D01*
X186470Y209699*
Y207337*
X198281Y121510D02*
Y118360D01*
X193754Y113833*
Y110683*
X200674Y238502D02*
X212274D01*
X215743Y235033*
X227439*
X202005Y218872D02*
Y212676D01*
X195859Y206530*
Y199283*
X198041Y197100*
X219613*
X252484Y164229*
Y158596*
X202005Y218872D02*
Y224022D01*
X200674Y225352*
Y230502*
X204974Y250250D02*
X211098D01*
X221315Y240033*
X227439*
X213525Y208235D02*
X210439D01*
X205091Y202888*
X202005*
X213525Y208235D02*
Y211572D01*
X208911Y216185*
Y226628*
X204974Y230565*
Y233180*
X200674Y237480*
Y238502*
X213525Y208235D02*
X221116D01*
X224942Y212061*
X232533*
X225644Y101825D02*
Y85585D01*
X236470Y74758*
Y58518*
X227439Y230033D02*
X230235D01*
X242376Y217893*
Y212411*
X238439Y228596D02*
X242157D01*
X245720Y225033*
X249439*
X238439Y299659D02*
X263439D01*
X243951Y120722D02*
X243339D01*
X235902Y128159*
X235289*
X243951Y120722D02*
Y108948D01*
X254384Y98515*
Y92967*
X243951Y127022D02*
X246497D01*
X266497Y147022*
X285683*
X249439Y225033D02*
Y220112D01*
X252219Y217333*
Y212411*
X249439Y240033D02*
X227439D01*
X249439D02*
X258303D01*
X262848Y244579*
Y246320*
X249439Y240033D02*
Y235033D01*
X252612Y120722D02*
Y116589D01*
X254384Y114817*
Y110683*
X263439Y299659D02*
X284305D01*
X284305Y299659*
D02*
D80*
X121904Y139620D03*
Y170329D03*
X128990Y267179D03*
X141982Y214817D03*
X189226Y285289D03*
X190407Y215998D03*
X204974Y250250D03*
X238439Y228596D03*
Y299659D03*
X0Y0D02*
M02*
