G04 EasyPC Gerber Version 20.0 Build 4102 *
G04 #@! TF.Part,Single*
G04 #@! TF.FileFunction,Soldermask,Bot *
%FSLAX35Y35*%
%MOIN*%
G04 #@! TA.AperFunction,ComponentPad*
%ADD85R,0.07000X0.07000*%
G04 #@! TA.AperFunction,ViaPad*
%ADD87C,0.05800*%
%ADD86C,0.06591*%
G04 #@! TA.AperFunction,ComponentPad*
%ADD84C,0.08087*%
%ADD83C,0.08874*%
X0Y0D02*
D02*
D83*
X164030Y58518D03*
X183715D03*
X216785D03*
X236470D03*
D02*
D84*
X117967Y250245D03*
Y279611D03*
D02*
D85*
X95743Y51071D03*
Y61071D03*
Y71071D03*
Y81071D03*
Y91071D03*
Y101071D03*
Y121049D03*
Y131049D03*
Y141049D03*
Y151049D03*
Y161049D03*
Y171049D03*
Y181049D03*
Y191049D03*
X285683Y51071D03*
Y61071D03*
Y71071D03*
Y81071D03*
Y91071D03*
Y101071D03*
Y111071D03*
Y121071D03*
Y137022D03*
Y147022D03*
Y157022D03*
Y167022D03*
Y177022D03*
Y187022D03*
Y197022D03*
Y207022D03*
Y217022D03*
Y227022D03*
D02*
D86*
X113242Y138045D03*
X115131Y118396D03*
X117179Y97888D03*
X122691Y56156D03*
X133343Y189226D03*
X136514Y70329D03*
X142376Y61667D03*
X145526Y97888D03*
X159699Y258124D03*
X163636Y177415D03*
X171510Y123085D03*
X214817Y203006D03*
Y216785D03*
X222691Y123085D03*
X250250Y262061D03*
X262061Y127022D03*
X269148Y172691D03*
X273872Y293163D03*
D02*
D87*
X121904Y139620D03*
Y170329D03*
X128990Y267179D03*
X141982Y214817D03*
X189226Y285289D03*
X190407Y215998D03*
X204974Y250250D03*
X238439Y228596D03*
Y299659D03*
X0Y0D02*
M02*
