G04 EasyPC Gerber Version 20.0 Build 4102 *
G04 #@! TF.Part,Single*
G04 #@! TF.FileFunction,Legend,Bot *
%FSLAX35Y35*%
%MOIN*%
%ADD82C,0.00000*%
%ADD81C,0.01181*%
X0Y0D02*
D02*
D81*
X104581Y124266D02*
X275841D01*
Y128203*
X104581*
Y124266*
G36*
X275841*
Y128203*
X104581*
Y124266*
G37*
Y208911D02*
X275841D01*
Y212848*
X104581*
Y208911*
G36*
X275841*
Y212848*
X104581*
Y208911*
G37*
D02*
D82*
X177400Y146211D02*
X176277Y144796D01*
X175631Y144012*
X175185Y143428*
X174816Y142843*
X174493Y142244*
X174217Y141629*
X174017Y141013*
X173878Y140398*
X173786Y139752*
X173755Y139122*
X173786Y138507*
X173863Y137907*
X173986Y137322*
X174170Y136769*
X174401Y136231*
X174693Y135707*
X175016Y135200*
X175416Y134723*
X175693Y134400*
X176000Y134108*
X176308Y133831*
X176631Y133585*
X176969Y133355*
X177308Y133139*
X177661Y132939*
X178030Y132770*
X178400Y132617*
X178784Y132493*
X179184Y132370*
X179599Y132294*
X180015Y132217*
X180445Y132170*
X180891Y132140*
X181337Y132124*
X182029Y132155*
X182706Y132232*
X183321Y132370*
X183920Y132555*
X184490Y132801*
X185028Y133109*
X185520Y133462*
X185997Y133878*
X186428Y134324*
X186796Y134816*
X187104Y135323*
X187350Y135861*
X187550Y136446*
X187704Y137046*
X187781Y137692*
X187811Y138353*
X187796Y138768*
X187765Y139168*
X187719Y139568*
X187627Y139952*
X187535Y140337*
X187412Y140706*
X187273Y141059*
X187104Y141413*
X186920Y141752*
X186704Y142090*
X186474Y142413*
X186228Y142736*
X185951Y143043*
X185643Y143351*
X185335Y143643*
X184982Y143920*
X184613Y144197*
X184259Y144443*
X183890Y144643*
X183552Y144812*
X183198Y144935*
X182875Y145027*
X182537Y145089*
X182229Y145104*
X181906Y145074*
X181629Y145012*
X181368Y144889*
X181152Y144720*
X180968Y144520*
X180845Y144289*
X180768Y144028*
X180737Y143751*
X180753Y143551*
X180799Y143367*
X180876Y143182*
X180968Y142997*
X181106Y142828*
X181276Y142659*
X181460Y142505*
X181691Y142367*
X182659Y141767*
X183059Y141475*
X183428Y141137*
X183752Y140737*
X184059Y140306*
X184182Y140060*
X184305Y139829*
X184397Y139598*
X184474Y139368*
X184536Y139137*
X184582Y138906*
X184597Y138676*
X184613Y138445*
X184597Y138091*
X184551Y137753*
X184474Y137430*
X184367Y137122*
X184228Y136830*
X184059Y136554*
X183859Y136292*
X183628Y136046*
X183382Y135831*
X183106Y135631*
X182829Y135477*
X182521Y135339*
X182198Y135246*
X181860Y135169*
X181506Y135123*
X181137Y135108*
X180737Y135123*
X180337Y135185*
X179953Y135277*
X179584Y135415*
X179230Y135600*
X178892Y135815*
X178554Y136061*
X178246Y136354*
X177954Y136676*
X177707Y137015*
X177492Y137353*
X177323Y137722*
X177185Y138091*
X177093Y138476*
X177031Y138876*
X177015Y139306*
Y139568*
X177046Y139829*
X177093Y140075*
X177139Y140321*
X177215Y140567*
X177292Y140798*
X177400Y141029*
X177507Y141244*
X177661Y141490*
X177831Y141752*
X178046Y142044*
X178307Y142367*
X178600Y142720*
X178922Y143105*
X179276Y143520*
X179676Y143966*
X179953Y144289*
X180214Y144581*
X180445Y144889*
X180676Y145166*
X180860Y145443*
X181045Y145704*
X181198Y145965*
X181337Y146211*
X184628*
X185013Y146227*
X185351Y146288*
X185643Y146365*
X185889Y146504*
X186074Y146657*
X186197Y146857*
X186274Y147088*
X186304Y147365*
X186289Y147565*
X186274Y147765*
X186228Y147934*
X186150Y148103*
X186074Y148272*
X185966Y148411*
X185858Y148534*
X185720Y148657*
X185381Y148857*
X184997Y149011*
X184551Y149087*
X184044Y149118*
X181967*
X181875Y149702*
X181737Y150272*
X181537Y150810*
X181291Y151317*
X180983Y151809*
X180630Y152271*
X180230Y152702*
X179769Y153101*
X179261Y153470*
X178738Y153793*
X178184Y154070*
X177600Y154285*
X177000Y154455*
X176385Y154593*
X175724Y154654*
X175062Y154685*
X174555Y154670*
X174078Y154608*
X173617Y154531*
X173186Y154393*
X172786Y154239*
X172402Y154039*
X172033Y153824*
X171694Y153547*
X171402Y153255*
X171125Y152948*
X170910Y152609*
X170726Y152256*
X170587Y151871*
X170480Y151471*
X170418Y151056*
X170402Y150625*
Y150318*
X170433Y150041*
X170480Y149764*
X170526Y149487*
X170602Y149226*
X170695Y148980*
X170802Y148733*
X170910Y148503*
X171048Y148272*
X171202Y148057*
X171371Y147857*
X171556Y147657*
X171756Y147457*
X171987Y147272*
X172217Y147104*
X172463Y146934*
X172771Y146765*
X173140Y146627*
X173540Y146488*
X173970Y146396*
X174463Y146319*
X175001Y146257*
X175570Y146227*
X176185Y146211*
X177400*
X178861Y149118D02*
X175939D01*
X175631*
X175355Y149133*
X175093Y149164*
X174847Y149210*
X174632Y149257*
X174432Y149318*
X174247Y149395*
X174078Y149472*
X173940Y149564*
X173817Y149672*
X173709Y149795*
X173617Y149918*
X173555Y150072*
X173494Y150210*
X173478Y150379*
X173463Y150548*
Y150687*
X173494Y150825*
X173540Y150948*
X173586Y151056*
X173663Y151163*
X173740Y151271*
X173847Y151363*
X173970Y151456*
X174247Y151594*
X174555Y151702*
X174909Y151779*
X175308Y151794*
X175647Y151779*
X175954Y151748*
X176262Y151671*
X176570Y151594*
X176862Y151471*
X177154Y151333*
X177431Y151163*
X177707Y150979*
X177969Y150764*
X178184Y150548*
X178384Y150333*
X178538Y150102*
X178661Y149872*
X178769Y149626*
X178830Y149380*
X178861Y149118*
X165574Y146688D02*
X165251Y146842D01*
X164958Y146996*
X164666Y147104*
X164405Y147211*
X164143Y147288*
X163897Y147334*
X163667Y147365*
X163467Y147380*
X163174Y147365*
X162898Y147334*
X162636Y147288*
X162390Y147211*
X162159Y147119*
X161944Y147011*
X161729Y146888*
X161544Y146734*
X161360Y146565*
X161206Y146381*
X161083Y146196*
X160975Y145981*
X160898Y145781*
X160837Y145550*
X160806Y145320*
X160791Y145074*
X160806Y144750*
X160868Y144428*
X160960Y144089*
X161083Y143735*
X162359Y140552*
X160960*
X160606Y140537*
X160283Y140491*
X160022Y140398*
X159806Y140275*
X159637Y140121*
X159514Y139937*
X159453Y139722*
X159422Y139460*
X159437Y139291*
X159453Y139106*
X159499Y138953*
X159560Y138799*
X159637Y138660*
X159730Y138537*
X159837Y138414*
X159960Y138307*
X160268Y138122*
X160622Y137999*
X161021Y137922*
X161483Y137891*
X163928*
X164313Y137922*
X164651Y137999*
X164958Y138137*
X165251Y138337*
X165374Y138445*
X165481Y138568*
X165574Y138691*
X165635Y138830*
X165696Y138968*
X165743Y139106*
X165758Y139260*
X165774Y139430*
X165758Y139660*
X165696Y139922*
X165620Y140214*
X165497Y140537*
X164374Y143289*
X164282Y143535*
X164205Y143751*
X164174Y143935*
X164159Y144089*
X164174Y144243*
X164220Y144397*
X164282Y144504*
X164389Y144612*
X164513Y144689*
X164681Y144735*
X164866Y144766*
X165081Y144781*
X165235Y144766*
X165389Y144750*
X165543Y144704*
X165681Y144643*
X165820Y144566*
X165958Y144489*
X166096Y144381*
X166235Y144243*
X166358Y144105*
X166481Y143951*
X166604Y143781*
X166727Y143581*
X166850Y143382*
X166957Y143151*
X167065Y142920*
X167173Y142659*
X168542Y139322*
X168711Y138937*
X168911Y138614*
X169111Y138337*
X169341Y138122*
X169587Y137953*
X169864Y137815*
X170156Y137753*
X170464Y137722*
X170695Y137738*
X170926Y137799*
X171125Y137891*
X171310Y138030*
X171464Y138199*
X171571Y138383*
X171648Y138583*
X171664Y138799*
X171648Y138983*
X171617Y139183*
X171556Y139383*
X171479Y139614*
X171341Y139937*
X166050Y153009*
X165881Y153393*
X165681Y153732*
X165466Y154024*
X165235Y154270*
X164989Y154455*
X164728Y154578*
X164451Y154654*
X164159Y154685*
X163913Y154670*
X163697Y154593*
X163497Y154501*
X163298Y154347*
X163144Y154178*
X163036Y153978*
X162959Y153763*
X162944Y153547*
X162959Y153317*
X163020Y153055*
X163128Y152748*
X163267Y152378*
X165574Y146688*
X155577Y140552D02*
X154209D01*
X153839Y140537*
X153532Y140491*
X153270Y140398*
X153055Y140275*
X152886Y140121*
X152763Y139937*
X152702Y139722*
X152670Y139460*
X152686Y139291*
X152702Y139106*
X152748Y138953*
X152809Y138799*
X152886Y138660*
X152978Y138537*
X153086Y138414*
X153209Y138307*
X153517Y138122*
X153870Y137999*
X154270Y137922*
X154731Y137891*
X156669*
X157177Y137922*
X157623Y137999*
X158022Y138137*
X158361Y138322*
X158499Y138445*
X158622Y138568*
X158730Y138707*
X158822Y138845*
X158884Y138999*
X158930Y139168*
X158961Y139337*
X158976Y139522*
X158961Y139737*
X158915Y139983*
X158837Y140244*
X158715Y140552*
X156715Y145489*
X156577Y145827*
X156423Y146150*
X156254Y146442*
X156054Y146673*
X155839Y146873*
X155608Y147011*
X155346Y147119*
X155070Y147196*
X154778Y147211*
X154531Y147196*
X154301Y147119*
X154085Y147011*
X153885Y146873*
X153732Y146688*
X153609Y146488*
X153532Y146288*
X153517Y146058*
X153532Y145827*
X153593Y145566*
X153701Y145243*
X153839Y144858*
X155577Y140552*
X153978Y151087D02*
X153639Y151056D01*
X153332Y150963*
X153178Y150887*
X153040Y150810*
X152901Y150702*
X152778Y150594*
X152670Y150471*
X152563Y150333*
X152471Y150194*
X152409Y150041*
X152348Y149887*
X152317Y149733*
X152286Y149564*
Y149395*
Y149226*
X152317Y149057*
X152348Y148887*
X152409Y148733*
X152471Y148595*
X152563Y148457*
X152670Y148319*
X152778Y148195*
X152901Y148072*
X153040Y147980*
X153178Y147888*
X153332Y147826*
X153470Y147765*
X153639Y147734*
X153809Y147703*
X153978*
X154147*
X154316Y147734*
X154470Y147765*
X154624Y147826*
X154778Y147888*
X154916Y147980*
X155054Y148072*
X155178Y148195*
X155285Y148319*
X155393Y148457*
X155470Y148595*
X155546Y148733*
X155593Y148887*
X155639Y149057*
X155654Y149226*
X155670Y149395*
X155654Y149564*
X155639Y149733*
X155593Y149887*
X155546Y150041*
X155470Y150194*
X155393Y150333*
X155285Y150471*
X155178Y150594*
X155054Y150702*
X154916Y150810*
X154778Y150887*
X154624Y150963*
X154316Y151056*
X153978Y151087*
X149272Y141459D02*
X149257Y141244D01*
X149195Y141059*
X149087Y140906*
X148933Y140783*
X148733Y140675*
X148503Y140613*
X148226Y140567*
X147903Y140552*
X144289*
X143920Y140537*
X143613Y140491*
X143351Y140398*
X143136Y140275*
X142967Y140121*
X142843Y139937*
X142782Y139722*
X142751Y139460*
X142767Y139291*
X142782Y139106*
X142828Y138953*
X142890Y138799*
X142967Y138660*
X143059Y138537*
X143167Y138414*
X143289Y138307*
X143597Y138122*
X143935Y137999*
X144351Y137922*
X144812Y137891*
X148257*
X148718Y137907*
X149164Y137953*
X149564Y138030*
X149948Y138122*
X150302Y138261*
X150625Y138430*
X150917Y138614*
X151194Y138845*
X151425Y139091*
X151625Y139368*
X151794Y139676*
X151948Y140014*
X152056Y140367*
X152132Y140752*
X152178Y141167*
X152194Y141613*
X152163Y142198*
X152102Y142751*
X151963Y143289*
X151794Y143812*
X151579Y144304*
X151302Y144781*
X150979Y145243*
X150610Y145673*
X150194Y146073*
X149764Y146427*
X149333Y146719*
X148857Y146950*
X148380Y147134*
X147888Y147272*
X147365Y147350*
X146827Y147380*
X146427Y147365*
X146058Y147334*
X145719Y147257*
X145381Y147165*
X145074Y147057*
X144781Y146904*
X144504Y146734*
X144258Y146550*
X144028Y146335*
X143828Y146089*
X143674Y145843*
X143535Y145581*
X143428Y145289*
X143351Y144996*
X143305Y144674*
X143289Y144351*
X143305Y143951*
X143367Y143581*
X143474Y143228*
X143628Y142920*
X143812Y142628*
X144043Y142351*
X144320Y142121*
X144628Y141906*
X144828Y141798*
X145043Y141706*
X145289Y141629*
X145550Y141567*
X145843Y141521*
X146150Y141490*
X146488Y141459*
X146842*
X149272*
X148687Y143674D02*
X147350D01*
X147057Y143689*
X146780Y143705*
X146565Y143751*
X146381Y143812*
X146242Y143889*
X146150Y143997*
X146104Y144105*
X146089Y144243*
X146104Y144397*
X146150Y144520*
X146227Y144643*
X146319Y144720*
X146427Y144796*
X146581Y144843*
X146734Y144874*
X146934Y144889*
X147196Y144874*
X147457Y144812*
X147703Y144720*
X147934Y144581*
X148149Y144412*
X148349Y144212*
X148519Y143951*
X148687Y143674*
X139014Y140552D02*
X137738D01*
X137384Y140537*
X137061Y140491*
X136800Y140398*
X136584Y140275*
X136415Y140121*
X136292Y139937*
X136231Y139722*
X136200Y139460*
X136215Y139291*
X136231Y139106*
X136277Y138953*
X136338Y138799*
X136415Y138660*
X136507Y138537*
X136615Y138414*
X136738Y138307*
X137030Y138122*
X137384Y137999*
X137799Y137922*
X138245Y137891*
X140444*
X140875Y137922*
X141259Y137999*
X141582Y138137*
X141875Y138322*
X141998Y138430*
X142105Y138553*
X142198Y138676*
X142259Y138814*
X142320Y138968*
X142367Y139122*
X142382Y139291*
X142398Y139460*
Y139568*
X142382Y139676*
X142351Y139814*
X142305Y139968*
X142259Y140121*
X142198Y140306*
X142121Y140506*
X142044Y140721*
X137122Y152824*
X136984Y153147*
X136846Y153470*
X136661Y153747*
X136477Y153978*
X136261Y154178*
X136031Y154316*
X135769Y154424*
X135493Y154501*
X135200Y154516*
X134954Y154501*
X134723Y154424*
X134524Y154316*
X134324Y154178*
X134170Y153993*
X134062Y153793*
X133985Y153593*
X133970Y153363*
X133985Y153163*
X134016Y152963*
X134078Y152763*
X134154Y152532*
X134293Y152209*
X139014Y140552*
X127280D02*
X125896D01*
X125542Y140537*
X125219Y140491*
X124958Y140398*
X124743Y140275*
X124573Y140121*
X124450Y139937*
X124389Y139722*
X124358Y139460*
X124373Y139291*
X124389Y139106*
X124435Y138953*
X124496Y138799*
X124573Y138660*
X124666Y138537*
X124773Y138414*
X124896Y138307*
X125204Y138122*
X125557Y137999*
X125957Y137922*
X126404Y137891*
X128049*
X128280Y137907*
X128495Y137938*
X128695Y137999*
X128880Y138091*
X129048Y138199*
X129187Y138322*
X129326Y138491*
X129448Y138676*
X129633Y138491*
X129833Y138322*
X130048Y138199*
X130248Y138091*
X130463Y137999*
X130679Y137938*
X130894Y137907*
X131109Y137891*
X132663*
X132985Y137907*
X133293Y137953*
X133601Y138015*
X133878Y138122*
X134139Y138245*
X134385Y138414*
X134616Y138599*
X134816Y138814*
X135016Y139060*
X135169Y139322*
X135308Y139598*
X135431Y139891*
X135523Y140214*
X135585Y140552*
X135615Y140906*
X135631Y141275*
X135600Y141859*
X135523Y142428*
X135400Y142967*
X135231Y143505*
X135000Y144028*
X134723Y144535*
X134400Y145027*
X134031Y145504*
X133616Y145935*
X133201Y146319*
X132770Y146642*
X132324Y146904*
X131878Y147119*
X131402Y147257*
X130925Y147350*
X130433Y147380*
X130064Y147365*
X129725Y147319*
X129402Y147226*
X129110Y147119*
X128818Y146965*
X128556Y146780*
X128310Y146565*
X128080Y146319*
X125357Y152978*
X125189Y153378*
X124989Y153732*
X124773Y154024*
X124527Y154255*
X124281Y154439*
X124020Y154578*
X123728Y154654*
X123435Y154685*
X123174Y154670*
X122943Y154593*
X122728Y154501*
X122543Y154347*
X122374Y154178*
X122267Y153978*
X122190Y153763*
X122174Y153532*
X122190Y153332*
X122220Y153132*
X122282Y152901*
X122359Y152670*
X122497Y152348*
X127280Y140552*
X131740Y140491D02*
X131278D01*
X131079Y140506*
X130894Y140537*
X130740Y140583*
X130587Y140660*
X130463Y140752*
X130341Y140859*
X130248Y140998*
X130171Y141152*
X129264Y143413*
X129187Y143597*
X129141Y143781*
X129110Y143920*
X129095Y144043*
X129110Y144212*
X129172Y144381*
X129264Y144535*
X129402Y144658*
X129572Y144781*
X129756Y144858*
X129956Y144904*
X130171Y144920*
X130417Y144904*
X130648Y144858*
X130879Y144766*
X131094Y144658*
X131309Y144504*
X131524Y144320*
X131740Y144105*
X131955Y143859*
X132140Y143597*
X132309Y143320*
X132447Y143043*
X132570Y142751*
X132647Y142474*
X132724Y142182*
X132755Y141875*
X132770Y141567*
X132755Y141321*
X132709Y141106*
X132632Y140906*
X132509Y140767*
X132370Y140644*
X132186Y140552*
X131986Y140506*
X131740Y140491*
X180891Y132138D02*
X181648D01*
X179932Y132232D02*
X182706D01*
X179427Y132326D02*
X183122D01*
X179025Y132419D02*
X183480D01*
X178723Y132513D02*
X183784D01*
X178430Y132607D02*
X184040D01*
X178198Y132700D02*
X184257D01*
X177979Y132794D02*
X184473D01*
X177774Y132888D02*
X184641D01*
X177587Y132981D02*
X184806D01*
X177421Y133075D02*
X184969D01*
X177261Y133169D02*
X185112D01*
X177114Y133263D02*
X185242D01*
X176969Y133356D02*
X185373D01*
X176830Y133450D02*
X185503D01*
X176692Y133544D02*
X185614D01*
X176563Y133637D02*
X185721D01*
X176440Y133731D02*
X185829D01*
X176317Y133825D02*
X185936D01*
X176211Y133919D02*
X186036D01*
X176107Y134012D02*
X186127D01*
X176003Y134106D02*
X186217D01*
X175904Y134200D02*
X186308D01*
X175806Y134293D02*
X186398D01*
X175707Y134387D02*
X186475D01*
X175624Y134481D02*
X186545D01*
X175544Y134574D02*
X186615D01*
X175463Y134668D02*
X186686D01*
X175384Y134762D02*
X186756D01*
X175305Y134856D02*
X186820D01*
X175226Y134949D02*
X186877D01*
X175148Y135043D02*
X186934D01*
X175069Y135137D02*
X180650D01*
X181609D02*
X186991D01*
X174997Y135230D02*
X180148D01*
X182127D02*
X187048D01*
X174937Y135324D02*
X179828D01*
X182470D02*
X187104D01*
X174878Y135418D02*
X179579D01*
X182697D02*
X187147D01*
X174818Y135511D02*
X179400D01*
X182891D02*
X187190D01*
X174758Y135605D02*
X179222D01*
X183059D02*
X187233D01*
X174699Y135699D02*
X179075D01*
X183200D02*
X187276D01*
X174646Y135793D02*
X178928D01*
X183330D02*
X187319D01*
X174594Y135886D02*
X178794D01*
X183446D02*
X187359D01*
X174541Y135980D02*
X178666D01*
X183553D02*
X187391D01*
X174489Y136074D02*
X178541D01*
X183654D02*
X187423D01*
X174437Y136167D02*
X178442D01*
X183742D02*
X187455D01*
X174388Y136261D02*
X178343D01*
X183830D02*
X187487D01*
X174348Y136355D02*
X178244D01*
X183907D02*
X187519D01*
X174308Y136448D02*
X178160D01*
X183979D02*
X187551D01*
X174268Y136542D02*
X178075D01*
X184050D02*
X187575D01*
X174228Y136636D02*
X177990D01*
X184109D02*
X187599D01*
X174187Y136730D02*
X177915D01*
X184167D02*
X187623D01*
X174152Y136823D02*
X177847D01*
X184224D02*
X187647D01*
X174121Y136917D02*
X177779D01*
X184269D02*
X187671D01*
X174090Y137011D02*
X177711D01*
X184314D02*
X187695D01*
X174059Y137104D02*
X177650D01*
X184358D02*
X187711D01*
X174027Y137198D02*
X177591D01*
X184393D02*
X187722D01*
X173996Y137292D02*
X177531D01*
X184426D02*
X187733D01*
X173972Y137385D02*
X177477D01*
X184459D02*
X187744D01*
X173953Y137479D02*
X177435D01*
X184486D02*
X187756D01*
X173933Y137573D02*
X177392D01*
X184508D02*
X187767D01*
X173913Y137667D02*
X177349D01*
X184531D02*
X187778D01*
X170122Y137760D02*
X170779D01*
X173894D02*
X177309D01*
X184552D02*
X187784D01*
X169785Y137854D02*
X171044D01*
X173874D02*
X177274D01*
X184565D02*
X187788D01*
X125825Y137948D02*
X128527D01*
X130644D02*
X133257D01*
X137661D02*
X141002D01*
X144213D02*
X149111D01*
X154137D02*
X157325D01*
X160889D02*
X164425D01*
X169598D02*
X171200D01*
X173858D02*
X177239D01*
X184578D02*
X187793D01*
X125436Y138041D02*
X128779D01*
X130365D02*
X133670D01*
X137263D02*
X141358D01*
X143819D02*
X149612D01*
X153749D02*
X157744D01*
X160500D02*
X164744D01*
X169459D02*
X171320D01*
X173846D02*
X177204D01*
X184591D02*
X187797D01*
X125182Y138135D02*
X128948D01*
X130167D02*
X133905D01*
X137010D02*
X141577D01*
X143576D02*
X149981D01*
X153495D02*
X158016D01*
X160246D02*
X164953D01*
X169328D02*
X171406D01*
X173833D02*
X177174D01*
X184599D02*
X187801D01*
X125026Y138229D02*
X129082D01*
X129996D02*
X134104D01*
X136861D02*
X141727D01*
X143419D02*
X150221D01*
X153339D02*
X158190D01*
X160090D02*
X165092D01*
X169227D02*
X171481D01*
X173822D02*
X177152D01*
X184603D02*
X187806D01*
X124878Y138322D02*
X129187D01*
X129833D02*
X134252D01*
X136720D02*
X141875D01*
X143271D02*
X150420D01*
X153191D02*
X158361D01*
X159942D02*
X165229D01*
X169127D02*
X171536D01*
X173809D02*
X177129D01*
X184607D02*
X187810D01*
X124772Y138416D02*
X129264D01*
X129722D02*
X134387D01*
X136613D02*
X141982D01*
X143165D02*
X150599D01*
X153084D02*
X158467D01*
X159836D02*
X165341D01*
X169054D02*
X171584D01*
X173798D02*
X177107D01*
X184611D02*
X187809D01*
X124690Y138510D02*
X129338D01*
X129615D02*
X134505D01*
X136531D02*
X142068D01*
X143083D02*
X150752D01*
X153002D02*
X158564D01*
X159754D02*
X165430D01*
X168986D02*
X171620D01*
X173786D02*
X177087D01*
X184608D02*
X187806D01*
X124616Y138604D02*
X129400D01*
X129521D02*
X134620D01*
X136457D02*
X142143D01*
X143009D02*
X150900D01*
X152928D02*
X158650D01*
X159680D02*
X165508D01*
X168919D02*
X171650D01*
X173781D02*
X177073D01*
X184602D02*
X187802D01*
X124553Y138697D02*
X134707D01*
X136394D02*
X142207D01*
X142946D02*
X151017D01*
X152865D02*
X158722D01*
X159617D02*
X165576D01*
X168859D02*
X171657D01*
X173776D02*
X177058D01*
X184596D02*
X187799D01*
X124501Y138791D02*
X134794D01*
X136343D02*
X142249D01*
X142894D02*
X151130D01*
X152813D02*
X158786D01*
X159565D02*
X165618D01*
X168802D02*
X171663D01*
X173772D02*
X177044D01*
X184590D02*
X187794D01*
X124462Y138885D02*
X134873D01*
X136304D02*
X142287D01*
X142855D02*
X151231D01*
X152775D02*
X158838D01*
X159526D02*
X165659D01*
X168744D02*
X171657D01*
X173767D02*
X177030D01*
X184583D02*
X187787D01*
X124427Y138978D02*
X134949D01*
X136269D02*
X142324D01*
X142820D02*
X151319D01*
X152740D02*
X158876D01*
X159491D02*
X165700D01*
X168693D02*
X171649D01*
X173762D02*
X177027D01*
X184567D02*
X187780D01*
X124399Y139072D02*
X135023D01*
X136241D02*
X142352D01*
X142792D02*
X151407D01*
X152712D02*
X158904D01*
X159463D02*
X165731D01*
X168652D02*
X171635D01*
X173757D02*
X177024D01*
X184549D02*
X187773D01*
X124383Y139166D02*
X135078D01*
X136226D02*
X142371D01*
X142777D02*
X151479D01*
X152696D02*
X158929D01*
X159448D02*
X165749D01*
X168610D02*
X171620D01*
X173757D02*
X177020D01*
X184528D02*
X187765D01*
X124376Y139259D02*
X135133D01*
X136218D02*
X142380D01*
X142769D02*
X151546D01*
X152689D02*
X158946D01*
X159440D02*
X165758D01*
X168569D02*
X171594D01*
X173762D02*
X177017D01*
X184503D02*
X187755D01*
X124368Y139353D02*
X135185D01*
X136209D02*
X142388D01*
X142761D02*
X151614D01*
X152680D02*
X158962D01*
X159432D02*
X165767D01*
X168529D02*
X171565D01*
X173767D02*
X177015D01*
X184478D02*
X187744D01*
X124359Y139447D02*
X135232D01*
X136201D02*
X142396D01*
X142752D02*
X151669D01*
X152672D02*
X158970D01*
X159423D02*
X165772D01*
X168491D02*
X171535D01*
X173771D02*
X177015D01*
X184448D02*
X187733D01*
X124367Y139541D02*
X135279D01*
X136209D02*
X142398D01*
X142761D02*
X151720D01*
X152680D02*
X158975D01*
X159431D02*
X165766D01*
X168452D02*
X171504D01*
X173776D02*
X177015D01*
X184417D02*
X187722D01*
X124378Y139634D02*
X135323D01*
X136220D02*
X142388D01*
X142772D02*
X151771D01*
X152691D02*
X158968D01*
X159443D02*
X165760D01*
X168413D02*
X171470D01*
X173780D02*
X177023D01*
X184383D02*
X187703D01*
X124391Y139728D02*
X135362D01*
X136233D02*
X142370D01*
X142784D02*
X151818D01*
X152704D02*
X158961D01*
X159455D02*
X165742D01*
X168375D02*
X171430D01*
X173785D02*
X177034D01*
X184346D02*
X187681D01*
X124417Y139822D02*
X135402D01*
X136259D02*
X142349D01*
X142810D02*
X151860D01*
X152730D02*
X158945D01*
X159481D02*
X165720D01*
X168337D02*
X171390D01*
X173796D02*
X177045D01*
X184308D02*
X187658D01*
X124444Y139915D02*
X135438D01*
X136286D02*
X142321D01*
X142837D02*
X151903D01*
X152757D02*
X158927D01*
X159508D02*
X165698D01*
X168298D02*
X171350D01*
X173809D02*
X177062D01*
X184259D02*
X187636D01*
X124498Y140009D02*
X135465D01*
X136340D02*
X142293D01*
X142891D02*
X151946D01*
X152811D02*
X158907D01*
X159562D02*
X165674D01*
X168260D02*
X171311D01*
X173822D02*
X177080D01*
X184209D02*
X187613D01*
X124561Y140103D02*
X135491D01*
X136403D02*
X142265D01*
X142954D02*
X151975D01*
X152874D02*
X158879D01*
X159625D02*
X165649D01*
X168221D02*
X171274D01*
X173836D02*
X177098D01*
X184161D02*
X187591D01*
X124656Y140196D02*
X135518D01*
X136498D02*
X142234D01*
X143049D02*
X152004D01*
X152969D02*
X158852D01*
X159720D02*
X165624D01*
X168183D02*
X171235D01*
X173850D02*
X177115D01*
X184114D02*
X187568D01*
X124769Y140290D02*
X135537D01*
X136610D02*
X142203D01*
X143162D02*
X152032D01*
X153081D02*
X158819D01*
X159832D02*
X165591D01*
X168144D02*
X171198D01*
X173863D02*
X177133D01*
X184067D02*
X187546D01*
X124932Y140384D02*
X135554D01*
X136774D02*
X142168D01*
X143326D02*
X152059D01*
X153245D02*
X158782D01*
X159996D02*
X165555D01*
X168106D02*
X171160D01*
X173876D02*
X177158D01*
X184004D02*
X187519D01*
X125182Y140478D02*
X135571D01*
X137024D02*
X142132D01*
X143576D02*
X152078D01*
X153495D02*
X158744D01*
X160246D02*
X165519D01*
X168068D02*
X171122D01*
X173896D02*
X177187D01*
X183937D02*
X187488D01*
X127272Y140571D02*
X130778D01*
X132224D02*
X135586D01*
X139006D02*
X142098D01*
X148250D02*
X152096D01*
X155569D02*
X158707D01*
X162352D02*
X165483D01*
X168029D02*
X171084D01*
X173917D02*
X177217D01*
X183870D02*
X187457D01*
X127234Y140665D02*
X130580D01*
X132393D02*
X135594D01*
X138969D02*
X142064D01*
X148695D02*
X152115D01*
X155531D02*
X158669D01*
X162314D02*
X165444D01*
X167991D02*
X171046D01*
X173938D02*
X177248D01*
X183803D02*
X187426D01*
X127196Y140759D02*
X130456D01*
X132499D02*
X135603D01*
X138930D02*
X142028D01*
X148889D02*
X152133D01*
X155494D02*
X158631D01*
X162277D02*
X165406D01*
X167952D02*
X171008D01*
X173959D02*
X177279D01*
X183734D02*
X187391D01*
X127158Y140852D02*
X130349D01*
X132584D02*
X135611D01*
X138893D02*
X141991D01*
X149020D02*
X152143D01*
X155456D02*
X158593D01*
X162239D02*
X165368D01*
X167914D02*
X170970D01*
X173980D02*
X177318D01*
X183658D02*
X187354D01*
X127120Y140946D02*
X130283D01*
X132647D02*
X135617D01*
X138855D02*
X141952D01*
X149115D02*
X152154D01*
X155418D02*
X158555D01*
X162202D02*
X165330D01*
X167876D02*
X170932D01*
X174002D02*
X177361D01*
X183582D02*
X187318D01*
X127082Y141040D02*
X130227D01*
X132683D02*
X135621D01*
X138817D02*
X141914D01*
X149181D02*
X152164D01*
X155380D02*
X158517D01*
X162164D02*
X165292D01*
X167837D02*
X170894D01*
X174025D02*
X177406D01*
X183507D02*
X187281D01*
X127044Y141133D02*
X130180D01*
X132715D02*
X135625D01*
X138779D02*
X141876D01*
X149220D02*
X152174D01*
X155343D02*
X158479D01*
X162126D02*
X165254D01*
X167798D02*
X170856D01*
X174056D02*
X177452D01*
X183431D02*
X187238D01*
X127006Y141227D02*
X130141D01*
X132735D02*
X135629D01*
X138741D02*
X141838D01*
X149251D02*
X152180D01*
X155305D02*
X158441D01*
X162089D02*
X165215D01*
X167760D02*
X170819D01*
X174086D02*
X177499D01*
X183330D02*
X187193D01*
X126968Y141321D02*
X130104D01*
X132755D02*
X135628D01*
X138703D02*
X141800D01*
X149262D02*
X152183D01*
X155267D02*
X158403D01*
X162051D02*
X165177D01*
X167722D02*
X170781D01*
X174117D02*
X177556D01*
X183228D02*
X187148D01*
X126930Y141415D02*
X130066D01*
X132761D02*
X135623D01*
X138665D02*
X141762D01*
X149269D02*
X152187D01*
X155229D02*
X158365D01*
X162014D02*
X165139D01*
X167683D02*
X170743D01*
X174147D02*
X177614D01*
X183125D02*
X187103D01*
X126892Y141508D02*
X130028D01*
X132767D02*
X135619D01*
X138627D02*
X141724D01*
X145969D02*
X152190D01*
X155191D02*
X158327D01*
X161976D02*
X165100D01*
X167645D02*
X170705D01*
X174178D02*
X177673D01*
X183014D02*
X187052D01*
X126854Y141602D02*
X129991D01*
X132769D02*
X135613D01*
X138589D02*
X141685D01*
X145402D02*
X152193D01*
X155154D02*
X158289D01*
X161939D02*
X165062D01*
X167606D02*
X170667D01*
X174208D02*
X177734D01*
X182885D02*
X187001D01*
X126816Y141696D02*
X129953D01*
X132764D02*
X135609D01*
X138551D02*
X141648D01*
X145074D02*
X152189D01*
X155116D02*
X158252D01*
X161901D02*
X165024D01*
X167568D02*
X170629D01*
X174247D02*
X177794D01*
X182757D02*
X186950D01*
X126778Y141789D02*
X129915D01*
X132759D02*
X135604D01*
X138513D02*
X141609D01*
X144847D02*
X152184D01*
X155078D02*
X158213D01*
X161863D02*
X164986D01*
X167530D02*
X170591D01*
X174289D02*
X177859D01*
X182623D02*
X186896D01*
X126740Y141883D02*
X129878D01*
X132754D02*
X135597D01*
X138475D02*
X141571D01*
X144669D02*
X152180D01*
X155040D02*
X158176D01*
X161826D02*
X164948D01*
X167491D02*
X170553D01*
X174331D02*
X177928D01*
X182472D02*
X186836D01*
X126702Y141977D02*
X129840D01*
X132744D02*
X135584D01*
X138437D02*
X141533D01*
X144526D02*
X152174D01*
X155002D02*
X158137D01*
X161788D02*
X164909D01*
X167453D02*
X170515D01*
X174373D02*
X177997D01*
X182320D02*
X186776D01*
X126664Y142070D02*
X129802D01*
X132735D02*
X135572D01*
X138399D02*
X141495D01*
X144392D02*
X152170D01*
X154965D02*
X158100D01*
X161751D02*
X164871D01*
X167414D02*
X170477D01*
X174415D02*
X178068D01*
X182169D02*
X186717D01*
X126626Y142164D02*
X129765D01*
X132726D02*
X135559D01*
X138361D02*
X141457D01*
X144268D02*
X152165D01*
X154926D02*
X158062D01*
X161713D02*
X164833D01*
X167376D02*
X170439D01*
X174457D02*
X178143D01*
X182018D02*
X186651D01*
X126588Y142258D02*
X129727D01*
X132704D02*
X135546D01*
X138323D02*
X141419D01*
X144155D02*
X152156D01*
X154889D02*
X158024D01*
X161676D02*
X164795D01*
X167337D02*
X170401D01*
X174501D02*
X178219D01*
X181867D02*
X186584D01*
X126550Y142352D02*
X129690D01*
X132680D02*
X135533D01*
X138285D02*
X141381D01*
X144043D02*
X152146D01*
X154851D02*
X157986D01*
X161638D02*
X164757D01*
X167299D02*
X170363D01*
X174552D02*
X178295D01*
X181715D02*
X186517D01*
X126512Y142445D02*
X129652D01*
X132655D02*
X135519D01*
X138247D02*
X141343D01*
X143965D02*
X152135D01*
X154813D02*
X157948D01*
X161600D02*
X164719D01*
X167261D02*
X170326D01*
X174602D02*
X178372D01*
X181560D02*
X186449D01*
X126474Y142539D02*
X129615D01*
X132630D02*
X135498D01*
X138209D02*
X141305D01*
X143887D02*
X152125D01*
X154775D02*
X157910D01*
X161563D02*
X164680D01*
X167222D02*
X170287D01*
X174652D02*
X178450D01*
X181419D02*
X186378D01*
X126436Y142633D02*
X129577D01*
X132603D02*
X135476D01*
X138172D02*
X141267D01*
X143809D02*
X152115D01*
X154737D02*
X157872D01*
X161525D02*
X164642D01*
X167183D02*
X170250D01*
X174703D02*
X178527D01*
X181307D02*
X186306D01*
X126398Y142726D02*
X129539D01*
X132577D02*
X135455D01*
X138133D02*
X141228D01*
X143750D02*
X152104D01*
X154700D02*
X157834D01*
X161488D02*
X164604D01*
X167145D02*
X170212D01*
X174753D02*
X178605D01*
X181208D02*
X186235D01*
X126360Y142820D02*
X129502D01*
X132541D02*
X135433D01*
X138096D02*
X141190D01*
X143691D02*
X152084D01*
X154662D02*
X157796D01*
X161450D02*
X164565D01*
X167107D02*
X170174D01*
X174804D02*
X178683D01*
X181114D02*
X186152D01*
X126322Y142914D02*
X129464D01*
X132502D02*
X135412D01*
X138057D02*
X141152D01*
X143632D02*
X152060D01*
X154624D02*
X157758D01*
X161413D02*
X164527D01*
X167068D02*
X170136D01*
X174861D02*
X178762D01*
X181036D02*
X186067D01*
X126284Y143007D02*
X129426D01*
X132462D02*
X135387D01*
X138020D02*
X141114D01*
X143584D02*
X152036D01*
X154586D02*
X157720D01*
X161375D02*
X164489D01*
X167025D02*
X170098D01*
X174920D02*
X178841D01*
X180963D02*
X185983D01*
X126246Y143101D02*
X129389D01*
X132419D02*
X135358D01*
X137982D02*
X141076D01*
X143537D02*
X152012D01*
X154548D02*
X157682D01*
X161337D02*
X164451D01*
X166981D02*
X170060D01*
X174979D02*
X178919D01*
X180916D02*
X185893D01*
X126208Y143195D02*
X129351D01*
X132372D02*
X135328D01*
X137944D02*
X141038D01*
X143491D02*
X151988D01*
X154511D02*
X157644D01*
X161300D02*
X164413D01*
X166937D02*
X170022D01*
X175038D02*
X178999D01*
X180870D02*
X185799D01*
X126170Y143289D02*
X129313D01*
X132325D02*
X135299D01*
X137906D02*
X141000D01*
X143456D02*
X151964D01*
X154473D02*
X157606D01*
X161262D02*
X164374D01*
X166893D02*
X169984D01*
X175097D02*
X179079D01*
X180831D02*
X185706D01*
X126132Y143382D02*
X129276D01*
X132271D02*
X135270D01*
X137868D02*
X140962D01*
X143427D02*
X151933D01*
X154435D02*
X157569D01*
X161225D02*
X164339D01*
X166850D02*
X169946D01*
X175157D02*
X179159D01*
X180795D02*
X185610D01*
X126094Y143476D02*
X129237D01*
X132214D02*
X135240D01*
X137830D02*
X140924D01*
X143398D02*
X151903D01*
X154397D02*
X157530D01*
X161187D02*
X164304D01*
X166792D02*
X169908D01*
X175222D02*
X179239D01*
X180772D02*
X185511D01*
X126056Y143570D02*
X129198D01*
X132157D02*
X135202D01*
X137792D02*
X140885D01*
X143370D02*
X151872D01*
X154359D02*
X157493D01*
X161150D02*
X164270D01*
X166734D02*
X169870D01*
X175294D02*
X179321D01*
X180751D02*
X185413D01*
X126019Y143663D02*
X129170D01*
X132093D02*
X135161D01*
X137754D02*
X140847D01*
X143353D02*
X151842D01*
X154322D02*
X157454D01*
X161112D02*
X164236D01*
X166677D02*
X169833D01*
X175365D02*
X179405D01*
X180744D02*
X185310D01*
X125980Y143757D02*
X129147D01*
X132027D02*
X135120D01*
X137716D02*
X140809D01*
X143337D02*
X146546D01*
X148637D02*
X151812D01*
X154284D02*
X157417D01*
X161076D02*
X164204D01*
X166619D02*
X169794D01*
X175437D02*
X179489D01*
X180738D02*
X185190D01*
X125943Y143851D02*
X129126D01*
X131961D02*
X135078D01*
X137678D02*
X140771D01*
X143322D02*
X146311D01*
X148580D02*
X151777D01*
X154246D02*
X157379D01*
X161043D02*
X164188D01*
X166554D02*
X169757D01*
X175508D02*
X179573D01*
X180748D02*
X185070D01*
X125904Y143944D02*
X129107D01*
X131880D02*
X135037D01*
X137640D02*
X140733D01*
X143306D02*
X146195D01*
X148522D02*
X151736D01*
X154208D02*
X157341D01*
X161010D02*
X164173D01*
X166486D02*
X169719D01*
X175580D02*
X179657D01*
X180759D02*
X184949D01*
X125867Y144038D02*
X129095D01*
X131798D02*
X134994D01*
X137602D02*
X140695D01*
X143301D02*
X146132D01*
X148462D02*
X151695D01*
X154170D02*
X157303D01*
X160978D02*
X164164D01*
X166411D02*
X169681D01*
X175653D02*
X179738D01*
X180771D02*
X184824D01*
X125828Y144132D02*
X129103D01*
X131713D02*
X134943D01*
X137564D02*
X140657D01*
X143298D02*
X146101D01*
X148401D02*
X151654D01*
X154133D02*
X157265D01*
X160948D02*
X164163D01*
X166334D02*
X169643D01*
X175730D02*
X179818D01*
X180799D02*
X184699D01*
X125791Y144226D02*
X129115D01*
X131619D02*
X134892D01*
X137526D02*
X140619D01*
X143294D02*
X146091D01*
X148336D02*
X151613D01*
X154095D02*
X157227D01*
X160923D02*
X164172D01*
X166250D02*
X169605D01*
X175807D02*
X179898D01*
X180826D02*
X184571D01*
X125752Y144319D02*
X129149D01*
X131524D02*
X134841D01*
X137489D02*
X140581D01*
X143291D02*
X146096D01*
X148242D02*
X151570D01*
X154057D02*
X157189D01*
X160897D02*
X164197D01*
X166159D02*
X169567D01*
X175884D02*
X179980D01*
X180861D02*
X184437D01*
X125715Y144413D02*
X129191D01*
X131416D02*
X134790D01*
X137450D02*
X140543D01*
X143293D02*
X146110D01*
X148149D02*
X151516D01*
X154019D02*
X157151D01*
X160872D02*
X164230D01*
X166056D02*
X169529D01*
X175961D02*
X180064D01*
X180911D02*
X184302D01*
X125676Y144507D02*
X129247D01*
X131306D02*
X134739D01*
X137413D02*
X140504D01*
X143297D02*
X146145D01*
X148029D02*
X151461D01*
X153981D02*
X157113D01*
X160853D02*
X164284D01*
X165926D02*
X169491D01*
X176039D02*
X180147D01*
X180961D02*
X184141D01*
X125639Y144600D02*
X129337D01*
X131175D02*
X134680D01*
X137374D02*
X140467D01*
X143301D02*
X146200D01*
X147902D02*
X151407D01*
X153943D02*
X157075D01*
X160835D02*
X164378D01*
X165757D02*
X169453D01*
X176116D02*
X180228D01*
X181042D02*
X183968D01*
X125600Y144694D02*
X129452D01*
X131022D02*
X134619D01*
X137337D02*
X140428D01*
X143307D02*
X146289D01*
X147746D02*
X151352D01*
X153906D02*
X157037D01*
X160817D02*
X164531D01*
X165566D02*
X169415D01*
X176193D02*
X180299D01*
X181129D02*
X183787D01*
X125563Y144788D02*
X129588D01*
X130824D02*
X134557D01*
X137299D02*
X140390D01*
X143321D02*
X146415D01*
X147521D02*
X151297D01*
X153868D02*
X156999D01*
X160804D02*
X169378D01*
X176270D02*
X180369D01*
X181239D02*
X183600D01*
X125524Y144881D02*
X129857D01*
X130531D02*
X134496D01*
X137261D02*
X140352D01*
X143335D02*
X146837D01*
X147061D02*
X151232D01*
X153831D02*
X156961D01*
X160800D02*
X169339D01*
X176344D02*
X180439D01*
X181358D02*
X183352D01*
X125487Y144975D02*
X134435D01*
X137223D02*
X140314D01*
X143348D02*
X151166D01*
X153797D02*
X156923D01*
X160795D02*
X169302D01*
X176419D02*
X180517D01*
X181551D02*
X183057D01*
X125448Y145069D02*
X134368D01*
X137185D02*
X140276D01*
X143370D02*
X151101D01*
X153764D02*
X156885D01*
X160791D02*
X169264D01*
X176493D02*
X180595D01*
X181885D02*
X182646D01*
X125411Y145163D02*
X134296D01*
X137147D02*
X140238D01*
X143395D02*
X151035D01*
X153730D02*
X156847D01*
X160796D02*
X169226D01*
X176568D02*
X180673D01*
X125372Y145256D02*
X134223D01*
X137109D02*
X140200D01*
X143419D02*
X150967D01*
X153696D02*
X156809D01*
X160802D02*
X169188D01*
X176642D02*
X180736D01*
X125335Y145350D02*
X134151D01*
X137071D02*
X140161D01*
X143450D02*
X150887D01*
X153665D02*
X156772D01*
X160810D02*
X169150D01*
X176717D02*
X180798D01*
X125296Y145444D02*
X134078D01*
X137033D02*
X140124D01*
X143485D02*
X150807D01*
X153634D02*
X156733D01*
X160823D02*
X169112D01*
X176791D02*
X180861D01*
X125259Y145537D02*
X133999D01*
X136995D02*
X140085D01*
X143519D02*
X150726D01*
X153603D02*
X156695D01*
X160835D02*
X169074D01*
X176865D02*
X180927D01*
X125220Y145631D02*
X133909D01*
X136957D02*
X140047D01*
X143562D02*
X150646D01*
X153578D02*
X156657D01*
X160859D02*
X169036D01*
X176939D02*
X180993D01*
X125183Y145725D02*
X133819D01*
X136919D02*
X140009D01*
X143611D02*
X150556D01*
X153556D02*
X156619D01*
X160883D02*
X168998D01*
X177014D02*
X181057D01*
X125144Y145819D02*
X133728D01*
X136881D02*
X139971D01*
X143661D02*
X150459D01*
X153534D02*
X156580D01*
X160913D02*
X168960D01*
X177088D02*
X181112D01*
X125107Y145912D02*
X133638D01*
X136843D02*
X139933D01*
X143717D02*
X150362D01*
X153526D02*
X156536D01*
X160949D02*
X168922D01*
X177163D02*
X181167D01*
X125069Y146006D02*
X133539D01*
X136806D02*
X139895D01*
X143776D02*
X150265D01*
X153520D02*
X156492D01*
X160988D02*
X168885D01*
X177237D02*
X181221D01*
X125031Y146100D02*
X133438D01*
X136767D02*
X139857D01*
X143837D02*
X150162D01*
X153519D02*
X156447D01*
X161035D02*
X168846D01*
X177311D02*
X181274D01*
X124993Y146193D02*
X133337D01*
X136730D02*
X139819D01*
X143913D02*
X150048D01*
X153526D02*
X156398D01*
X161081D02*
X168809D01*
X177385D02*
X181327D01*
X124955Y146287D02*
X133236D01*
X136691D02*
X139781D01*
X143989D02*
X149934D01*
X153532D02*
X156344D01*
X161144D02*
X168771D01*
X174744D02*
X185346D01*
X124917Y146381D02*
X128054D01*
X128137D02*
X133119D01*
X136654D02*
X139743D01*
X144077D02*
X149820D01*
X153567D02*
X156289D01*
X161206D02*
X168733D01*
X174069D02*
X185670D01*
X124879Y146474D02*
X128016D01*
X128225D02*
X132994D01*
X136616D02*
X139704D01*
X144177D02*
X149694D01*
X153604D02*
X156226D01*
X161284D02*
X168695D01*
X173604D02*
X185837D01*
X124841Y146568D02*
X127978D01*
X128313D02*
X132869D01*
X136578D02*
X139666D01*
X144282D02*
X149556D01*
X153658D02*
X156145D01*
X161363D02*
X168657D01*
X173309D02*
X185967D01*
X124803Y146662D02*
X127939D01*
X128420D02*
X132737D01*
X136540D02*
X139628D01*
X144407D02*
X149418D01*
X153716D02*
X156063D01*
X161465D02*
X168619D01*
X173046D02*
X186076D01*
X124765Y146756D02*
X127901D01*
X128528D02*
X132577D01*
X136502D02*
X139590D01*
X144539D02*
X149258D01*
X153788D02*
X155965D01*
X161570D02*
X165432D01*
X165546D02*
X168581D01*
X172796D02*
X186134D01*
X124727Y146849D02*
X127863D01*
X128654D02*
X132417D01*
X136464D02*
X139552D01*
X144692D02*
X149064D01*
X153866D02*
X155864D01*
X161682D02*
X165237D01*
X165508D02*
X168543D01*
X172618D02*
X186192D01*
X124689Y146943D02*
X127825D01*
X128787D02*
X132243D01*
X136426D02*
X139514D01*
X144856D02*
X148870D01*
X153987D02*
X155722D01*
X161825D02*
X165059D01*
X165470D02*
X168505D01*
X172451D02*
X186225D01*
X124651Y147037D02*
X127786D01*
X128954D02*
X132049D01*
X136388D02*
X139476D01*
X145034D02*
X148632D01*
X154137D02*
X155546D01*
X161995D02*
X164847D01*
X165432D02*
X168467D01*
X172315D02*
X186256D01*
X124613Y147130D02*
X127748D01*
X129141D02*
X131839D01*
X136350D02*
X139438D01*
X145282D02*
X148390D01*
X154335D02*
X155305D01*
X162188D02*
X164601D01*
X165394D02*
X168430D01*
X172181D02*
X186278D01*
X124575Y147224D02*
X127710D01*
X129396D02*
X131516D01*
X136312D02*
X139400D01*
X145598D02*
X148060D01*
X162431D02*
X164361D01*
X165356D02*
X168392D01*
X172053D02*
X186289D01*
X124537Y147318D02*
X127671D01*
X129725D02*
X131089D01*
X136274D02*
X139361D01*
X145985D02*
X147581D01*
X162804D02*
X163985D01*
X165319D02*
X168354D01*
X171930D02*
X186299D01*
X124499Y147411D02*
X127633D01*
X136236D02*
X139323D01*
X165280D02*
X168316D01*
X171813D02*
X186301D01*
X124461Y147505D02*
X127595D01*
X136198D02*
X139285D01*
X165243D02*
X168278D01*
X171708D02*
X186294D01*
X124423Y147599D02*
X127556D01*
X136160D02*
X139247D01*
X165204D02*
X168240D01*
X171614D02*
X186286D01*
X124385Y147693D02*
X127518D01*
X136122D02*
X139209D01*
X165167D02*
X168202D01*
X171523D02*
X186279D01*
X124347Y147786D02*
X127480D01*
X136084D02*
X139171D01*
X153422D02*
X154524D01*
X165128D02*
X168164D01*
X171437D02*
X186268D01*
X124309Y147880D02*
X127442D01*
X136046D02*
X139133D01*
X153198D02*
X154758D01*
X165091D02*
X168126D01*
X171352D02*
X186242D01*
X124271Y147974D02*
X127403D01*
X136008D02*
X139095D01*
X153049D02*
X154907D01*
X165052D02*
X168088D01*
X171273D02*
X186209D01*
X124233Y148067D02*
X127365D01*
X135970D02*
X139057D01*
X152909D02*
X155047D01*
X165015D02*
X168050D01*
X171195D02*
X186167D01*
X124195Y148161D02*
X127327D01*
X135933D02*
X139019D01*
X152813D02*
X155143D01*
X164976D02*
X168012D01*
X171128D02*
X186124D01*
X124157Y148255D02*
X127288D01*
X135894D02*
X138981D01*
X152726D02*
X155230D01*
X164939D02*
X167974D01*
X171061D02*
X186081D01*
X124119Y148348D02*
X127250D01*
X135857D02*
X138943D01*
X152647D02*
X155308D01*
X164900D02*
X167937D01*
X171003D02*
X186015D01*
X124081Y148442D02*
X127212D01*
X135819D02*
X138904D01*
X152574D02*
X155381D01*
X164863D02*
X167898D01*
X170946D02*
X185939D01*
X124043Y148536D02*
X127174D01*
X135781D02*
X138866D01*
X152510D02*
X155437D01*
X164824D02*
X167861D01*
X170895D02*
X185856D01*
X124005Y148630D02*
X127135D01*
X135743D02*
X138828D01*
X152456D02*
X155489D01*
X164787D02*
X167823D01*
X170851D02*
X185751D01*
X123967Y148723D02*
X127097D01*
X135705D02*
X138790D01*
X152414D02*
X155541D01*
X164748D02*
X167785D01*
X170807D02*
X185607D01*
X123929Y148817D02*
X127059D01*
X135667D02*
X138752D01*
X152376D02*
X155571D01*
X164711D02*
X167747D01*
X170766D02*
X185449D01*
X123891Y148911D02*
X127020D01*
X135629D02*
X138714D01*
X152343D02*
X155599D01*
X164672D02*
X167709D01*
X170725D02*
X185247D01*
X123853Y149004D02*
X126982D01*
X135591D02*
X138676D01*
X152326D02*
X155624D01*
X164635D02*
X167671D01*
X170685D02*
X185013D01*
X123815Y149098D02*
X126944D01*
X135553D02*
X138638D01*
X152309D02*
X155643D01*
X164596D02*
X167633D01*
X170650D02*
X184376D01*
X123777Y149192D02*
X126906D01*
X135515D02*
X138600D01*
X152293D02*
X155651D01*
X164559D02*
X167595D01*
X170615D02*
X174946D01*
X178852D02*
X181956D01*
X123739Y149285D02*
X126867D01*
X135477D02*
X138561D01*
X152286D02*
X155660D01*
X164520D02*
X167557D01*
X170585D02*
X174538D01*
X178841D02*
X181941D01*
X123701Y149379D02*
X126829D01*
X135439D02*
X138523D01*
X152286D02*
X155668D01*
X164483D02*
X167519D01*
X170557D02*
X174285D01*
X178830D02*
X181926D01*
X123663Y149473D02*
X126791D01*
X135401D02*
X138485D01*
X152286D02*
X155663D01*
X164444D02*
X167481D01*
X170530D02*
X174076D01*
X178807D02*
X181911D01*
X123625Y149567D02*
X126752D01*
X135363D02*
X138447D01*
X152287D02*
X155654D01*
X164407D02*
X167444D01*
X170512D02*
X173937D01*
X178783D02*
X181896D01*
X123587Y149660D02*
X126714D01*
X135325D02*
X138409D01*
X152304D02*
X155645D01*
X164369D02*
X167406D01*
X170497D02*
X173830D01*
X178754D02*
X181882D01*
X123549Y149754D02*
X126676D01*
X135287D02*
X138371D01*
X152321D02*
X155632D01*
X164331D02*
X167368D01*
X170481D02*
X173745D01*
X178713D02*
X181863D01*
X123511Y149848D02*
X126637D01*
X135250D02*
X138333D01*
X152340D02*
X155604D01*
X164293D02*
X167330D01*
X170466D02*
X173669D01*
X178672D02*
X181840D01*
X123473Y149941D02*
X126599D01*
X135211D02*
X138295D01*
X152369D02*
X155576D01*
X164255D02*
X167292D01*
X170450D02*
X173607D01*
X178624D02*
X181817D01*
X123435Y150035D02*
X126561D01*
X135174D02*
X138257D01*
X152407D02*
X155548D01*
X164217D02*
X167254D01*
X170434D02*
X173570D01*
X178574D02*
X181794D01*
X123397Y150129D02*
X126522D01*
X135135D02*
X138219D01*
X152444D02*
X155502D01*
X164179D02*
X167216D01*
X170424D02*
X173530D01*
X178520D02*
X181772D01*
X123359Y150222D02*
X126484D01*
X135098D02*
X138180D01*
X152489D02*
X155454D01*
X164141D02*
X167178D01*
X170413D02*
X173493D01*
X178458D02*
X181749D01*
X123321Y150316D02*
X126446D01*
X135060D02*
X138143D01*
X152552D02*
X155402D01*
X164103D02*
X167140D01*
X170402D02*
X173484D01*
X178396D02*
X181720D01*
X123283Y150410D02*
X126407D01*
X135022D02*
X138104D01*
X152623D02*
X155333D01*
X164065D02*
X167102D01*
X170402D02*
X173476D01*
X178313D02*
X181686D01*
X123245Y150504D02*
X126369D01*
X134984D02*
X138066D01*
X152699D02*
X155257D01*
X164027D02*
X167064D01*
X170402D02*
X173467D01*
X178226D02*
X181651D01*
X123207Y150597D02*
X126331D01*
X134946D02*
X138028D01*
X152781D02*
X155174D01*
X163989D02*
X167026D01*
X170402D02*
X173463D01*
X178135D02*
X181616D01*
X123169Y150691D02*
X126293D01*
X134908D02*
X137990D01*
X152889D02*
X155067D01*
X163951D02*
X166989D01*
X170405D02*
X173464D01*
X178042D02*
X181581D01*
X123131Y150785D02*
X126254D01*
X134870D02*
X137952D01*
X153007D02*
X154948D01*
X163913D02*
X166951D01*
X170408D02*
X173485D01*
X177944D02*
X181546D01*
X123093Y150878D02*
X126216D01*
X134832D02*
X137914D01*
X153163D02*
X154793D01*
X163875D02*
X166913D01*
X170412D02*
X173514D01*
X177830D02*
X181504D01*
X123055Y150972D02*
X126178D01*
X134794D02*
X137876D01*
X153361D02*
X154595D01*
X163837D02*
X166875D01*
X170415D02*
X173550D01*
X177716D02*
X181458D01*
X123017Y151066D02*
X126139D01*
X134756D02*
X137837D01*
X153748D02*
X154208D01*
X163799D02*
X166837D01*
X170420D02*
X173593D01*
X177578D02*
X181413D01*
X122979Y151159D02*
X126101D01*
X134718D02*
X137800D01*
X163761D02*
X166799D01*
X170433D02*
X173660D01*
X177437D02*
X181367D01*
X122941Y151253D02*
X126063D01*
X134680D02*
X137761D01*
X163723D02*
X166761D01*
X170447D02*
X173727D01*
X177284D02*
X181322D01*
X122903Y151347D02*
X126024D01*
X134642D02*
X137723D01*
X163685D02*
X166723D01*
X170461D02*
X173828D01*
X177124D02*
X181272D01*
X122865Y151441D02*
X125986D01*
X134604D02*
X137685D01*
X163647D02*
X166685D01*
X170475D02*
X173950D01*
X176926D02*
X181214D01*
X122827Y151534D02*
X125948D01*
X134567D02*
X137647D01*
X163609D02*
X166647D01*
X170496D02*
X174128D01*
X176712D02*
X181155D01*
X122789Y151628D02*
X125909D01*
X134528D02*
X137609D01*
X163571D02*
X166609D01*
X170522D02*
X174344D01*
X176434D02*
X181096D01*
X122751Y151722D02*
X125871D01*
X134491D02*
X137571D01*
X163533D02*
X166571D01*
X170547D02*
X174647D01*
X176059D02*
X181038D01*
X122713Y151815D02*
X125833D01*
X134452D02*
X137533D01*
X163495D02*
X166533D01*
X170572D02*
X180979D01*
X122675Y151909D02*
X125794D01*
X134415D02*
X137494D01*
X163457D02*
X166496D01*
X170601D02*
X180907D01*
X122637Y152003D02*
X125756D01*
X134377D02*
X137457D01*
X163419D02*
X166457D01*
X170635D02*
X180835D01*
X122599Y152096D02*
X125718D01*
X134339D02*
X137419D01*
X163381D02*
X166420D01*
X170668D02*
X180763D01*
X122561Y152190D02*
X125680D01*
X134301D02*
X137380D01*
X163343D02*
X166382D01*
X170702D02*
X180691D01*
X122523Y152284D02*
X125641D01*
X134261D02*
X137342D01*
X163305D02*
X166344D01*
X170741D02*
X180617D01*
X122484Y152378D02*
X125603D01*
X134221D02*
X137304D01*
X163267D02*
X166306D01*
X170789D02*
X180530D01*
X122444Y152471D02*
X125565D01*
X134181D02*
X137266D01*
X163232D02*
X166268D01*
X170838D02*
X180443D01*
X122404Y152565D02*
X125526D01*
X134143D02*
X137228D01*
X163197D02*
X166230D01*
X170887D02*
X180356D01*
X122364Y152659D02*
X125488D01*
X134112D02*
X137190D01*
X163162D02*
X166192D01*
X170942D02*
X180269D01*
X122331Y152752D02*
X125450D01*
X134081D02*
X137152D01*
X163127D02*
X166154D01*
X171001D02*
X180171D01*
X122300Y152846D02*
X125411D01*
X134052D02*
X137113D01*
X163094D02*
X166117D01*
X171061D02*
X180063D01*
X122272Y152940D02*
X125373D01*
X134023D02*
X137073D01*
X163061D02*
X166078D01*
X171120D02*
X179955D01*
X122247Y153033D02*
X125334D01*
X134005D02*
X137033D01*
X163028D02*
X166040D01*
X171203D02*
X179846D01*
X122222Y153127D02*
X125294D01*
X133991D02*
X136993D01*
X163004D02*
X165998D01*
X171287D02*
X179733D01*
X122207Y153221D02*
X125255D01*
X133981D02*
X136953D01*
X162981D02*
X165957D01*
X171372D02*
X179604D01*
X122193Y153315D02*
X125215D01*
X133973D02*
X136913D01*
X162959D02*
X165916D01*
X171462D02*
X179475D01*
X122184Y153408D02*
X125171D01*
X133973D02*
X136872D01*
X162953D02*
X165872D01*
X171556D02*
X179346D01*
X122176Y153502D02*
X125119D01*
X133979D02*
X136825D01*
X162947D02*
X165817D01*
X171649D02*
X179209D01*
X122178Y153596D02*
X125066D01*
X133986D02*
X136762D01*
X162947D02*
X165761D01*
X171754D02*
X179058D01*
X122185Y153689D02*
X125013D01*
X134022D02*
X136700D01*
X162954D02*
X165706D01*
X171868D02*
X178906D01*
X122197Y153783D02*
X124951D01*
X134058D02*
X136632D01*
X162967D02*
X165643D01*
X171983D02*
X178754D01*
X122230Y153877D02*
X124882D01*
X134107D02*
X136557D01*
X163000D02*
X165574D01*
X172123D02*
X178571D01*
X122264Y153970D02*
X124813D01*
X134157D02*
X136483D01*
X163033D02*
X165505D01*
X172284D02*
X178383D01*
X122313Y154064D02*
X124730D01*
X134229D02*
X136384D01*
X163083D02*
X165428D01*
X172450D02*
X178196D01*
X122363Y154158D02*
X124630D01*
X134307D02*
X136283D01*
X163133D02*
X165340D01*
X172630D02*
X177946D01*
X122448Y154252D02*
X124531D01*
X134430D02*
X136139D01*
X163211D02*
X165252D01*
X172818D02*
X177692D01*
X122543Y154345D02*
X124406D01*
X134578D02*
X135960D01*
X163298D02*
X165135D01*
X173062D02*
X177388D01*
X122654Y154439D02*
X124282D01*
X134768D02*
X135715D01*
X163417D02*
X165010D01*
X173330D02*
X177056D01*
X122802Y154533D02*
X124105D01*
X163567D02*
X164823D01*
X173617D02*
X176653D01*
X123043Y154626D02*
X123834D01*
X163791D02*
X164552D01*
X174218D02*
X176025D01*
X229058Y179956D02*
X230426D01*
X230750*
X231072Y179971*
X231349Y180033*
X231580Y180125*
X231780Y180248*
X231934Y180417*
X232026Y180617*
X232103Y180848*
X232118Y181125*
X232103Y181294*
X232087Y181478*
X232041Y181632*
X231980Y181802*
X231903Y181940*
X231811Y182094*
X231688Y182232*
X231565Y182355*
X231411Y182478*
X231257Y182570*
X231103Y182663*
X230934Y182739*
X230765Y182786*
X230580Y182832*
X230396Y182847*
X230196Y182863*
X229873*
X224921*
X224337Y182847*
X223798Y182801*
X223275Y182709*
X222798Y182601*
X222353Y182447*
X221937Y182263*
X221568Y182063*
X221230Y181802*
X220922Y181524*
X220661Y181232*
X220430Y180894*
X220246Y180525*
X220107Y180141*
X220000Y179725*
X219938Y179279*
X219923Y178802*
X219938Y178387*
X219984Y177987*
X220061Y177603*
X220169Y177219*
X220307Y176834*
X220476Y176480*
X220676Y176127*
X220907Y175788*
X221153Y175465*
X221430Y175173*
X221722Y174896*
X222045Y174635*
X222383Y174420*
X222737Y174220*
X223122Y174035*
X223521Y173881*
X223244Y173743*
X222998Y173589*
X222768Y173420*
X222552Y173235*
X222337Y173051*
X222168Y172851*
X221999Y172635*
X221845Y172405*
X221722Y172159*
X221599Y171913*
X221507Y171651*
X221430Y171374*
X221369Y171082*
X221322Y170790*
X221307Y170483*
X221291Y170144*
X221307Y169729*
X221353Y169314*
X221415Y168883*
X221522Y168468*
X221645Y168053*
X221814Y167653*
X221999Y167237*
X222214Y166838*
X222445Y166438*
X222706Y166054*
X222983Y165700*
X223275Y165361*
X223598Y165054*
X223921Y164761*
X224275Y164485*
X224644Y164223*
X224906Y164070*
X225182Y163916*
X225474Y163777*
X225782Y163654*
X226120Y163531*
X226459Y163424*
X226813Y163331*
X227197Y163239*
X227581Y163162*
X227997Y163101*
X228412Y163039*
X228858Y162993*
X229319Y162962*
X229781Y162931*
X230273Y162916*
X230780*
X232564*
X232718Y162578*
X232918Y162117*
X233118Y161701*
X233302Y161317*
X233472Y160963*
X233641Y160640*
X233794Y160363*
X233933Y160117*
X234056Y159902*
X234317Y159517*
X234609Y159133*
X234948Y158779*
X235317Y158410*
X235824Y157980*
X236363Y157595*
X236917Y157272*
X237485Y157011*
X238070Y156811*
X238685Y156672*
X239300Y156580*
X239946Y156549*
X240469Y156565*
X240961Y156626*
X241438Y156734*
X241899Y156872*
X242330Y157041*
X242730Y157257*
X243114Y157518*
X243468Y157810*
X243806Y158148*
X244083Y158487*
X244314Y158871*
X244514Y159256*
X244667Y159671*
X244775Y160102*
X244852Y160563*
X244867Y161040*
X244852Y161363*
X244837Y161655*
X244775Y161963*
X244714Y162255*
X244637Y162547*
X244529Y162824*
X244406Y163101*
X244268Y163378*
X243944Y163885*
X243560Y164331*
X243130Y164731*
X242653Y165054*
X242299Y165238*
X241930Y165392*
X241530Y165515*
X241084Y165623*
X240623Y165715*
X240131Y165776*
X239608Y165807*
X239054Y165823*
X234794*
X229058Y179956*
X227505Y175389D02*
X226782Y175404D01*
X226367*
X225982Y175450*
X225613Y175511*
X225290Y175588*
X224967Y175711*
X224690Y175850*
X224429Y176004*
X224198Y176188*
X223983Y176419*
X223783Y176665*
X223598Y176942*
X223429Y177265*
X223291Y177587*
X223198Y177895*
X223137Y178187*
X223122Y178480*
X223137Y178726*
X223183Y178941*
X223244Y179141*
X223337Y179326*
X223460Y179479*
X223614Y179618*
X223798Y179725*
X223998Y179818*
X224106Y179848*
X224229Y179879*
X224367Y179894*
X224536Y179925*
X224736Y179941*
X224952*
X225198Y179956*
X225459*
X225644*
X227505Y175389*
X231380Y165823D02*
X230396D01*
X229765Y165838*
X229165Y165884*
X228612Y165946*
X228104Y166054*
X227628Y166176*
X227197Y166330*
X226797Y166515*
X226443Y166730*
X226028Y167038*
X225659Y167407*
X225321Y167822*
X225028Y168299*
X224906Y168545*
X224798Y168791*
X224706Y169052*
X224629Y169298*
X224567Y169544*
X224521Y169806*
X224506Y170052*
X224490Y170313*
X224506Y170590*
X224536Y170867*
X224583Y171113*
X224675Y171328*
X224767Y171528*
X224890Y171698*
X225028Y171867*
X225198Y171990*
X225398Y172113*
X225628Y172205*
X225890Y172297*
X226182Y172359*
X226505Y172405*
X226859Y172451*
X227243Y172467*
X227674Y172482*
X228689*
X231380Y165823*
X235978Y162916D02*
X239146D01*
X239439*
X239700Y162885*
X239961Y162855*
X240192Y162808*
X240407Y162747*
X240592Y162670*
X240776Y162593*
X240930Y162485*
X241069Y162378*
X241192Y162239*
X241300Y162101*
X241376Y161947*
X241453Y161778*
X241499Y161609*
X241515Y161409*
X241530Y161209*
X241515Y161040*
X241499Y160871*
X241453Y160717*
X241407Y160563*
X241330Y160425*
X241238Y160286*
X241130Y160163*
X241007Y160040*
X240746Y159825*
X240438Y159687*
X240115Y159594*
X239746Y159563*
X239485Y159579*
X239208Y159625*
X238931Y159687*
X238670Y159779*
X238408Y159902*
X238147Y160056*
X237901Y160240*
X237655Y160456*
X237409Y160686*
X237163Y160932*
X236947Y161209*
X236732Y161517*
X236532Y161824*
X236332Y162163*
X236148Y162531*
X235978Y162916*
X211633Y168898D02*
X210280D01*
X209926Y168883*
X209619Y168837*
X209357Y168745*
X209142Y168622*
X208973Y168483*
X208850Y168299*
X208788Y168068*
X208757Y167822*
X208773Y167637*
X208788Y167468*
X208835Y167315*
X208896Y167161*
X208973Y167022*
X209065Y166884*
X209173Y166761*
X209311Y166653*
X209604Y166469*
X209957Y166346*
X210357Y166269*
X210819Y166238*
X212372*
X212618Y166253*
X212848Y166284*
X213064Y166346*
X213248Y166438*
X213417Y166561*
X213571Y166699*
X213694Y166869*
X213802Y167053*
X214017Y166869*
X214248Y166699*
X214479Y166561*
X214694Y166438*
X214909Y166346*
X215124Y166284*
X215340Y166253*
X215555Y166238*
X216955*
X217278Y166253*
X217585Y166300*
X217877Y166376*
X218170Y166469*
X218431Y166607*
X218677Y166776*
X218908Y166976*
X219107Y167191*
X219307Y167437*
X219477Y167714*
X219615Y167991*
X219738Y168299*
X219815Y168622*
X219892Y168960*
X219923Y169314*
X219938Y169698*
X219907Y170267*
X219830Y170836*
X219707Y171374*
X219538Y171913*
X219307Y172420*
X219031Y172928*
X218708Y173404*
X218323Y173881*
X217908Y174312*
X217493Y174681*
X217047Y175004*
X216601Y175265*
X216139Y175465*
X215663Y175604*
X215170Y175696*
X214678Y175727*
X214294Y175711*
X213940Y175665*
X213617Y175573*
X213325Y175450*
X213048Y175296*
X212802Y175111*
X212587Y174896*
X212402Y174650*
X212233Y174850*
X212064Y175050*
X211880Y175204*
X211695Y175327*
X211480Y175435*
X211265Y175496*
X211034Y175542*
X210803Y175557*
X210542Y175542*
X210311Y175465*
X210096Y175357*
X209896Y175219*
X209742Y175035*
X209634Y174835*
X209557Y174619*
X209542Y174373*
X209557Y174189*
X209588Y174004*
X209650Y173789*
X209742Y173558*
X209865Y173235*
X211633Y168898*
X216047Y168837D02*
X215740D01*
X215509Y168852*
X215278Y168883*
X215094Y168944*
X214909Y169037*
X214756Y169160*
X214617Y169298*
X214509Y169467*
X214417Y169652*
X213556Y171759*
X213479Y171959*
X213433Y172143*
X213402Y172297*
X213387Y172451*
X213402Y172605*
X213463Y172759*
X213571Y172897*
X213709Y173020*
X213879Y173128*
X214063Y173205*
X214263Y173251*
X214479Y173266*
X214709Y173251*
X214924Y173205*
X215140Y173112*
X215370Y173005*
X215586Y172866*
X215801Y172682*
X216001Y172467*
X216217Y172236*
X216416Y171974*
X216585Y171713*
X216739Y171452*
X216847Y171174*
X216939Y170913*
X217016Y170636*
X217047Y170359*
X217062Y170083*
X217047Y169791*
X217001Y169544*
X216924Y169329*
X216801Y169144*
X216662Y169006*
X216493Y168914*
X216293Y168852*
X216047Y168837*
X205251Y172881D02*
X205667Y171867D01*
X205805Y171544*
X205959Y171267*
X206128Y171036*
X206312Y170836*
X206497Y170682*
X206697Y170575*
X206897Y170513*
X207128Y170498*
X207389Y170513*
X207620Y170575*
X207850Y170682*
X208035Y170821*
X208204Y171006*
X208312Y171190*
X208373Y171405*
X208404Y171636*
X208389Y171805*
X208343Y172020*
X208250Y172282*
X208143Y172589*
X206758Y175988*
X206620Y176280*
X206481Y176526*
X206328Y176742*
X206159Y176911*
X205974Y177049*
X205774Y177142*
X205559Y177203*
X205343Y177219*
X205128Y177203*
X204944Y177157*
X204759Y177095*
X204621Y177003*
X204482Y176880*
X204375Y176742*
X204298Y176572*
X204236Y176373*
X204144Y175988*
X204098Y175865*
X204052Y175757*
X203990Y175681*
X203913Y175635*
X203821Y175604*
X203667Y175573*
X203452Y175557*
X203191*
X200345*
X199976Y175542*
X199653Y175481*
X199376Y175404*
X199146Y175281*
X198977Y175111*
X198838Y174927*
X198777Y174696*
X198746Y174435*
Y174250*
X198777Y174066*
X198823Y173912*
X198869Y173758*
X198946Y173620*
X199038Y173481*
X199130Y173374*
X199254Y173266*
X199392Y173174*
X199530Y173097*
X199700Y173035*
X199884Y172974*
X200084Y172928*
X200299Y172912*
X200530Y172881*
X200776*
X200914Y172759*
X201360Y172313*
X201745Y171882*
X202083Y171498*
X202360Y171128*
X202560Y170775*
X202714Y170467*
X202806Y170175*
X202837Y169898*
X202821Y169667*
X202760Y169467*
X202683Y169298*
X202560Y169144*
X202406Y169037*
X202206Y168960*
X201991Y168914*
X201730Y168898*
X200192*
X199822Y168883*
X199515Y168837*
X199238Y168745*
X199023Y168622*
X198854Y168483*
X198731Y168299*
X198669Y168068*
X198638Y167822*
X198654Y167637*
X198669Y167468*
X198715Y167299*
X198777Y167145*
X198854Y167007*
X198946Y166884*
X199054Y166761*
X199176Y166653*
X199484Y166469*
X199838Y166346*
X200238Y166269*
X200699Y166238*
X203083*
X203391Y166253*
X203667Y166284*
X203944Y166361*
X204190Y166453*
X204436Y166561*
X204667Y166715*
X204882Y166884*
X205082Y167084*
X205251Y167299*
X205420Y167530*
X205543Y167776*
X205651Y168037*
X205743Y168314*
X205805Y168622*
X205835Y168929*
X205851Y169252*
X205820Y169683*
X205743Y170098*
X205620Y170498*
X205436Y170913*
X205328Y171113*
X205190Y171328*
X205036Y171559*
X204867Y171805*
X204667Y172051*
X204467Y172313*
X204236Y172589*
X203975Y172881*
X205251*
X190933Y165900D02*
X189472D01*
X189103Y165884*
X188796Y165838*
X188519Y165746*
X188304Y165623*
X188135Y165484*
X188011Y165300*
X187950Y165069*
X187919Y164823*
X187935Y164639*
X187950Y164469*
X187996Y164316*
X188057Y164162*
X188135Y164023*
X188227Y163885*
X188334Y163777*
X188473Y163654*
X188765Y163470*
X189119Y163347*
X189534Y163270*
X189980Y163239*
X192010*
X192517Y161978*
X192763Y161440*
X193009Y160917*
X193271Y160440*
X193563Y159994*
X193856Y159579*
X194163Y159210*
X194470Y158871*
X194809Y158564*
X195163Y158302*
X195517Y158072*
X195885Y157872*
X196270Y157703*
X196670Y157580*
X197085Y157503*
X197516Y157441*
X197961Y157426*
X198423Y157441*
X198854Y157503*
X199269Y157595*
X199669Y157718*
X200053Y157872*
X200422Y158072*
X200761Y158318*
X201083Y158579*
X201376Y158887*
X201622Y159194*
X201837Y159533*
X202022Y159887*
X202160Y160256*
X202252Y160640*
X202314Y161055*
X202329Y161486*
X202314Y161763*
X202283Y162039*
X202237Y162316*
X202176Y162578*
X202098Y162839*
X201991Y163101*
X201868Y163347*
X201730Y163608*
X201391Y164070*
X201007Y164500*
X200576Y164869*
X200084Y165177*
X199746Y165346*
X199376Y165500*
X198992Y165623*
X198561Y165715*
X198115Y165792*
X197639Y165854*
X197146Y165884*
X196608Y165900*
X193994*
X193609Y166853*
X193994Y166653*
X194363Y166499*
X194717Y166422*
X195070Y166392*
X195378Y166407*
X195685Y166453*
X195978Y166515*
X196239Y166622*
X196501Y166745*
X196747Y166899*
X196977Y167084*
X197177Y167284*
X197377Y167530*
X197531Y167776*
X197669Y168037*
X197793Y168330*
X197885Y168637*
X197946Y168944*
X197977Y169283*
X197993Y169637*
X197961Y170221*
X197885Y170775*
X197762Y171328*
X197577Y171867*
X197346Y172374*
X197070Y172881*
X196731Y173374*
X196347Y173850*
X195931Y174296*
X195501Y174666*
X195055Y174989*
X194594Y175250*
X194132Y175465*
X193656Y175604*
X193163Y175696*
X192656Y175727*
X192287Y175711*
X191948Y175665*
X191641Y175588*
X191349Y175481*
X191072Y175342*
X190826Y175173*
X190611Y174973*
X190411Y174758*
X190257Y174973*
X190087Y175173*
X189919Y175342*
X189719Y175481*
X189503Y175588*
X189288Y175665*
X189042Y175711*
X188796Y175727*
X188550Y175711*
X188319Y175635*
X188119Y175542*
X187919Y175389*
X187765Y175219*
X187658Y175019*
X187581Y174804*
X187565Y174589*
X187581Y174373*
X187643Y174096*
X187750Y173789*
X187889Y173420*
X190933Y165900*
X192517Y169560D02*
X191533Y171959D01*
X191472Y172113*
X191441Y172236*
X191410Y172467*
X191426Y172635*
X191487Y172789*
X191595Y172943*
X191733Y173066*
X191902Y173174*
X192102Y173251*
X192318Y173297*
X192548Y173312*
X192763Y173297*
X192979Y173251*
X193194Y173174*
X193409Y173066*
X193609Y172912*
X193825Y172743*
X194024Y172543*
X194224Y172313*
X194409Y172051*
X194578Y171805*
X194717Y171544*
X194824Y171282*
X194917Y171006*
X194978Y170744*
X195009Y170467*
X195024Y170190*
X195009Y169883*
X194947Y169637*
X194855Y169406*
X194732Y169237*
X194563Y169098*
X194348Y168991*
X194102Y168929*
X193825Y168914*
X193579Y168929*
X193363Y168960*
X193163Y169006*
X192979Y169068*
X192825Y169160*
X192702Y169268*
X192594Y169406*
X192517Y169560*
X195070Y163239D02*
X197177D01*
X197454Y163224*
X197700Y163208*
X197931Y163178*
X198161Y163116*
X198361Y163054*
X198546Y162978*
X198715Y162885*
X198884Y162778*
X199023Y162655*
X199146Y162516*
X199254Y162378*
X199330Y162224*
X199392Y162055*
X199438Y161870*
X199469Y161686*
X199484Y161470*
X199454Y161194*
X199376Y160948*
X199254Y160717*
X199069Y160502*
X198854Y160332*
X198607Y160194*
X198346Y160133*
X198054Y160102*
X197839Y160117*
X197623Y160148*
X197423Y160194*
X197223Y160271*
X197039Y160379*
X196854Y160486*
X196685Y160625*
X196516Y160794*
X196347Y160978*
X196178Y161209*
X196009Y161455*
X195824Y161747*
X195639Y162070*
X195455Y162424*
X195270Y162824*
X195070Y163239*
X184213Y172881D02*
X184628Y171867D01*
X184767Y171544*
X184920Y171267*
X185089Y171036*
X185274Y170836*
X185459Y170682*
X185658Y170575*
X185858Y170513*
X186089Y170498*
X186350Y170513*
X186581Y170575*
X186812Y170682*
X186996Y170821*
X187166Y171006*
X187273Y171190*
X187335Y171405*
X187365Y171636*
X187350Y171805*
X187304Y172020*
X187212Y172282*
X187104Y172589*
X185720Y175988*
X185581Y176280*
X185443Y176526*
X185289Y176742*
X185120Y176911*
X184936Y177049*
X184736Y177142*
X184520Y177203*
X184305Y177219*
X184090Y177203*
X183905Y177157*
X183721Y177095*
X183582Y177003*
X183444Y176880*
X183336Y176742*
X183259Y176572*
X183198Y176373*
X183106Y175988*
X183059Y175865*
X183013Y175757*
X182952Y175681*
X182875Y175635*
X182783Y175604*
X182629Y175573*
X182413Y175557*
X182152*
X179307*
X178938Y175542*
X178615Y175481*
X178338Y175404*
X178107Y175281*
X177938Y175111*
X177800Y174927*
X177738Y174696*
X177707Y174435*
Y174250*
X177738Y174066*
X177784Y173912*
X177831Y173758*
X177907Y173620*
X178000Y173481*
X178092Y173374*
X178215Y173266*
X178354Y173174*
X178492Y173097*
X178661Y173035*
X178846Y172974*
X179046Y172928*
X179261Y172912*
X179491Y172881*
X179737*
X179876Y172759*
X180322Y172313*
X180706Y171882*
X181045Y171498*
X181322Y171128*
X181522Y170775*
X181675Y170467*
X181768Y170175*
X181798Y169898*
X181783Y169667*
X181721Y169467*
X181644Y169298*
X181522Y169144*
X181368Y169037*
X181168Y168960*
X180952Y168914*
X180691Y168898*
X179153*
X178784Y168883*
X178476Y168837*
X178200Y168745*
X177984Y168622*
X177815Y168483*
X177692Y168299*
X177631Y168068*
X177600Y167822*
X177615Y167637*
X177631Y167468*
X177677Y167299*
X177738Y167145*
X177815Y167007*
X177907Y166884*
X178015Y166761*
X178138Y166653*
X178446Y166469*
X178800Y166346*
X179199Y166269*
X179661Y166238*
X182044*
X182352Y166253*
X182629Y166284*
X182906Y166361*
X183152Y166453*
X183398Y166561*
X183628Y166715*
X183844Y166884*
X184044Y167084*
X184213Y167299*
X184382Y167530*
X184505Y167776*
X184613Y168037*
X184705Y168314*
X184767Y168622*
X184797Y168929*
X184813Y169252*
X184782Y169683*
X184705Y170098*
X184582Y170498*
X184397Y170913*
X184290Y171113*
X184151Y171328*
X183998Y171559*
X183828Y171805*
X183628Y172051*
X183428Y172313*
X183198Y172589*
X182936Y172881*
X184213*
X168757Y168898D02*
X167404D01*
X167050Y168883*
X166743Y168837*
X166481Y168745*
X166266Y168622*
X166096Y168483*
X165973Y168299*
X165912Y168068*
X165881Y167822*
X165896Y167637*
X165912Y167468*
X165958Y167315*
X166020Y167161*
X166096Y167022*
X166189Y166884*
X166296Y166761*
X166435Y166653*
X166727Y166469*
X167081Y166346*
X167481Y166269*
X167942Y166238*
X169495*
X169741Y166253*
X169972Y166284*
X170187Y166346*
X170372Y166438*
X170541Y166561*
X170695Y166699*
X170818Y166869*
X170926Y167053*
X171141Y166869*
X171371Y166699*
X171602Y166561*
X171817Y166438*
X172033Y166346*
X172248Y166284*
X172463Y166253*
X172679Y166238*
X174078*
X174401Y166253*
X174709Y166300*
X175001Y166376*
X175293Y166469*
X175554Y166607*
X175800Y166776*
X176031Y166976*
X176231Y167191*
X176431Y167437*
X176600Y167714*
X176739Y167991*
X176862Y168299*
X176939Y168622*
X177015Y168960*
X177046Y169314*
X177062Y169698*
X177031Y170267*
X176954Y170836*
X176831Y171374*
X176662Y171913*
X176431Y172420*
X176154Y172928*
X175831Y173404*
X175447Y173881*
X175031Y174312*
X174617Y174681*
X174170Y175004*
X173724Y175265*
X173263Y175465*
X172786Y175604*
X172294Y175696*
X171802Y175727*
X171418Y175711*
X171064Y175665*
X170741Y175573*
X170449Y175450*
X170172Y175296*
X169926Y175111*
X169711Y174896*
X169526Y174650*
X169357Y174850*
X169188Y175050*
X169003Y175204*
X168819Y175327*
X168603Y175435*
X168388Y175496*
X168157Y175542*
X167926Y175557*
X167665Y175542*
X167434Y175465*
X167219Y175357*
X167019Y175219*
X166865Y175035*
X166758Y174835*
X166681Y174619*
X166665Y174373*
X166681Y174189*
X166711Y174004*
X166773Y173789*
X166865Y173558*
X166989Y173235*
X168757Y168898*
X173171Y168837D02*
X172863D01*
X172633Y168852*
X172402Y168883*
X172217Y168944*
X172033Y169037*
X171879Y169160*
X171741Y169298*
X171633Y169467*
X171541Y169652*
X170680Y171759*
X170602Y171959*
X170556Y172143*
X170526Y172297*
X170510Y172451*
X170526Y172605*
X170587Y172759*
X170695Y172897*
X170833Y173020*
X171002Y173128*
X171187Y173205*
X171387Y173251*
X171602Y173266*
X171833Y173251*
X172048Y173205*
X172263Y173112*
X172494Y173005*
X172709Y172866*
X172925Y172682*
X173125Y172467*
X173340Y172236*
X173540Y171974*
X173709Y171713*
X173863Y171452*
X173970Y171174*
X174063Y170913*
X174140Y170636*
X174170Y170359*
X174186Y170083*
X174170Y169791*
X174124Y169544*
X174047Y169329*
X173924Y169144*
X173786Y169006*
X173617Y168914*
X173417Y168852*
X173171Y168837*
X162774Y167191D02*
X165943Y159363D01*
X166127Y158994*
X166312Y158656*
X166527Y158379*
X166758Y158148*
X167004Y157980*
X167281Y157856*
X167557Y157780*
X167865Y157749*
X168096Y157764*
X168326Y157826*
X168526Y157933*
X168696Y158072*
X168849Y158241*
X168957Y158426*
X169034Y158625*
X169049Y158841*
X169034Y159056*
X168972Y159317*
X168880Y159625*
X168742Y159994*
X162882Y174466*
X162759Y174712*
X162606Y174943*
X162452Y175127*
X162267Y175281*
X162052Y175404*
X161837Y175481*
X161591Y175542*
X161314Y175557*
X161129Y175542*
X160960Y175511*
X160791Y175450*
X160637Y175373*
X160483Y175265*
X160345Y175143*
X160222Y175004*
X160099Y174819*
X159883Y175035*
X159653Y175219*
X159407Y175373*
X159161Y175496*
X158884Y175604*
X158607Y175665*
X158315Y175711*
X158022Y175727*
X157700Y175711*
X157407Y175665*
X157131Y175588*
X156854Y175481*
X156607Y175342*
X156377Y175173*
X156146Y174989*
X155946Y174758*
X155762Y174512*
X155608Y174235*
X155470Y173943*
X155362Y173635*
X155270Y173312*
X155208Y172959*
X155178Y172589*
X155162Y172205*
X155193Y171467*
X155285Y170775*
X155424Y170113*
X155623Y169483*
X155885Y168898*
X156208Y168330*
X156592Y167807*
X157023Y167315*
X157330Y167038*
X157638Y166792*
X157961Y166607*
X158284Y166469*
X158453Y166407*
X158638Y166361*
X158837Y166330*
X159053Y166300*
X159283Y166269*
X159545Y166253*
X159806Y166238*
X160083*
X160391*
X160668Y166253*
X160914Y166269*
X161144Y166284*
X161344Y166300*
X161513Y166330*
X161667Y166361*
X161806Y166407*
X162036Y166515*
X162282Y166684*
X162528Y166915*
X162774Y167191*
X161775Y169667D02*
X161621Y169421D01*
X161467Y169237*
X161329Y169083*
X161191Y168975*
X161037Y168914*
X160837Y168852*
X160591Y168837*
X160314Y168822*
X160114Y168837*
X159914Y168868*
X159730Y168914*
X159545Y168975*
X159391Y169068*
X159237Y169191*
X159099Y169314*
X158961Y169467*
X158730Y169791*
X158530Y170129*
X158361Y170452*
X158222Y170790*
X158115Y171128*
X158038Y171467*
X157992Y171805*
X157976Y172143*
X157992Y172420*
X158053Y172666*
X158130Y172866*
X158253Y173035*
X158407Y173158*
X158607Y173251*
X158837Y173312*
X159099Y173328*
X159391Y173312*
X159668Y173235*
X159930Y173128*
X160160Y172974*
X160360Y172774*
X160560Y172528*
X160729Y172236*
X160868Y171897*
X160929Y171759*
X160960Y171636*
X161775Y169667*
X148672Y175035D02*
X148349Y175189D01*
X148057Y175342*
X147765Y175450*
X147503Y175557*
X147242Y175635*
X146996Y175681*
X146765Y175711*
X146565Y175727*
X146273Y175711*
X145996Y175681*
X145735Y175635*
X145489Y175557*
X145258Y175465*
X145043Y175357*
X144828Y175235*
X144643Y175081*
X144458Y174912*
X144304Y174727*
X144181Y174543*
X144074Y174327*
X143997Y174127*
X143935Y173896*
X143905Y173666*
X143889Y173420*
X143905Y173097*
X143966Y172774*
X144058Y172436*
X144181Y172082*
X145458Y168898*
X144058*
X143705Y168883*
X143382Y168837*
X143120Y168745*
X142905Y168622*
X142736Y168468*
X142613Y168283*
X142551Y168068*
X142520Y167807*
X142536Y167637*
X142551Y167453*
X142597Y167299*
X142659Y167145*
X142736Y167007*
X142828Y166884*
X142936Y166761*
X143059Y166653*
X143367Y166469*
X143720Y166346*
X144120Y166269*
X144581Y166238*
X147026*
X147411Y166269*
X147749Y166346*
X148057Y166484*
X148349Y166684*
X148472Y166792*
X148580Y166915*
X148672Y167038*
X148733Y167176*
X148795Y167315*
X148841Y167453*
X148857Y167607*
X148872Y167776*
X148857Y168007*
X148795Y168268*
X148718Y168560*
X148595Y168883*
X147472Y171636*
X147380Y171882*
X147304Y172097*
X147272Y172282*
X147257Y172436*
X147272Y172589*
X147319Y172743*
X147380Y172851*
X147488Y172959*
X147611Y173035*
X147780Y173081*
X147965Y173112*
X148180Y173128*
X148334Y173112*
X148487Y173097*
X148641Y173051*
X148780Y172989*
X148918Y172912*
X149057Y172835*
X149195Y172728*
X149333Y172589*
X149456Y172451*
X149580Y172297*
X149702Y172128*
X149826Y171928*
X149948Y171728*
X150056Y171498*
X150164Y171267*
X150272Y171006*
X151640Y167668*
X151809Y167284*
X152009Y166961*
X152209Y166684*
X152440Y166469*
X152686Y166300*
X152963Y166161*
X153255Y166100*
X153563Y166069*
X153793Y166084*
X154024Y166146*
X154224Y166238*
X154408Y166376*
X154562Y166546*
X154670Y166730*
X154747Y166930*
X154762Y167145*
X154747Y167330*
X154716Y167530*
X154654Y167730*
X154578Y167960*
X154439Y168283*
X149149Y181356*
X148980Y181740*
X148780Y182078*
X148565Y182370*
X148334Y182617*
X148088Y182801*
X147826Y182924*
X147550Y183001*
X147257Y183032*
X147011Y183017*
X146796Y182939*
X146596Y182847*
X146396Y182693*
X146242Y182524*
X146135Y182324*
X146058Y182109*
X146042Y181894*
X146058Y181663*
X146119Y181402*
X146227Y181094*
X146365Y180725*
X148672Y175035*
X238880Y156643D02*
X241036D01*
X238398Y156737D02*
X241447D01*
X238012Y156830D02*
X241760D01*
X237739Y156924D02*
X242031D01*
X237470Y157018D02*
X242270D01*
X237266Y157111D02*
X242460D01*
X237062Y157205D02*
X242634D01*
X236870Y157299D02*
X242791D01*
X236710Y157393D02*
X242930D01*
X197201Y157486D02*
X198737D01*
X236549D02*
X243067D01*
X196670Y157580D02*
X199202D01*
X236389D02*
X243189D01*
X196365Y157674D02*
X199524D01*
X236253D02*
X243302D01*
X167680Y157767D02*
X168107D01*
X196123D02*
X199792D01*
X236122D02*
X243416D01*
X167270Y157861D02*
X168392D01*
X195909D02*
X200026D01*
X235990D02*
X243519D01*
X167059Y157955D02*
X168552D01*
X195732D02*
X200206D01*
X235859D02*
X243612D01*
X166904Y158048D02*
X168667D01*
X195559D02*
X200379D01*
X235743D02*
X243706D01*
X166767Y158142D02*
X168759D01*
X195408D02*
X200519D01*
X235633D02*
X243800D01*
X166670Y158236D02*
X168844D01*
X195265D02*
X200648D01*
X235522D02*
X243878D01*
X166577Y158330D02*
X168901D01*
X195126D02*
X200775D01*
X235412D02*
X243954D01*
X166493Y158423D02*
X168956D01*
X194999D02*
X200891D01*
X235304D02*
X244031D01*
X166420Y158517D02*
X168992D01*
X194872D02*
X201007D01*
X235210D02*
X244101D01*
X166347Y158611D02*
X169028D01*
X194757D02*
X201113D01*
X235117D02*
X244157D01*
X166285Y158704D02*
X169039D01*
X194654D02*
X201202D01*
X235023D02*
X244213D01*
X166234Y158798D02*
X169046D01*
X194551D02*
X201291D01*
X234930D02*
X244270D01*
X166183Y158892D02*
X169046D01*
X194452D02*
X201380D01*
X234840D02*
X244324D01*
X166132Y158985D02*
X169039D01*
X194367D02*
X201455D01*
X234750D02*
X244373D01*
X166085Y159079D02*
X169028D01*
X194282D02*
X201530D01*
X234661D02*
X244422D01*
X166038Y159173D02*
X169006D01*
X194196D02*
X201604D01*
X234579D02*
X244470D01*
X165991Y159267D02*
X168984D01*
X194116D02*
X201668D01*
X234508D02*
X244518D01*
X165944Y159360D02*
X168959D01*
X194038D02*
X201727D01*
X234437D02*
X244552D01*
X165906Y159454D02*
X168931D01*
X193959D02*
X201787D01*
X234365D02*
X244587D01*
X165868Y159548D02*
X168903D01*
X193881D02*
X201845D01*
X234297D02*
X244622D01*
X165830Y159641D02*
X168874D01*
X193811D02*
X201894D01*
X234233D02*
X239134D01*
X240280D02*
X244656D01*
X165792Y159735D02*
X168839D01*
X193746D02*
X201943D01*
X234169D02*
X238794D01*
X240546D02*
X244683D01*
X165754Y159829D02*
X168804D01*
X193680D02*
X201991D01*
X234106D02*
X238564D01*
X240750D02*
X244707D01*
X165716Y159922D02*
X168769D01*
X193614D02*
X202035D01*
X234044D02*
X238373D01*
X240864D02*
X244730D01*
X165678Y160016D02*
X168733D01*
X193549D02*
X202070D01*
X233991D02*
X238214D01*
X240978D02*
X244754D01*
X165641Y160110D02*
X168695D01*
X193487D02*
X197938D01*
X198131D02*
X202106D01*
X233937D02*
X238074D01*
X241077D02*
X244776D01*
X165602Y160204D02*
X168657D01*
X193426D02*
X197398D01*
X198624D02*
X202141D01*
X233884D02*
X237950D01*
X241165D02*
X244792D01*
X165565Y160297D02*
X168619D01*
X193365D02*
X197178D01*
X198791D02*
X202170D01*
X233831D02*
X237835D01*
X241245D02*
X244808D01*
X165527Y160391D02*
X168581D01*
X193303D02*
X197018D01*
X198928D02*
X202193D01*
X233779D02*
X237728D01*
X241308D02*
X244823D01*
X165489Y160485D02*
X168543D01*
X193246D02*
X196856D01*
X199047D02*
X202215D01*
X233727D02*
X237624D01*
X241363D02*
X244839D01*
X165451Y160578D02*
X168505D01*
X193195D02*
X196742D01*
X199135D02*
X202237D01*
X233675D02*
X237524D01*
X241412D02*
X244852D01*
X165413Y160672D02*
X168467D01*
X193144D02*
X196638D01*
X199215D02*
X202257D01*
X233624D02*
X237424D01*
X241440D02*
X244856D01*
X165375Y160766D02*
X168429D01*
X193093D02*
X196544D01*
X199280D02*
X202271D01*
X233575D02*
X237329D01*
X241468D02*
X244859D01*
X165337Y160859D02*
X168391D01*
X193041D02*
X196456D01*
X199330D02*
X202285D01*
X233526D02*
X237235D01*
X241496D02*
X244861D01*
X165299Y160953D02*
X168354D01*
X192993D02*
X196370D01*
X199378D02*
X202299D01*
X233477D02*
X237146D01*
X241507D02*
X244865D01*
X165261Y161047D02*
X168315D01*
X192948D02*
X196296D01*
X199407D02*
X202313D01*
X233431D02*
X237074D01*
X241515D02*
X244867D01*
X165223Y161141D02*
X168278D01*
X192904D02*
X196228D01*
X199437D02*
X202317D01*
X233387D02*
X237000D01*
X241524D02*
X244863D01*
X165185Y161234D02*
X168240D01*
X192860D02*
X196160D01*
X199458D02*
X202320D01*
X233342D02*
X236930D01*
X241528D02*
X244858D01*
X165147Y161328D02*
X168202D01*
X192816D02*
X196096D01*
X199469D02*
X202324D01*
X233297D02*
X236864D01*
X241521D02*
X244854D01*
X165109Y161422D02*
X168164D01*
X192772D02*
X196031D01*
X199479D02*
X202327D01*
X233252D02*
X236798D01*
X241514D02*
X244849D01*
X165072Y161515D02*
X168126D01*
X192729D02*
X195970D01*
X199481D02*
X202328D01*
X233207D02*
X236733D01*
X241506D02*
X244844D01*
X165033Y161609D02*
X168088D01*
X192686D02*
X195911D01*
X199474D02*
X202322D01*
X233162D02*
X236672D01*
X241499D02*
X244839D01*
X164996Y161703D02*
X168050D01*
X192643D02*
X195852D01*
X199466D02*
X202317D01*
X233118D02*
X236611D01*
X241474D02*
X244827D01*
X164958Y161796D02*
X168012D01*
X192600D02*
X195796D01*
X199450D02*
X202310D01*
X233072D02*
X236550D01*
X241445D02*
X244808D01*
X164920Y161890D02*
X167974D01*
X192557D02*
X195742D01*
X199433D02*
X202300D01*
X233027D02*
X236493D01*
X241402D02*
X244790D01*
X164882Y161984D02*
X167936D01*
X192515D02*
X195689D01*
X199409D02*
X202289D01*
X232982D02*
X236437D01*
X241358D02*
X244771D01*
X164844Y162078D02*
X167898D01*
X192477D02*
X195635D01*
X199383D02*
X202277D01*
X232937D02*
X236382D01*
X241311D02*
X244751D01*
X164806Y162171D02*
X167860D01*
X192439D02*
X195587D01*
X199350D02*
X202261D01*
X232894D02*
X236328D01*
X241245D02*
X244731D01*
X164768Y162265D02*
X167822D01*
X192402D02*
X195538D01*
X199310D02*
X202246D01*
X232854D02*
X236281D01*
X241169D02*
X244711D01*
X164730Y162359D02*
X167784D01*
X192364D02*
X195489D01*
X199263D02*
X202227D01*
X232813D02*
X236234D01*
X241086D02*
X244686D01*
X164693Y162452D02*
X167746D01*
X192326D02*
X195442D01*
X199195D02*
X202205D01*
X232772D02*
X236187D01*
X240973D02*
X244661D01*
X164654Y162546D02*
X167708D01*
X192289D02*
X195398D01*
X199119D02*
X202183D01*
X232732D02*
X236141D01*
X240844D02*
X244637D01*
X164617Y162640D02*
X167670D01*
X192251D02*
X195355D01*
X199036D02*
X202157D01*
X232690D02*
X236100D01*
X240665D02*
X244600D01*
X164579Y162733D02*
X167633D01*
X192213D02*
X195312D01*
X198934D02*
X202130D01*
X232647D02*
X236059D01*
X240440D02*
X244564D01*
X164541Y162827D02*
X167594D01*
X192176D02*
X195269D01*
X198807D02*
X202102D01*
X232605D02*
X236017D01*
X240098D02*
X244528D01*
X164503Y162921D02*
X167557D01*
X192138D02*
X195224D01*
X198650D02*
X202065D01*
X230121D02*
X244486D01*
X164465Y163015D02*
X167519D01*
X192100D02*
X195178D01*
X198457D02*
X202026D01*
X228648D02*
X244444D01*
X164427Y163108D02*
X167481D01*
X192063D02*
X195133D01*
X198187D02*
X201987D01*
X227946D02*
X244402D01*
X164389Y163202D02*
X167443D01*
X192025D02*
X195088D01*
X197747D02*
X201940D01*
X227382D02*
X244356D01*
X164351Y163296D02*
X167405D01*
X189394D02*
X201893D01*
X226961D02*
X244309D01*
X164313Y163389D02*
X167367D01*
X188996D02*
X201845D01*
X226590D02*
X244260D01*
X164275Y163483D02*
X167329D01*
X188744D02*
X201796D01*
X226272D02*
X244200D01*
X164237Y163577D02*
X167291D01*
X188596D02*
X201746D01*
X225995D02*
X244141D01*
X164199Y163670D02*
X167253D01*
X188455D02*
X201684D01*
X225742D02*
X244081D01*
X164161Y163764D02*
X167215D01*
X188349D02*
X201615D01*
X225507D02*
X244022D01*
X164124Y163858D02*
X167177D01*
X188254D02*
X201546D01*
X225304D02*
X243962D01*
X164085Y163952D02*
X167139D01*
X188182D02*
X201478D01*
X225118D02*
X243887D01*
X164048Y164045D02*
X167102D01*
X188122D02*
X201409D01*
X224949D02*
X243806D01*
X164010Y164139D02*
X167063D01*
X188070D02*
X201329D01*
X224787D02*
X243726D01*
X163972Y164233D02*
X167026D01*
X188029D02*
X201245D01*
X224631D02*
X243645D01*
X163934Y164326D02*
X166988D01*
X187993D02*
X201162D01*
X224498D02*
X243564D01*
X163896Y164420D02*
X166950D01*
X187965D02*
X201078D01*
X224366D02*
X243464D01*
X163858Y164514D02*
X166912D01*
X187946D02*
X200991D01*
X224237D02*
X243363D01*
X163820Y164607D02*
X166874D01*
X187937D02*
X200881D01*
X224118D02*
X243262D01*
X163782Y164701D02*
X166836D01*
X187930D02*
X200772D01*
X223998D02*
X243161D01*
X163744Y164795D02*
X166798D01*
X187922D02*
X200663D01*
X223884D02*
X243035D01*
X163706Y164889D02*
X166760D01*
X187928D02*
X200545D01*
X223781D02*
X242897D01*
X163669Y164982D02*
X166722D01*
X187939D02*
X200395D01*
X223678D02*
X242758D01*
X163631Y165076D02*
X166684D01*
X187952D02*
X200245D01*
X223575D02*
X242611D01*
X163593Y165170D02*
X166646D01*
X187977D02*
X200095D01*
X223477D02*
X242431D01*
X163555Y165263D02*
X166608D01*
X188002D02*
X199911D01*
X223378D02*
X242239D01*
X163517Y165357D02*
X166570D01*
X188050D02*
X199719D01*
X223280D02*
X242014D01*
X163479Y165451D02*
X166532D01*
X188112D02*
X199494D01*
X223198D02*
X241739D01*
X163441Y165544D02*
X166494D01*
X188208D02*
X199237D01*
X223117D02*
X241408D01*
X163403Y165638D02*
X166456D01*
X188330D02*
X198920D01*
X223036D02*
X241007D01*
X163365Y165732D02*
X166419D01*
X188495D02*
X198463D01*
X222958D02*
X240487D01*
X163327Y165826D02*
X166381D01*
X188758D02*
X197856D01*
X222885D02*
X230283D01*
X231379D02*
X234793D01*
X163289Y165919D02*
X166343D01*
X190926D02*
X193986D01*
X222811D02*
X228850D01*
X231341D02*
X234755D01*
X163251Y166013D02*
X166305D01*
X190887D02*
X193948D01*
X222738D02*
X228295D01*
X231303D02*
X234717D01*
X153221Y166107D02*
X153878D01*
X163213D02*
X166267D01*
X190850D02*
X193910D01*
X222670D02*
X227898D01*
X231265D02*
X234679D01*
X152884Y166200D02*
X154143D01*
X163176D02*
X166229D01*
X190812D02*
X193872D01*
X222606D02*
X227560D01*
X231227D02*
X234641D01*
X143987Y166294D02*
X147523D01*
X152697D02*
X154299D01*
X159094D02*
X161273D01*
X163137D02*
X166191D01*
X167348D02*
X170007D01*
X172213D02*
X174672D01*
X179067D02*
X182664D01*
X190774D02*
X193835D01*
X200105D02*
X203703D01*
X210224D02*
X212883D01*
X215090D02*
X217548D01*
X222543D02*
X227298D01*
X231189D02*
X234603D01*
X143599Y166388D02*
X147843D01*
X152557D02*
X154419D01*
X158530D02*
X161748D01*
X163100D02*
X166153D01*
X166959D02*
X170272D01*
X171934D02*
X175037D01*
X178678D02*
X182977D01*
X190736D02*
X193797D01*
X199717D02*
X204016D01*
X209836D02*
X213148D01*
X214811D02*
X217913D01*
X222479D02*
X227072D01*
X231152D02*
X234565D01*
X143345Y166481D02*
X148052D01*
X152426D02*
X154504D01*
X158254D02*
X161965D01*
X163062D02*
X166115D01*
X166707D02*
X170431D01*
X171741D02*
X175317D01*
X178424D02*
X183216D01*
X190698D02*
X193759D01*
X194444D02*
X195820D01*
X199463D02*
X204255D01*
X209583D02*
X213308D01*
X214617D02*
X218194D01*
X222420D02*
X226869D01*
X231114D02*
X234527D01*
X143189Y166575D02*
X148191D01*
X152326D02*
X154580D01*
X158035D02*
X162124D01*
X163024D02*
X166077D01*
X166558D02*
X170557D01*
X171578D02*
X175494D01*
X178268D02*
X183419D01*
X190660D02*
X193721D01*
X194181D02*
X196124D01*
X199306D02*
X204457D01*
X209435D02*
X213433D01*
X214455D02*
X218371D01*
X222366D02*
X226698D01*
X231076D02*
X234489D01*
X143041Y166669D02*
X148327D01*
X152226D02*
X154634D01*
X157853D02*
X162261D01*
X162986D02*
X166039D01*
X166415D02*
X170661D01*
X171422D02*
X175644D01*
X178120D02*
X183560D01*
X190622D02*
X193684D01*
X193963D02*
X196338D01*
X199158D02*
X204598D01*
X209291D02*
X213537D01*
X214299D02*
X218521D01*
X222311D02*
X226544D01*
X231038D02*
X234451D01*
X142934Y166763D02*
X148439D01*
X152152D02*
X154683D01*
X157689D02*
X162366D01*
X162948D02*
X166001D01*
X166295D02*
X170741D01*
X171285D02*
X175780D01*
X178013D02*
X183689D01*
X190584D02*
X193646D01*
X193783D02*
X196528D01*
X199052D02*
X204728D01*
X209171D02*
X213617D01*
X214162D02*
X218657D01*
X222257D02*
X226399D01*
X231000D02*
X234413D01*
X142852Y166856D02*
X148529D01*
X152085D02*
X154719D01*
X157557D02*
X162466D01*
X162910D02*
X165963D01*
X166213D02*
X170809D01*
X171157D02*
X175893D01*
X177931D02*
X183809D01*
X190546D02*
X196678D01*
X198970D02*
X204847D01*
X209089D02*
X213685D01*
X214034D02*
X218770D01*
X222204D02*
X226273D01*
X230962D02*
X234375D01*
X142778Y166950D02*
X148606D01*
X152017D02*
X154748D01*
X157440D02*
X162560D01*
X162872D02*
X165925D01*
X166144D02*
X170865D01*
X171046D02*
X176001D01*
X177858D02*
X183910D01*
X190508D02*
X196810D01*
X198896D02*
X204948D01*
X209021D02*
X213742D01*
X213922D02*
X218878D01*
X222154D02*
X226147D01*
X230924D02*
X234337D01*
X142715Y167044D02*
X148675D01*
X151958D02*
X154755D01*
X157324D02*
X162643D01*
X162834D02*
X165887D01*
X166085D02*
X170920D01*
X170937D02*
X176094D01*
X177795D02*
X184004D01*
X190470D02*
X196927D01*
X198833D02*
X205042D01*
X208961D02*
X213796D01*
X213813D02*
X218970D01*
X222103D02*
X226022D01*
X230887D02*
X234298D01*
X142663Y167137D02*
X148716D01*
X151900D02*
X154762D01*
X157220D02*
X162726D01*
X162796D02*
X165850D01*
X166033D02*
X176181D01*
X177743D02*
X184086D01*
X190432D02*
X197031D01*
X198781D02*
X205124D01*
X208909D02*
X219057D01*
X222053D02*
X225929D01*
X230849D02*
X234261D01*
X142624Y167231D02*
X148758D01*
X151842D02*
X154755D01*
X157116D02*
X165811D01*
X165991D02*
X176263D01*
X177704D02*
X184159D01*
X190394D02*
X197124D01*
X198743D02*
X205198D01*
X208868D02*
X219140D01*
X222002D02*
X225835D01*
X230811D02*
X234222D01*
X142590Y167325D02*
X148799D01*
X151791D02*
X154747D01*
X157014D02*
X165774D01*
X165955D02*
X176340D01*
X177670D02*
X184232D01*
X190356D02*
X197211D01*
X198708D02*
X205270D01*
X208831D02*
X219216D01*
X221960D02*
X225741D01*
X230773D02*
X234185D01*
X142561Y167419D02*
X148830D01*
X151750D02*
X154733D01*
X156932D02*
X165736D01*
X165927D02*
X176416D01*
X177644D02*
X184300D01*
X190319D02*
X197287D01*
X198683D02*
X205339D01*
X208803D02*
X219292D01*
X221919D02*
X225650D01*
X230735D02*
X234146D01*
X142546Y167512D02*
X148847D01*
X151709D02*
X154719D01*
X156850D02*
X165698D01*
X165908D02*
X176477D01*
X177627D02*
X184369D01*
X190281D02*
X197363D01*
X198665D02*
X205407D01*
X208784D02*
X219353D01*
X221877D02*
X225573D01*
X230697D02*
X234108D01*
X142539Y167606D02*
X148857D01*
X151668D02*
X154693D01*
X156768D02*
X165660D01*
X165899D02*
X176534D01*
X177618D02*
X184420D01*
X190243D02*
X197425D01*
X198656D02*
X205458D01*
X208776D02*
X219411D01*
X221835D02*
X225497D01*
X230659D02*
X234070D01*
X142530Y167700D02*
X148865D01*
X151627D02*
X154664D01*
X156686D02*
X165622D01*
X165891D02*
X176591D01*
X177610D02*
X184467D01*
X190205D02*
X197483D01*
X198648D02*
X205505D01*
X208768D02*
X219468D01*
X221794D02*
X225420D01*
X230621D02*
X234032D01*
X142522Y167793D02*
X148871D01*
X151589D02*
X154633D01*
X156604D02*
X165584D01*
X165883D02*
X176640D01*
X177602D02*
X184512D01*
X190167D02*
X197540D01*
X198641D02*
X205550D01*
X208760D02*
X219516D01*
X221755D02*
X225344D01*
X230583D02*
X233994D01*
X142530Y167887D02*
X148865D01*
X151550D02*
X154602D01*
X156533D02*
X165546D01*
X165889D02*
X176687D01*
X177608D02*
X184551D01*
X190129D02*
X197590D01*
X198646D02*
X205589D01*
X208766D02*
X219563D01*
X221715D02*
X225281D01*
X230546D02*
X233956D01*
X142541Y167981D02*
X148858D01*
X151512D02*
X154569D01*
X156464D02*
X165508D01*
X165901D02*
X176733D01*
X177620D02*
X184589D01*
X190091D02*
X197639D01*
X198658D02*
X205628D01*
X208777D02*
X219610D01*
X221676D02*
X225224D01*
X230508D02*
X233918D01*
X142553Y168074D02*
X148841D01*
X151474D02*
X154529D01*
X156395D02*
X165470D01*
X165913D02*
X176772D01*
X177632D02*
X184625D01*
X190053D02*
X197685D01*
X198670D02*
X205663D01*
X208790D02*
X219648D01*
X221639D02*
X225166D01*
X230470D02*
X233880D01*
X142580Y168168D02*
X148819D01*
X151435D02*
X154489D01*
X156326D02*
X165432D01*
X165939D02*
X176809D01*
X177657D02*
X184656D01*
X190015D02*
X197724D01*
X198696D02*
X205695D01*
X208815D02*
X219686D01*
X221611D02*
X225109D01*
X230432D02*
X233842D01*
X142607Y168262D02*
X148797D01*
X151397D02*
X154449D01*
X156257D02*
X165394D01*
X165963D02*
X176847D01*
X177682D02*
X184688D01*
X189977D02*
X197764D01*
X198721D02*
X205726D01*
X208840D02*
X219723D01*
X221583D02*
X225051D01*
X230394D02*
X233804D01*
X142661Y168356D02*
X148772D01*
X151358D02*
X154410D01*
X156193D02*
X165356D01*
X166011D02*
X176875D01*
X177730D02*
X184713D01*
X189939D02*
X197800D01*
X198769D02*
X205752D01*
X208888D02*
X219752D01*
X221556D02*
X225000D01*
X230356D02*
X233766D01*
X142724Y168449D02*
X148747D01*
X151320D02*
X154372D01*
X156140D02*
X165319D01*
X166074D02*
X176898D01*
X177793D02*
X184732D01*
X189901D02*
X197828D01*
X198831D02*
X205770D01*
X208950D02*
X219774D01*
X221528D02*
X224953D01*
X230319D02*
X233728D01*
X142819Y168543D02*
X148723D01*
X151281D02*
X154334D01*
X156087D02*
X165280D01*
X166170D02*
X176920D01*
X177888D02*
X184751D01*
X189863D02*
X197856D01*
X198927D02*
X205789D01*
X209046D02*
X219796D01*
X221503D02*
X224906D01*
X230281D02*
X233690D01*
X142931Y168637D02*
X148689D01*
X151243D02*
X154296D01*
X156033D02*
X165243D01*
X166292D02*
X176942D01*
X178010D02*
X184768D01*
X189825D02*
X197885D01*
X199049D02*
X205806D01*
X209168D02*
X219819D01*
X221478D02*
X224865D01*
X230243D02*
X233652D01*
X143095Y168730D02*
X148654D01*
X151205D02*
X154259D01*
X155980D02*
X165204D01*
X166456D02*
X176963D01*
X178174D02*
X184778D01*
X189787D02*
X197903D01*
X199213D02*
X205816D01*
X209332D02*
X219840D01*
X221454D02*
X224824D01*
X230205D02*
X233614D01*
X143345Y168824D02*
X148618D01*
X151166D02*
X154220D01*
X155927D02*
X160283D01*
X160356D02*
X165167D01*
X166706D02*
X176985D01*
X178437D02*
X184787D01*
X189750D02*
X197922D01*
X199476D02*
X205825D01*
X209582D02*
X219861D01*
X221430D02*
X224786D01*
X230167D02*
X233576D01*
X145450Y168918D02*
X148581D01*
X151128D02*
X154183D01*
X155876D02*
X159718D01*
X161046D02*
X165129D01*
X168749D02*
X172298D01*
X173624D02*
X177006D01*
X180971D02*
X184796D01*
X189711D02*
X193762D01*
X193896D02*
X197941D01*
X202009D02*
X205834D01*
X211626D02*
X215174D01*
X216500D02*
X219883D01*
X221409D02*
X224753D01*
X230129D02*
X233538D01*
X145413Y169011D02*
X148543D01*
X151089D02*
X154145D01*
X155834D02*
X159485D01*
X161237D02*
X165091D01*
X168711D02*
X172084D01*
X173791D02*
X177020D01*
X181302D02*
X184801D01*
X189674D02*
X193148D01*
X194389D02*
X197952D01*
X202340D02*
X205839D01*
X211587D02*
X214960D01*
X216667D02*
X219896D01*
X221396D02*
X224720D01*
X230091D02*
X233500D01*
X145375Y169105D02*
X148505D01*
X151051D02*
X154107D01*
X155792D02*
X159344D01*
X161349D02*
X165053D01*
X168673D02*
X171947D01*
X173885D02*
X177028D01*
X181465D02*
X184806D01*
X189635D02*
X192917D01*
X194571D02*
X197961D01*
X202504D02*
X205844D01*
X211549D02*
X214824D01*
X216761D02*
X219905D01*
X221383D02*
X224689D01*
X230053D02*
X233462D01*
X145337Y169199D02*
X148467D01*
X151013D02*
X154069D01*
X155750D02*
X159228D01*
X161433D02*
X165015D01*
X168635D02*
X171840D01*
X173961D02*
X177036D01*
X181565D02*
X184810D01*
X189598D02*
X192781D01*
X194685D02*
X197969D01*
X202603D02*
X205848D01*
X211511D02*
X214717D01*
X216837D02*
X219913D01*
X221370D02*
X224660D01*
X230015D02*
X233424D01*
X145300Y169293D02*
X148428D01*
X150974D02*
X154031D01*
X155708D02*
X159123D01*
X161514D02*
X164977D01*
X168596D02*
X171746D01*
X174023D02*
X177044D01*
X181640D02*
X184810D01*
X189560D02*
X192683D01*
X194772D02*
X197978D01*
X202678D02*
X205848D01*
X211473D02*
X214623D01*
X216900D02*
X219921D01*
X221356D02*
X224631D01*
X229978D02*
X233386D01*
X145262Y169386D02*
X148390D01*
X150936D02*
X153993D01*
X155667D02*
X159034D01*
X161592D02*
X164939D01*
X168558D02*
X171685D01*
X174068D02*
X177049D01*
X181684D02*
X184803D01*
X189522D02*
X192610D01*
X194841D02*
X197981D01*
X202723D02*
X205841D01*
X211435D02*
X214561D01*
X216944D02*
X219926D01*
X221345D02*
X224607D01*
X229940D02*
X233348D01*
X145225Y169480D02*
X148352D01*
X150897D02*
X153955D01*
X155625D02*
X158952D01*
X161658D02*
X164901D01*
X168520D02*
X171626D01*
X174101D02*
X177053D01*
X181725D02*
X184796D01*
X189484D02*
X192557D01*
X194885D02*
X197986D01*
X202764D02*
X205835D01*
X211396D02*
X214503D01*
X216978D02*
X219930D01*
X221335D02*
X224583D01*
X229902D02*
X233310D01*
X145187Y169574D02*
X148314D01*
X150859D02*
X153917D01*
X155594D02*
X158885D01*
X161716D02*
X164863D01*
X168482D02*
X171580D01*
X174130D02*
X177057D01*
X181754D02*
X184790D01*
X189446D02*
X192512D01*
X194922D02*
X197990D01*
X202793D02*
X205828D01*
X211358D02*
X214456D01*
X217006D02*
X219933D01*
X221324D02*
X224562D01*
X229864D02*
X233272D01*
X145150Y169667D02*
X148275D01*
X150820D02*
X153879D01*
X155565D02*
X158818D01*
X161775D02*
X164825D01*
X168444D02*
X171534D01*
X174147D02*
X177061D01*
X181783D02*
X184783D01*
X189408D02*
X192473D01*
X194955D02*
X197991D01*
X202821D02*
X205821D01*
X211320D02*
X214411D01*
X217024D02*
X219937D01*
X221314D02*
X224546D01*
X229826D02*
X233234D01*
X145112Y169761D02*
X148237D01*
X150782D02*
X153841D01*
X155535D02*
X158751D01*
X161736D02*
X164787D01*
X168406D02*
X171496D01*
X174165D02*
X177058D01*
X181789D02*
X184767D01*
X189370D02*
X192435D01*
X194978D02*
X197986D01*
X202828D02*
X205806D01*
X211282D02*
X214372D01*
X217041D02*
X219935D01*
X221306D02*
X224529D01*
X229788D02*
X233196D01*
X145074Y169855D02*
X148199D01*
X150744D02*
X153804D01*
X155506D02*
X158692D01*
X161697D02*
X164749D01*
X168367D02*
X171458D01*
X174174D02*
X177053D01*
X181796D02*
X184750D01*
X189332D02*
X192396D01*
X195002D02*
X197981D01*
X202834D02*
X205788D01*
X211244D02*
X214334D01*
X217050D02*
X219930D01*
X221302D02*
X224518D01*
X229750D02*
X233157D01*
X145037Y169948D02*
X148161D01*
X150705D02*
X153765D01*
X155476D02*
X158637D01*
X161658D02*
X164711D01*
X168329D02*
X171419D01*
X174179D02*
X177048D01*
X181793D02*
X184733D01*
X189294D02*
X192358D01*
X195012D02*
X197976D01*
X202831D02*
X205771D01*
X211205D02*
X214296D01*
X217055D02*
X219925D01*
X221298D02*
X224512D01*
X229713D02*
X233120D01*
X144999Y170042D02*
X148122D01*
X150667D02*
X153728D01*
X155446D02*
X158581D01*
X161620D02*
X164673D01*
X168291D02*
X171381D01*
X174184D02*
X177043D01*
X181782D02*
X184715D01*
X189256D02*
X192319D01*
X195017D02*
X197971D01*
X202820D02*
X205754D01*
X211167D02*
X214257D01*
X217060D02*
X219920D01*
X221295D02*
X224506D01*
X229675D02*
X233081D01*
X144962Y170136D02*
X148084D01*
X150628D02*
X153690D01*
X155419D02*
X158526D01*
X161581D02*
X164635D01*
X168252D02*
X171343D01*
X174183D02*
X177038D01*
X181772D02*
X184693D01*
X189219D02*
X192281D01*
X195022D02*
X197966D01*
X202810D02*
X205732D01*
X211129D02*
X214219D01*
X217059D02*
X219915D01*
X221292D02*
X224500D01*
X229637D02*
X233044D01*
X144924Y170230D02*
X148046D01*
X150590D02*
X153652D01*
X155399D02*
X158477D01*
X161542D02*
X164598D01*
X168214D02*
X171305D01*
X174178D02*
X177033D01*
X181750D02*
X184665D01*
X189180D02*
X192243D01*
X195022D02*
X197960D01*
X202789D02*
X205703D01*
X211091D02*
X214181D01*
X217054D02*
X219909D01*
X221295D02*
X224495D01*
X229599D02*
X233006D01*
X144887Y170323D02*
X148008D01*
X150552D02*
X153614D01*
X155380D02*
X158428D01*
X161503D02*
X164559D01*
X168176D02*
X171266D01*
X174172D02*
X177023D01*
X181721D02*
X184636D01*
X189143D02*
X192204D01*
X195017D02*
X197947D01*
X202759D02*
X205674D01*
X211052D02*
X214143D01*
X217049D02*
X219900D01*
X221300D02*
X224491D01*
X229561D02*
X232967D01*
X144849Y170417D02*
X147970D01*
X150513D02*
X153576D01*
X155360D02*
X158379D01*
X161465D02*
X164522D01*
X168138D02*
X171228D01*
X174164D02*
X177011D01*
X181691D02*
X184607D01*
X189104D02*
X192166D01*
X195011D02*
X197934D01*
X202730D02*
X205645D01*
X211014D02*
X214104D01*
X217041D02*
X219887D01*
X221304D02*
X224496D01*
X229523D02*
X232930D01*
X144811Y170511D02*
X147931D01*
X150474D02*
X153538D01*
X155341D02*
X158337D01*
X161426D02*
X164484D01*
X168100D02*
X171190D01*
X174154D02*
X176998D01*
X181654D02*
X184576D01*
X185900D02*
X186304D01*
X189067D02*
X192127D01*
X195004D02*
X197921D01*
X202692D02*
X205615D01*
X206938D02*
X207342D01*
X210976D02*
X214066D01*
X217030D02*
X219874D01*
X221308D02*
X224501D01*
X229485D02*
X232891D01*
X144774Y170604D02*
X147893D01*
X150436D02*
X153500D01*
X155321D02*
X158298D01*
X161387D02*
X164446D01*
X168061D02*
X171152D01*
X174143D02*
X176985D01*
X181607D02*
X184535D01*
X185604D02*
X186644D01*
X189029D02*
X192089D01*
X194993D02*
X197908D01*
X202645D02*
X205573D01*
X206642D02*
X207683D01*
X210938D02*
X214028D01*
X217020D02*
X219862D01*
X221313D02*
X224507D01*
X229447D02*
X232854D01*
X144736Y170698D02*
X147855D01*
X150398D02*
X153462D01*
X155301D02*
X158260D01*
X161348D02*
X164408D01*
X168023D02*
X171113D01*
X174122D02*
X176972D01*
X181560D02*
X184493D01*
X185440D02*
X186833D01*
X188991D02*
X192050D01*
X194983D02*
X197895D01*
X202598D02*
X205531D01*
X206478D02*
X207871D01*
X210900D02*
X213989D01*
X216999D02*
X219849D01*
X221317D02*
X224517D01*
X229409D02*
X232815D01*
X144699Y170792D02*
X147817D01*
X150359D02*
X153424D01*
X155283D02*
X158222D01*
X161309D02*
X164370D01*
X167985D02*
X171075D01*
X174096D02*
X176960D01*
X181512D02*
X184451D01*
X185328D02*
X186957D01*
X188953D02*
X192012D01*
X194967D02*
X197881D01*
X202550D02*
X205490D01*
X206366D02*
X207996D01*
X210861D02*
X213951D01*
X216973D02*
X219836D01*
X221322D02*
X224528D01*
X229372D02*
X232777D01*
X144661Y170885D02*
X147778D01*
X150321D02*
X153386D01*
X155270D02*
X158192D01*
X161270D02*
X164332D01*
X167947D02*
X171037D01*
X174070D02*
X176943D01*
X181459D02*
X184409D01*
X185229D02*
X187056D01*
X188915D02*
X191974D01*
X194945D02*
X197860D01*
X202497D02*
X205448D01*
X206267D02*
X208094D01*
X210823D02*
X213913D01*
X216947D02*
X219819D01*
X221337D02*
X224540D01*
X229334D02*
X232739D01*
X144624Y170979D02*
X147740D01*
X150282D02*
X153348D01*
X155258D02*
X158162D01*
X161232D02*
X164294D01*
X167909D02*
X170998D01*
X174039D02*
X176921D01*
X181406D02*
X184362D01*
X185142D02*
X187142D01*
X188877D02*
X191935D01*
X194923D02*
X197839D01*
X202444D02*
X205400D01*
X206181D02*
X208180D01*
X210785D02*
X213875D01*
X216916D02*
X219798D01*
X221352D02*
X224557D01*
X229296D02*
X232701D01*
X144586Y171073D02*
X147702D01*
X150244D02*
X153311D01*
X155245D02*
X158133D01*
X161193D02*
X164256D01*
X167870D02*
X170960D01*
X174006D02*
X176900D01*
X181353D02*
X184311D01*
X185063D02*
X187205D01*
X188839D02*
X191896D01*
X194894D02*
X197819D01*
X202391D02*
X205350D01*
X206101D02*
X208243D01*
X210747D02*
X213836D01*
X216883D02*
X219776D01*
X221367D02*
X224575D01*
X229258D02*
X232663D01*
X144548Y171167D02*
X147664D01*
X150205D02*
X153272D01*
X155233D02*
X158106D01*
X161154D02*
X164218D01*
X167832D02*
X170922D01*
X173973D02*
X176879D01*
X181293D02*
X184255D01*
X184994D02*
X187260D01*
X188801D02*
X191858D01*
X194863D02*
X197798D01*
X202331D02*
X205294D01*
X206032D02*
X208298D01*
X210709D02*
X213798D01*
X216850D02*
X219755D01*
X221386D02*
X224606D01*
X229220D02*
X232625D01*
X144511Y171260D02*
X147626D01*
X150167D02*
X153235D01*
X155220D02*
X158085D01*
X161115D02*
X164180D01*
X167794D02*
X170883D01*
X173937D02*
X176857D01*
X181223D02*
X184195D01*
X184925D02*
X187293D01*
X188763D02*
X191820D01*
X194832D02*
X197777D01*
X202261D02*
X205233D01*
X205963D02*
X208332D01*
X210670D02*
X213760D01*
X216813D02*
X219733D01*
X221406D02*
X224646D01*
X229182D02*
X232587D01*
X144473Y171354D02*
X147587D01*
X150123D02*
X153197D01*
X155208D02*
X158063D01*
X161076D02*
X164142D01*
X167756D02*
X170845D01*
X173901D02*
X176836D01*
X181153D02*
X184134D01*
X184872D02*
X187320D01*
X188725D02*
X191781D01*
X194795D02*
X197753D01*
X202191D02*
X205173D01*
X205910D02*
X208359D01*
X210632D02*
X213721D01*
X216777D02*
X219712D01*
X221426D02*
X224687D01*
X229144D02*
X232549D01*
X144436Y171448D02*
X147549D01*
X150080D02*
X153159D01*
X155196D02*
X158042D01*
X161038D02*
X164104D01*
X167718D02*
X170807D01*
X173865D02*
X176808D01*
X181082D02*
X184072D01*
X184820D02*
X187340D01*
X188687D02*
X191743D01*
X194756D02*
X197721D01*
X202120D02*
X205110D01*
X205858D02*
X208379D01*
X210594D02*
X213683D01*
X216741D02*
X219684D01*
X221450D02*
X224730D01*
X229107D02*
X232511D01*
X144398Y171541D02*
X147511D01*
X150036D02*
X153121D01*
X155190D02*
X158028D01*
X160999D02*
X164067D01*
X167680D02*
X170769D01*
X173810D02*
X176779D01*
X181006D02*
X184009D01*
X184768D02*
X187353D01*
X188649D02*
X191704D01*
X194717D02*
X197689D01*
X202044D02*
X205048D01*
X205806D02*
X208391D01*
X210556D02*
X213645D01*
X216687D02*
X219655D01*
X221476D02*
X224776D01*
X229069D02*
X232473D01*
X144361Y171635D02*
X147473D01*
X149992D02*
X153083D01*
X155186D02*
X158015D01*
X160960D02*
X164028D01*
X167641D02*
X170730D01*
X173755D02*
X176749D01*
X180924D02*
X183945D01*
X184727D02*
X187365D01*
X188611D02*
X191666D01*
X194668D02*
X197657D01*
X201962D02*
X204984D01*
X205766D02*
X208404D01*
X210518D02*
X213607D01*
X216631D02*
X219626D01*
X221502D02*
X224844D01*
X229031D02*
X232435D01*
X144323Y171729D02*
X147438D01*
X149948D02*
X153045D01*
X155182D02*
X158002D01*
X160937D02*
X163991D01*
X167603D02*
X170692D01*
X173699D02*
X176720D01*
X180841D02*
X183881D01*
X184687D02*
X187357D01*
X188573D02*
X191628D01*
X194619D02*
X197624D01*
X201880D02*
X204919D01*
X205726D02*
X208396D01*
X210480D02*
X213568D01*
X216575D02*
X219596D01*
X221534D02*
X224916D01*
X228993D02*
X232397D01*
X144285Y171822D02*
X147403D01*
X149891D02*
X153007D01*
X155178D02*
X157991D01*
X160901D02*
X163952D01*
X167565D02*
X170655D01*
X173638D02*
X176690D01*
X180759D02*
X183814D01*
X184647D02*
X187346D01*
X188535D02*
X191589D01*
X194567D02*
X197592D01*
X201797D02*
X204853D01*
X205685D02*
X208385D01*
X210441D02*
X213531D01*
X216515D02*
X219567D01*
X221567D02*
X224992D01*
X228955D02*
X232359D01*
X144248Y171916D02*
X147368D01*
X149833D02*
X152969D01*
X155174D02*
X157987D01*
X160860D02*
X163915D01*
X167526D02*
X170619D01*
X173578D02*
X176660D01*
X180676D02*
X183738D01*
X184607D02*
X187326D01*
X188498D02*
X191551D01*
X194502D02*
X197555D01*
X201714D02*
X204777D01*
X205646D02*
X208365D01*
X210403D02*
X213496D01*
X216454D02*
X219537D01*
X221601D02*
X225096D01*
X228917D02*
X232321D01*
X144210Y172010D02*
X147335D01*
X149775D02*
X152931D01*
X155170D02*
X157982D01*
X160822D02*
X163877D01*
X167488D02*
X170590D01*
X173513D02*
X176618D01*
X180592D02*
X183662D01*
X184569D02*
X187306D01*
X188459D02*
X191513D01*
X194437D02*
X197512D01*
X201631D02*
X204700D01*
X205608D02*
X208345D01*
X210365D02*
X213466D01*
X216389D02*
X219494D01*
X221648D02*
X225230D01*
X228880D02*
X232283D01*
X144174Y172104D02*
X147302D01*
X149717D02*
X152893D01*
X155167D02*
X157978D01*
X160783D02*
X163839D01*
X167450D02*
X170566D01*
X173441D02*
X176575D01*
X180509D02*
X183588D01*
X184531D02*
X187275D01*
X188422D02*
X191475D01*
X194372D02*
X197469D01*
X201547D02*
X204627D01*
X205570D02*
X208313D01*
X210326D02*
X213443D01*
X216318D02*
X219452D01*
X221694D02*
X225383D01*
X228841D02*
X232245D01*
X144141Y172197D02*
X147287D01*
X149652D02*
X152856D01*
X155163D02*
X157980D01*
X160745D02*
X163801D01*
X167412D02*
X170546D01*
X173369D02*
X176532D01*
X180425D02*
X183517D01*
X184493D02*
X187242D01*
X188384D02*
X191450D01*
X194306D02*
X197427D01*
X201463D02*
X204555D01*
X205531D02*
X208280D01*
X210288D02*
X213422D01*
X216246D02*
X219409D01*
X221741D02*
X225609D01*
X228804D02*
X232207D01*
X144109Y172291D02*
X147272D01*
X149584D02*
X152817D01*
X155166D02*
X157985D01*
X160697D02*
X163763D01*
X167374D02*
X170527D01*
X173289D02*
X176490D01*
X180341D02*
X183445D01*
X184454D02*
X187209D01*
X188346D02*
X191433D01*
X194240D02*
X197384D01*
X201380D02*
X204483D01*
X205493D02*
X208247D01*
X210250D02*
X213403D01*
X216165D02*
X219366D01*
X221788D02*
X225872D01*
X228766D02*
X232169D01*
X144076Y172385D02*
X147262D01*
X149509D02*
X152780D01*
X155169D02*
X157990D01*
X160643D02*
X163725D01*
X167335D02*
X170517D01*
X173201D02*
X176447D01*
X180250D02*
X183368D01*
X184416D02*
X187176D01*
X188308D02*
X191421D01*
X194162D02*
X197341D01*
X201288D02*
X204407D01*
X205454D02*
X208214D01*
X210212D02*
X213393D01*
X216078D02*
X219324D01*
X221835D02*
X226364D01*
X228728D02*
X232131D01*
X144047Y172478D02*
X147261D01*
X149432D02*
X152742D01*
X155173D02*
X158006D01*
X160589D02*
X163687D01*
X167297D02*
X170513D01*
X173114D02*
X176399D01*
X180156D02*
X183290D01*
X184378D02*
X187143D01*
X188270D02*
X191411D01*
X194081D02*
X197289D01*
X201194D02*
X204329D01*
X205416D02*
X208181D01*
X210174D02*
X213389D01*
X215990D02*
X219276D01*
X221894D02*
X227574D01*
X228690D02*
X232093D01*
X144021Y172572D02*
X147271D01*
X149349D02*
X152704D01*
X155177D02*
X158030D01*
X160524D02*
X163649D01*
X167259D02*
X170522D01*
X173027D02*
X176348D01*
X180063D02*
X183212D01*
X184339D02*
X187110D01*
X188232D02*
X191420D01*
X193996D02*
X197239D01*
X201101D02*
X204251D01*
X205378D02*
X208148D01*
X210135D02*
X213399D01*
X215903D02*
X219225D01*
X221957D02*
X232055D01*
X143996Y172666D02*
X147296D01*
X149257D02*
X152666D01*
X155184D02*
X158053D01*
X160448D02*
X163611D01*
X167221D02*
X170550D01*
X172940D02*
X176297D01*
X179969D02*
X183129D01*
X184301D02*
X187073D01*
X188194D02*
X191438D01*
X193902D02*
X197187D01*
X201007D02*
X204168D01*
X205339D02*
X208111D01*
X210097D02*
X213426D01*
X215816D02*
X219174D01*
X222023D02*
X232017D01*
X143970Y172759D02*
X147328D01*
X149154D02*
X152628D01*
X155192D02*
X158089D01*
X160372D02*
X163573D01*
X167183D02*
X170588D01*
X172834D02*
X176246D01*
X179876D02*
X183045D01*
X184263D02*
X187035D01*
X188156D02*
X191475D01*
X193804D02*
X197136D01*
X200914D02*
X204084D01*
X205301D02*
X208073D01*
X210059D02*
X213464D01*
X215711D02*
X219122D01*
X222096D02*
X231979D01*
X143951Y172853D02*
X147383D01*
X149025D02*
X152590D01*
X155200D02*
X158125D01*
X160281D02*
X163535D01*
X167144D02*
X170661D01*
X172725D02*
X176195D01*
X179769D02*
X182961D01*
X184224D02*
X186996D01*
X188118D02*
X191532D01*
X193685D02*
X197085D01*
X200808D02*
X204000D01*
X205263D02*
X208035D01*
X210021D02*
X213537D01*
X215601D02*
X219072D01*
X222170D02*
X231941D01*
X143933Y172947D02*
X147476D01*
X148856D02*
X152552D01*
X155207D02*
X158189D01*
X160187D02*
X163497D01*
X167106D02*
X170751D01*
X172584D02*
X176141D01*
X178964D02*
X186958D01*
X188080D02*
X191599D01*
X193565D02*
X197025D01*
X200002D02*
X207997D01*
X209983D02*
X213627D01*
X215460D02*
X219018D01*
X222250D02*
X231903D01*
X143915Y173041D02*
X147630D01*
X148665D02*
X152514D01*
X155222D02*
X158259D01*
X160060D02*
X163459D01*
X167068D02*
X170865D01*
X172417D02*
X176078D01*
X178647D02*
X186920D01*
X188042D02*
X191704D01*
X193443D02*
X196960D01*
X199685D02*
X207959D01*
X209944D02*
X213742D01*
X215294D02*
X218954D01*
X222329D02*
X231865D01*
X143903Y173134D02*
X152476D01*
X155239D02*
X158377D01*
X159913D02*
X163421D01*
X167030D02*
X171019D01*
X172212D02*
X176015D01*
X178425D02*
X186882D01*
X188004D02*
X191840D01*
X193274D02*
X196896D01*
X199463D02*
X207920D01*
X209906D02*
X213895D01*
X215089D02*
X218891D01*
X222435D02*
X231827D01*
X143898Y173228D02*
X152438D01*
X155255D02*
X158558D01*
X159686D02*
X163383D01*
X166992D02*
X171288D01*
X171939D02*
X175951D01*
X178272D02*
X186844D01*
X187967D02*
X192043D01*
X193043D02*
X196831D01*
X199311D02*
X207882D01*
X209868D02*
X214164D01*
X214816D02*
X218828D01*
X222544D02*
X231789D01*
X143894Y173322D02*
X152400D01*
X155272D02*
X158998D01*
X159211D02*
X163346D01*
X166956D02*
X175887D01*
X178152D02*
X186806D01*
X187928D02*
X196767D01*
X199190D02*
X207844D01*
X209832D02*
X218764D01*
X222653D02*
X231750D01*
X143890Y173415D02*
X152362D01*
X155299D02*
X163307D01*
X166920D02*
X175822D01*
X178056D02*
X186768D01*
X187891D02*
X196698D01*
X199094D02*
X207806D01*
X209796D02*
X218699D01*
X222762D02*
X231713D01*
X143895Y173509D02*
X152324D01*
X155326D02*
X163270D01*
X166884D02*
X175747D01*
X177981D02*
X186730D01*
X187855D02*
X196622D01*
X199020D02*
X207768D01*
X209761D02*
X218623D01*
X222889D02*
X231674D01*
X143901Y173603D02*
X152287D01*
X155353D02*
X163232D01*
X166848D02*
X175671D01*
X177919D02*
X186691D01*
X187820D02*
X196546D01*
X198957D02*
X207730D01*
X209724D02*
X218548D01*
X223020D02*
X231637D01*
X143909Y173696D02*
X152248D01*
X155383D02*
X163194D01*
X166810D02*
X175596D01*
X177865D02*
X186653D01*
X187785D02*
X196471D01*
X198903D02*
X207692D01*
X209687D02*
X218472D01*
X223170D02*
X231598D01*
X143921Y173790D02*
X152211D01*
X155416D02*
X163156D01*
X166773D02*
X175520D01*
X177821D02*
X186615D01*
X187750D02*
X196395D01*
X198859D02*
X207654D01*
X209650D02*
X218396D01*
X223339D02*
X231560D01*
X143934Y173884D02*
X152173D01*
X155449D02*
X163118D01*
X166746D02*
X175444D01*
X177793D02*
X186577D01*
X187717D02*
X196316D01*
X198831D02*
X207615D01*
X209622D02*
X218320D01*
X223514D02*
X231522D01*
X143957Y173978D02*
X152135D01*
X155486D02*
X163080D01*
X166719D02*
X175354D01*
X177765D02*
X186539D01*
X187684D02*
X196228D01*
X198803D02*
X207577D01*
X209596D02*
X218230D01*
X223271D02*
X231484D01*
X143982Y174071D02*
X152097D01*
X155530D02*
X163042D01*
X166700D02*
X175263D01*
X177737D02*
X186500D01*
X187651D02*
X196141D01*
X198776D02*
X207539D01*
X209577D02*
X218140D01*
X223046D02*
X231446D01*
X144011Y174165D02*
X152059D01*
X155575D02*
X163004D01*
X166685D02*
X175173D01*
X177722D02*
X186463D01*
X187627D02*
X196054D01*
X198760D02*
X207501D01*
X209561D02*
X218050D01*
X222851D02*
X231408D01*
X144047Y174259D02*
X152021D01*
X155621D02*
X162966D01*
X166675D02*
X175083D01*
X177707D02*
X186424D01*
X187606D02*
X195967D01*
X198746D02*
X207463D01*
X209552D02*
X217959D01*
X222668D02*
X231370D01*
X144086Y174352D02*
X151983D01*
X155673D02*
X162928D01*
X166667D02*
X174986D01*
X177707D02*
X186386D01*
X187585D02*
X195866D01*
X198746D02*
X207424D01*
X209544D02*
X217863D01*
X222502D02*
X231332D01*
X144133Y174446D02*
X151945D01*
X155725D02*
X162890D01*
X166670D02*
X174881D01*
X177709D02*
X186348D01*
X187576D02*
X195757D01*
X198747D02*
X207386D01*
X209547D02*
X217757D01*
X222342D02*
X231294D01*
X144180Y174540D02*
X151907D01*
X155783D02*
X162845D01*
X166676D02*
X174775D01*
X177720D02*
X186310D01*
X187569D02*
X195648D01*
X198758D02*
X207348D01*
X209552D02*
X217652D01*
X222194D02*
X231256D01*
X144242Y174633D02*
X151869D01*
X155853D02*
X162798D01*
X166686D02*
X174670D01*
X177731D02*
X186272D01*
X187569D02*
X195539D01*
X198769D02*
X207310D01*
X209563D02*
X217546D01*
X222045D02*
X231218D01*
X144304Y174727D02*
X151831D01*
X155923D02*
X162749D01*
X166719D02*
X169461D01*
X169583D02*
X174553D01*
X177746D02*
X186233D01*
X187575D02*
X195416D01*
X198785D02*
X207272D01*
X209596D02*
X212337D01*
X212460D02*
X217429D01*
X221931D02*
X231180D01*
X144382Y174821D02*
X151794D01*
X156001D02*
X160097D01*
X160099D02*
X162687D01*
X166753D02*
X169381D01*
X169654D02*
X174423D01*
X177772D02*
X186195D01*
X187587D02*
X190366D01*
X190469D02*
X195287D01*
X198810D02*
X207234D01*
X209630D02*
X212258D01*
X212530D02*
X217300D01*
X221815D02*
X231142D01*
X144461Y174915D02*
X151756D01*
X156082D02*
X160004D01*
X160162D02*
X162624D01*
X166801D02*
X169302D01*
X169729D02*
X174294D01*
X177796D02*
X186157D01*
X187620D02*
X190299D01*
X190556D02*
X195157D01*
X198835D02*
X207196D01*
X209677D02*
X212179D01*
X212605D02*
X217170D01*
X221703D02*
X231104D01*
X144564Y175008D02*
X151718D01*
X156171D02*
X159910D01*
X160226D02*
X162550D01*
X166851D02*
X169223D01*
X169823D02*
X174163D01*
X177861D02*
X186119D01*
X187654D02*
X190227D01*
X190648D02*
X195020D01*
X198899D02*
X207157D01*
X209728D02*
X212100D01*
X212699D02*
X217039D01*
X221604D02*
X231066D01*
X144669Y175102D02*
X148531D01*
X148645D02*
X151680D01*
X156288D02*
X159799D01*
X160309D02*
X162472D01*
X166922D02*
X169126D01*
X169917D02*
X174003D01*
X177931D02*
X186081D01*
X187702D02*
X190148D01*
X190749D02*
X194855D01*
X198970D02*
X207119D01*
X209798D02*
X212002D01*
X212793D02*
X216880D01*
X221505D02*
X231028D01*
X144781Y175196D02*
X148336D01*
X148607D02*
X151642D01*
X156407D02*
X159682D01*
X160405D02*
X162369D01*
X167000D02*
X169013D01*
X170038D02*
X173843D01*
X178022D02*
X186043D01*
X187753D02*
X190065D01*
X190858D02*
X194690D01*
X199061D02*
X207081D01*
X209876D02*
X211889D01*
X212915D02*
X216720D01*
X221409D02*
X230990D01*
X144923Y175289D02*
X148157D01*
X148569D02*
X151604D01*
X156535D02*
X159541D01*
X160517D02*
X162252D01*
X167121D02*
X168875D01*
X170163D02*
X173669D01*
X178124D02*
X186005D01*
X187829D02*
X189971D01*
X190995D02*
X194509D01*
X199162D02*
X207043D01*
X209997D02*
X211751D01*
X213039D02*
X216545D01*
X221320D02*
X230952D01*
X145094Y175383D02*
X147946D01*
X148531D02*
X151566D01*
X156680D02*
X159386D01*
X160657D02*
X162088D01*
X167270D02*
X168706D01*
X170328D02*
X173453D01*
X178299D02*
X185967D01*
X187914D02*
X189859D01*
X191154D02*
X194309D01*
X199337D02*
X207005D01*
X210147D02*
X211583D01*
X213205D02*
X216329D01*
X221231D02*
X230914D01*
X145287Y175477D02*
X147700D01*
X148493D02*
X151528D01*
X156846D02*
X159199D01*
X160864D02*
X161848D01*
X167469D02*
X168456D01*
X170513D02*
X173224D01*
X178601D02*
X185928D01*
X188034D02*
X189724D01*
X191341D02*
X194093D01*
X199639D02*
X206967D01*
X210345D02*
X211332D01*
X213389D02*
X216100D01*
X221144D02*
X225821D01*
X227469D02*
X230876D01*
X145530Y175570D02*
X147459D01*
X148455D02*
X151490D01*
X157085D02*
X158969D01*
X170735D02*
X172900D01*
X182596D02*
X185890D01*
X188180D02*
X189539D01*
X191593D02*
X193770D01*
X203634D02*
X206928D01*
X213612D02*
X215777D01*
X221073D02*
X225365D01*
X227431D02*
X230838D01*
X145902Y175664D02*
X147084D01*
X148417D02*
X151452D01*
X157407D02*
X158615D01*
X171064D02*
X172464D01*
X182924D02*
X185852D01*
X188407D02*
X189294D01*
X191948D02*
X193333D01*
X203963D02*
X206890D01*
X213940D02*
X215340D01*
X221002D02*
X225091D01*
X227393D02*
X230800D01*
X148379Y175758D02*
X151414D01*
X183013D02*
X185814D01*
X204052D02*
X206852D01*
X220930D02*
X224874D01*
X227354D02*
X230762D01*
X148341Y175852D02*
X151376D01*
X183054D02*
X185776D01*
X204092D02*
X206814D01*
X220864D02*
X224687D01*
X227316D02*
X230724D01*
X148303Y175945D02*
X151339D01*
X183089D02*
X185737D01*
X204128D02*
X206776D01*
X220800D02*
X224528D01*
X227278D02*
X230686D01*
X148265Y176039D02*
X151300D01*
X183118D02*
X185696D01*
X204156D02*
X206734D01*
X220736D02*
X224385D01*
X227240D02*
X230648D01*
X148227Y176133D02*
X151263D01*
X183140D02*
X185652D01*
X204179D02*
X206690D01*
X220673D02*
X224267D01*
X227202D02*
X230609D01*
X148189Y176226D02*
X151225D01*
X183163D02*
X185607D01*
X204201D02*
X206646D01*
X220620D02*
X224162D01*
X227163D02*
X230572D01*
X148151Y176320D02*
X151187D01*
X183185D02*
X185559D01*
X204224D02*
X206598D01*
X220567D02*
X224075D01*
X227125D02*
X230533D01*
X148113Y176414D02*
X151149D01*
X183210D02*
X185507D01*
X204249D02*
X206545D01*
X220514D02*
X223987D01*
X227087D02*
X230496D01*
X148075Y176507D02*
X151111D01*
X183239D02*
X185454D01*
X204278D02*
X206492D01*
X220463D02*
X223911D01*
X227049D02*
X230457D01*
X148037Y176601D02*
X151073D01*
X183272D02*
X185390D01*
X204311D02*
X206428D01*
X220419D02*
X223835D01*
X227011D02*
X230419D01*
X147999Y176695D02*
X151035D01*
X183315D02*
X185323D01*
X204354D02*
X206361D01*
X220374D02*
X223763D01*
X226972D02*
X230381D01*
X147961Y176789D02*
X150997D01*
X183372D02*
X185243D01*
X204411D02*
X206281D01*
X220329D02*
X223700D01*
X226934D02*
X230343D01*
X147923Y176882D02*
X150959D01*
X183446D02*
X185149D01*
X204485D02*
X206187D01*
X220290D02*
X223638D01*
X226896D02*
X230306D01*
X147885Y176976D02*
X150921D01*
X183552D02*
X185033D01*
X204590D02*
X206072D01*
X220256D02*
X223580D01*
X226858D02*
X230267D01*
X147847Y177070D02*
X150883D01*
X183682D02*
X184892D01*
X204720D02*
X205930D01*
X220222D02*
X223531D01*
X226820D02*
X230229D01*
X147809Y177163D02*
X150845D01*
X183930D02*
X184660D01*
X204969D02*
X205698D01*
X220189D02*
X223482D01*
X226781D02*
X230191D01*
X147771Y177257D02*
X150807D01*
X220158D02*
X223433D01*
X226743D02*
X230153D01*
X147733Y177351D02*
X150770D01*
X220132D02*
X223392D01*
X226705D02*
X230115D01*
X147695Y177444D02*
X150732D01*
X220106D02*
X223352D01*
X226667D02*
X230077D01*
X147657Y177538D02*
X150694D01*
X220079D02*
X223312D01*
X226629D02*
X230039D01*
X147619Y177632D02*
X150656D01*
X220055D02*
X223277D01*
X226591D02*
X230001D01*
X147581Y177726D02*
X150618D01*
X220037D02*
X223249D01*
X226552D02*
X229963D01*
X147543Y177819D02*
X150580D01*
X220018D02*
X223221D01*
X226514D02*
X229925D01*
X147505Y177913D02*
X150542D01*
X219999D02*
X223195D01*
X226476D02*
X229887D01*
X147467Y178007D02*
X150504D01*
X219982D02*
X223175D01*
X226438D02*
X229849D01*
X147429Y178100D02*
X150466D01*
X219971D02*
X223155D01*
X226400D02*
X229811D01*
X147391Y178194D02*
X150428D01*
X219961D02*
X223137D01*
X226361D02*
X229773D01*
X147353Y178288D02*
X150391D01*
X219950D02*
X223132D01*
X226323D02*
X229735D01*
X147315Y178381D02*
X150352D01*
X219939D02*
X223127D01*
X226285D02*
X229697D01*
X147277Y178475D02*
X150315D01*
X219935D02*
X223122D01*
X226247D02*
X229659D01*
X147239Y178569D02*
X150277D01*
X219931D02*
X223127D01*
X226209D02*
X229621D01*
X147201Y178663D02*
X150239D01*
X219928D02*
X223133D01*
X226171D02*
X229583D01*
X147163Y178756D02*
X150201D01*
X219924D02*
X223144D01*
X226133D02*
X229545D01*
X147125Y178850D02*
X150163D01*
X219924D02*
X223164D01*
X226094D02*
X229507D01*
X147087Y178944D02*
X150125D01*
X219928D02*
X223184D01*
X226056D02*
X229469D01*
X147049Y179037D02*
X150087D01*
X219930D02*
X223213D01*
X226018D02*
X229431D01*
X147011Y179131D02*
X150049D01*
X219933D02*
X223241D01*
X225980D02*
X229393D01*
X146974Y179225D02*
X150011D01*
X219937D02*
X223287D01*
X225942D02*
X229355D01*
X146935Y179319D02*
X149973D01*
X219944D02*
X223333D01*
X225904D02*
X229317D01*
X146898Y179412D02*
X149935D01*
X219957D02*
X223406D01*
X225865D02*
X229279D01*
X146859Y179506D02*
X149897D01*
X219969D02*
X223490D01*
X225827D02*
X229241D01*
X146822Y179600D02*
X149859D01*
X219982D02*
X223594D01*
X225789D02*
X229202D01*
X146783Y179693D02*
X149822D01*
X219995D02*
X223743D01*
X225751D02*
X229165D01*
X146746Y179787D02*
X149783D01*
X220016D02*
X223931D01*
X225713D02*
X229126D01*
X146707Y179881D02*
X149746D01*
X220040D02*
X224243D01*
X225674D02*
X229089D01*
X146670Y179974D02*
X149708D01*
X220064D02*
X231087D01*
X146631Y180068D02*
X149670D01*
X220088D02*
X231437D01*
X146594Y180162D02*
X149632D01*
X220115D02*
X231639D01*
X146556Y180256D02*
X149594D01*
X220148D02*
X231787D01*
X146518Y180349D02*
X149556D01*
X220182D02*
X231872D01*
X146480Y180443D02*
X149518D01*
X220216D02*
X231946D01*
X146442Y180537D02*
X149480D01*
X220252D02*
X231989D01*
X146404Y180630D02*
X149442D01*
X220298D02*
X232030D01*
X146365Y180724D02*
X149404D01*
X220345D02*
X232061D01*
X146330Y180818D02*
X149367D01*
X220392D02*
X232093D01*
X146295Y180911D02*
X149329D01*
X220442D02*
X232106D01*
X146260Y181005D02*
X149291D01*
X220506D02*
X232111D01*
X146225Y181099D02*
X149253D01*
X220570D02*
X232117D01*
X146193Y181193D02*
X149215D01*
X220634D02*
X232112D01*
X146159Y181286D02*
X149177D01*
X220709D02*
X232104D01*
X146127Y181380D02*
X149138D01*
X220793D02*
X232096D01*
X146102Y181474D02*
X149097D01*
X220877D02*
X232088D01*
X146080Y181567D02*
X149056D01*
X220970D02*
X232061D01*
X146058Y181661D02*
X149014D01*
X221074D02*
X232031D01*
X146052Y181755D02*
X148971D01*
X221178D02*
X231997D01*
X146045Y181848D02*
X148915D01*
X221291D02*
X231954D01*
X146046Y181942D02*
X148860D01*
X221412D02*
X231901D01*
X146052Y182036D02*
X148805D01*
X221533D02*
X231845D01*
X146065Y182130D02*
X148742D01*
X221691D02*
X231779D01*
X146098Y182223D02*
X148673D01*
X221865D02*
X231696D01*
X146132Y182317D02*
X148604D01*
X222059D02*
X231603D01*
X146181Y182411D02*
X148527D01*
X222270D02*
X231495D01*
X146231Y182504D02*
X148439D01*
X222518D02*
X231367D01*
X146309Y182598D02*
X148351D01*
X222789D02*
X231211D01*
X146396Y182692D02*
X148233D01*
X223200D02*
X231039D01*
X146516Y182785D02*
X148109D01*
X223709D02*
X230767D01*
X146665Y182879D02*
X147922D01*
X146889Y182973D02*
X147650D01*
X236387Y201216D02*
X241309Y189082D01*
X241539Y188513*
X241678Y188236*
X241847Y187990*
X242031Y187790*
X242231Y187621*
X242462Y187498*
X242708Y187406*
X242970Y187344*
X243262Y187329*
X243493*
X243693Y187359*
X243893Y187406*
X244077Y187452*
X244231Y187528*
X244369Y187621*
X244507Y187728*
X244615Y187852*
X244707Y187990*
X244800Y188159*
X244877Y188359*
X244938Y188590*
X245000Y188836*
X245046Y189128*
X245092Y189435*
X245123Y189759*
X245676Y197109*
X248229Y190820*
X248414Y190358*
X248598Y189912*
X248783Y189497*
X248952Y189082*
X249121Y188697*
X249275Y188328*
X249429Y187990*
X249583Y187652*
X249721Y187344*
X249859Y187052*
X249982Y186775*
X250121Y186529*
X250228Y186283*
X250352Y186068*
X250459Y185868*
X250567Y185698*
X250982Y185037*
X251474Y184422*
X252028Y183853*
X252643Y183330*
X253104Y183007*
X253596Y182715*
X254104Y182454*
X254627Y182254*
X255165Y182100*
X255719Y181992*
X256303Y181915*
X256887Y181900*
X257518Y181931*
X258102Y181992*
X258672Y182131*
X259210Y182300*
X259702Y182530*
X260179Y182807*
X260625Y183130*
X261040Y183499*
X261409Y183930*
X261732Y184376*
X262009Y184853*
X262224Y185360*
X262393Y185898*
X262516Y186452*
X262593Y187052*
X262624Y187682*
X262609Y188113*
X262578Y188528*
X262531Y188943*
X262470Y189343*
X262378Y189743*
X262270Y190143*
X262147Y190528*
X261993Y190896*
X261824Y191281*
X261640Y191635*
X261440Y192004*
X261209Y192342*
X260963Y192696*
X260702Y193034*
X260425Y193357*
X260117Y193696*
X259763Y194019*
X259394Y194341*
X259010Y194649*
X258594Y194941*
X258164Y195203*
X257718Y195464*
X257241Y195695*
X256749Y195910*
X256242Y196110*
X255734Y196294*
X255242Y196433*
X254735Y196556*
X254243Y196648*
X253750Y196710*
X253274Y196756*
X252781Y196771*
X252305Y196741*
X251859Y196664*
X251489Y196541*
X251167Y196356*
X251028Y196233*
X250905Y196125*
X250798Y195987*
X250720Y195848*
X250644Y195710*
X250598Y195556*
X250582Y195387*
X250567Y195218*
X250598Y194864*
X250690Y194572*
X250828Y194326*
X251044Y194111*
X251167Y194034*
X251320Y193942*
X251489Y193880*
X251674Y193819*
X251874Y193757*
X252105Y193711*
X252351Y193680*
X252612Y193649*
X253196Y193588*
X253766Y193496*
X254289Y193388*
X254796Y193250*
X255273Y193111*
X255719Y192926*
X256134Y192742*
X256519Y192527*
X256811Y192342*
X257103Y192127*
X257364Y191911*
X257626Y191681*
X257856Y191419*
X258072Y191158*
X258287Y190881*
X258472Y190589*
X258641Y190297*
X258779Y189989*
X258918Y189681*
X259010Y189374*
X259087Y189051*
X259148Y188743*
X259179Y188420*
X259194Y188098*
X259179Y187759*
X259148Y187436*
X259087Y187144*
X259010Y186852*
X258918Y186591*
X258794Y186344*
X258656Y186114*
X258487Y185914*
X258302Y185729*
X258087Y185560*
X257872Y185422*
X257641Y185314*
X257380Y185222*
X257103Y185160*
X256826Y185130*
X256519Y185114*
X256165Y185130*
X255811Y185191*
X255473Y185298*
X255150Y185437*
X254842Y185606*
X254535Y185822*
X254243Y186083*
X253965Y186375*
X253689Y186729*
X253396Y187129*
X253120Y187606*
X252812Y188128*
X252520Y188713*
X252212Y189359*
X251889Y190066*
X251567Y190820*
X246753Y202692*
X246583Y203077*
X246384Y203400*
X246169Y203661*
X245938Y203892*
X245692Y204061*
X245415Y204184*
X245107Y204261*
X244800Y204292*
X244431Y204261*
X244123Y204184*
X243846Y204030*
X243615Y203830*
X243431Y203584*
X243293Y203276*
X243185Y202907*
X243139Y202477*
X242508Y194372*
X239202Y202477*
X239002Y202969*
X238879Y203230*
X238725Y203461*
X238556Y203661*
X238356Y203815*
X238141Y203953*
X237894Y204030*
X237633Y204092*
X237341Y204107*
X236833Y204122*
X234342*
X233942Y204107*
X233604Y204046*
X233312Y203953*
X233066Y203830*
X232881Y203676*
X232758Y203476*
X232681Y203246*
X232650Y202984*
X232666Y202769*
X232681Y202585*
X232727Y202400*
X232804Y202231*
X232881Y202077*
X232989Y201939*
X233112Y201800*
X233250Y201677*
X233573Y201477*
X233957Y201324*
X234404Y201246*
X234911Y201216*
X236387*
X233127Y190158D02*
X231758D01*
X231389Y190143*
X231081Y190097*
X230820Y190005*
X230605Y189881*
X230436Y189728*
X230313Y189543*
X230251Y189328*
X230220Y189067*
X230236Y188897*
X230251Y188713*
X230297Y188559*
X230359Y188405*
X230436Y188267*
X230528Y188144*
X230636Y188020*
X230759Y187913*
X231066Y187728*
X231420Y187606*
X231820Y187528*
X232281Y187498*
X234219*
X234726Y187528*
X235172Y187606*
X235572Y187744*
X235911Y187928*
X236049Y188052*
X236172Y188174*
X236280Y188313*
X236372Y188451*
X236433Y188605*
X236480Y188774*
X236511Y188943*
X236526Y189128*
X236511Y189343*
X236464Y189589*
X236387Y189851*
X236265Y190158*
X234265Y195095*
X234127Y195433*
X233973Y195756*
X233804Y196048*
X233604Y196279*
X233389Y196479*
X233158Y196617*
X232896Y196725*
X232620Y196802*
X232328Y196817*
X232081Y196802*
X231851Y196725*
X231635Y196617*
X231435Y196479*
X231281Y196294*
X231159Y196094*
X231081Y195894*
X231066Y195664*
X231081Y195433*
X231143Y195172*
X231251Y194849*
X231389Y194465*
X233127Y190158*
X231528Y200693D02*
X231189Y200662D01*
X230882Y200570*
X230728Y200493*
X230589Y200416*
X230451Y200308*
X230328Y200201*
X230220Y200078*
X230113Y199939*
X230020Y199801*
X229959Y199647*
X229898Y199493*
X229867Y199339*
X229836Y199170*
Y199001*
Y198832*
X229867Y198663*
X229898Y198494*
X229959Y198340*
X230020Y198202*
X230113Y198063*
X230220Y197925*
X230328Y197802*
X230451Y197679*
X230589Y197586*
X230728Y197494*
X230882Y197433*
X231020Y197371*
X231189Y197340*
X231359Y197309*
X231528*
X231697*
X231866Y197340*
X232020Y197371*
X232174Y197433*
X232328Y197494*
X232466Y197586*
X232604Y197679*
X232727Y197802*
X232835Y197925*
X232943Y198063*
X233019Y198202*
X233096Y198340*
X233143Y198494*
X233189Y198663*
X233204Y198832*
X233219Y199001*
X233204Y199170*
X233189Y199339*
X233143Y199493*
X233096Y199647*
X233019Y199801*
X232943Y199939*
X232835Y200078*
X232727Y200201*
X232604Y200308*
X232466Y200416*
X232328Y200493*
X232174Y200570*
X231866Y200662*
X231528Y200693*
X225299Y194387D02*
X223930Y195956D01*
X223700Y196187*
X223485Y196402*
X223269Y196587*
X223054Y196725*
X222839Y196833*
X222623Y196925*
X222423Y196971*
X222223Y196987*
X221962Y196956*
X221716Y196894*
X221501Y196787*
X221316Y196633*
X221147Y196433*
X221039Y196218*
X220962Y195987*
X220947Y195726*
X220962Y195541*
X221009Y195341*
X221085Y195141*
X221193Y194926*
X221316Y194711*
X221485Y194495*
X221685Y194265*
X221916Y194034*
X223992Y191973*
X222977Y189605*
X222869Y189359*
X222808Y189205*
X222762Y189067*
X222746Y188913*
X222731Y188759*
X222762Y188497*
X222854Y188236*
X223008Y188005*
X223207Y187774*
X223454Y187575*
X223731Y187436*
X224007Y187359*
X224300Y187329*
X224469Y187344*
X224638Y187390*
X224792Y187452*
X224930Y187544*
X225069Y187667*
X225207Y187821*
X225315Y188005*
X225422Y188205*
X226176Y189866*
X227606Y188344*
X227867Y188082*
X228037Y187913*
X228221Y187759*
X228406Y187621*
X228590Y187513*
X228775Y187436*
X228959Y187375*
X229144Y187344*
X229328Y187329*
X229590Y187344*
X229820Y187421*
X230036Y187528*
X230236Y187682*
X230390Y187882*
X230497Y188082*
X230574Y188328*
X230589Y188590*
X230574Y188759*
X230528Y188928*
X230467Y189128*
X230359Y189328*
X230220Y189528*
X230067Y189743*
X229882Y189974*
X229667Y190204*
X227498Y192434*
X228437Y194618*
X228544Y194864*
X228606Y195095*
X228652Y195295*
X228667Y195464*
X228637Y195741*
X228544Y196018*
X228391Y196279*
X228191Y196510*
X227944Y196725*
X227683Y196863*
X227406Y196956*
X227114Y196987*
X226930Y196971*
X226760Y196925*
X226606Y196848*
X226453Y196725*
X226314Y196587*
X226191Y196418*
X226068Y196218*
X225961Y195972*
X225299Y194387*
X217841Y190158D02*
X216472D01*
X216103Y190143*
X215795Y190097*
X215533Y190005*
X215318Y189881*
X215149Y189728*
X215026Y189543*
X214965Y189328*
X214934Y189067*
X214949Y188897*
X214965Y188713*
X215011Y188559*
X215072Y188405*
X215149Y188267*
X215241Y188144*
X215349Y188020*
X215472Y187913*
X215780Y187728*
X216133Y187606*
X216533Y187528*
X216994Y187498*
X218932*
X219440Y187528*
X219886Y187606*
X220286Y187744*
X220624Y187928*
X220763Y188052*
X220885Y188174*
X220993Y188313*
X221085Y188451*
X221147Y188605*
X221193Y188774*
X221224Y188943*
X221239Y189128*
X221224Y189343*
X221178Y189589*
X221101Y189851*
X220978Y190158*
X218978Y195095*
X218840Y195433*
X218686Y195756*
X218517Y196048*
X218317Y196279*
X218102Y196479*
X217871Y196617*
X217610Y196725*
X217333Y196802*
X217041Y196817*
X216794Y196802*
X216564Y196725*
X216349Y196617*
X216149Y196479*
X215995Y196294*
X215872Y196094*
X215795Y195894*
X215780Y195664*
X215795Y195433*
X215857Y195172*
X215964Y194849*
X216103Y194465*
X217841Y190158*
X216241Y200693D02*
X215903Y200662D01*
X215595Y200570*
X215441Y200493*
X215303Y200416*
X215165Y200308*
X215041Y200201*
X214934Y200078*
X214826Y199939*
X214734Y199801*
X214672Y199647*
X214611Y199493*
X214580Y199339*
X214549Y199170*
Y199001*
Y198832*
X214580Y198663*
X214611Y198494*
X214672Y198340*
X214734Y198202*
X214826Y198063*
X214934Y197925*
X215041Y197802*
X215165Y197679*
X215303Y197586*
X215441Y197494*
X215595Y197433*
X215733Y197371*
X215903Y197340*
X216072Y197309*
X216241*
X216410*
X216580Y197340*
X216733Y197371*
X216887Y197433*
X217041Y197494*
X217179Y197586*
X217318Y197679*
X217441Y197802*
X217548Y197925*
X217656Y198063*
X217733Y198202*
X217810Y198340*
X217856Y198494*
X217902Y198663*
X217917Y198832*
X217933Y199001*
X217917Y199170*
X217902Y199339*
X217856Y199493*
X217810Y199647*
X217733Y199801*
X217656Y199939*
X217548Y200078*
X217441Y200201*
X217318Y200308*
X217179Y200416*
X217041Y200493*
X216887Y200570*
X216580Y200662*
X216241Y200693*
X211535Y191066D02*
X211520Y190850D01*
X211458Y190666*
X211350Y190512*
X211197Y190389*
X210997Y190281*
X210766Y190220*
X210489Y190174*
X210166Y190158*
X206552*
X206183Y190143*
X205876Y190097*
X205614Y190005*
X205399Y189881*
X205230Y189728*
X205107Y189543*
X205045Y189328*
X205015Y189067*
X205030Y188897*
X205045Y188713*
X205091Y188559*
X205153Y188405*
X205230Y188267*
X205322Y188144*
X205430Y188020*
X205553Y187913*
X205860Y187728*
X206198Y187606*
X206614Y187528*
X207075Y187498*
X210520*
X210981Y187513*
X211428Y187559*
X211827Y187636*
X212212Y187728*
X212565Y187867*
X212889Y188036*
X213181Y188220*
X213457Y188451*
X213688Y188697*
X213888Y188974*
X214057Y189282*
X214211Y189620*
X214319Y189974*
X214396Y190358*
X214442Y190774*
X214457Y191219*
X214426Y191804*
X214365Y192357*
X214226Y192896*
X214057Y193419*
X213842Y193911*
X213565Y194387*
X213242Y194849*
X212873Y195280*
X212458Y195680*
X212027Y196033*
X211596Y196325*
X211120Y196556*
X210643Y196741*
X210151Y196879*
X209628Y196956*
X209090Y196987*
X208690Y196971*
X208321Y196941*
X207983Y196863*
X207644Y196771*
X207337Y196664*
X207044Y196510*
X206768Y196341*
X206522Y196156*
X206291Y195941*
X206091Y195695*
X205937Y195449*
X205799Y195187*
X205691Y194895*
X205614Y194603*
X205568Y194280*
X205553Y193957*
X205568Y193557*
X205630Y193188*
X205737Y192834*
X205891Y192527*
X206076Y192235*
X206306Y191957*
X206583Y191727*
X206891Y191512*
X207091Y191404*
X207306Y191312*
X207552Y191235*
X207813Y191173*
X208106Y191127*
X208413Y191096*
X208752Y191066*
X209105*
X211535*
X210951Y193280D02*
X209613D01*
X209320Y193296*
X209044Y193311*
X208828Y193357*
X208644Y193419*
X208506Y193496*
X208413Y193603*
X208367Y193711*
X208352Y193849*
X208367Y194003*
X208413Y194126*
X208490Y194249*
X208582Y194326*
X208690Y194403*
X208844Y194449*
X208998Y194480*
X209198Y194495*
X209459Y194480*
X209720Y194418*
X209967Y194326*
X210197Y194188*
X210412Y194019*
X210612Y193819*
X210781Y193557*
X210951Y193280*
X256177Y181932D02*
X257530D01*
X255546Y182026D02*
X258240D01*
X255096Y182119D02*
X258625D01*
X254769Y182213D02*
X258934D01*
X254488Y182307D02*
X259225D01*
X254243Y182400D02*
X259425D01*
X254025Y182494D02*
X259625D01*
X253843Y182588D02*
X259801D01*
X253661Y182681D02*
X259962D01*
X253495Y182775D02*
X260124D01*
X253337Y182869D02*
X260264D01*
X253179Y182963D02*
X260393D01*
X253034Y183056D02*
X260523D01*
X252900Y183150D02*
X260647D01*
X252766Y183244D02*
X260752D01*
X252634Y183337D02*
X260858D01*
X252524Y183431D02*
X260963D01*
X252414Y183525D02*
X261062D01*
X252304Y183619D02*
X261142D01*
X252194Y183712D02*
X261222D01*
X252083Y183806D02*
X261303D01*
X251983Y183900D02*
X261383D01*
X251891Y183993D02*
X261455D01*
X251800Y184087D02*
X261523D01*
X251709Y184181D02*
X261591D01*
X251618Y184274D02*
X261658D01*
X251526Y184368D02*
X261726D01*
X251442Y184462D02*
X261782D01*
X251367Y184556D02*
X261836D01*
X251292Y184649D02*
X261891D01*
X251217Y184743D02*
X261945D01*
X251142Y184837D02*
X261999D01*
X251067Y184930D02*
X262042D01*
X250992Y185024D02*
X262081D01*
X250931Y185118D02*
X256437D01*
X256589D02*
X262121D01*
X250872Y185211D02*
X255746D01*
X257333D02*
X262161D01*
X250814Y185305D02*
X255457D01*
X257617D02*
X262201D01*
X250755Y185399D02*
X255239D01*
X257823D02*
X262236D01*
X250696Y185493D02*
X255049D01*
X257982D02*
X262266D01*
X250637Y185586D02*
X254879D01*
X258120D02*
X262295D01*
X250578Y185680D02*
X254737D01*
X258240D02*
X262324D01*
X250519Y185774D02*
X254603D01*
X258347D02*
X262354D01*
X250459Y185867D02*
X254483D01*
X258441D02*
X262383D01*
X250409Y185961D02*
X254379D01*
X258527D02*
X262407D01*
X250359Y186055D02*
X254274D01*
X258606D02*
X262428D01*
X250305Y186148D02*
X254181D01*
X258677D02*
X262449D01*
X250252Y186242D02*
X254092D01*
X258733D02*
X262470D01*
X250205Y186336D02*
X254003D01*
X258789D02*
X262491D01*
X250164Y186430D02*
X253923D01*
X258837D02*
X262511D01*
X250123Y186523D02*
X253850D01*
X258884D02*
X262525D01*
X250071Y186617D02*
X253776D01*
X258927D02*
X262537D01*
X250019Y186711D02*
X253703D01*
X258960D02*
X262549D01*
X249969Y186804D02*
X253633D01*
X258993D02*
X262561D01*
X249928Y186898D02*
X253565D01*
X259022D02*
X262574D01*
X249886Y186992D02*
X253496D01*
X259046D02*
X262585D01*
X249844Y187085D02*
X253428D01*
X259071D02*
X262595D01*
X249799Y187179D02*
X253367D01*
X259094D02*
X262600D01*
X249755Y187273D02*
X253313D01*
X259114D02*
X262604D01*
X223982Y187367D02*
X224551D01*
X229009D02*
X229657D01*
X242874D02*
X243723D01*
X249711D02*
X253258D01*
X259134D02*
X262609D01*
X223683Y187460D02*
X224805D01*
X228717D02*
X229899D01*
X242562D02*
X244094D01*
X249669D02*
X253204D01*
X259151D02*
X262613D01*
X206476Y187554D02*
X211375D01*
X216400D02*
X219588D01*
X223495D02*
X224941D01*
X228520D02*
X230069D01*
X231687D02*
X234874D01*
X242357D02*
X244269D01*
X249626D02*
X253150D01*
X259159D02*
X262618D01*
X206082Y187648D02*
X211875D01*
X216012D02*
X220008D01*
X223364D02*
X225047D01*
X228370D02*
X230191D01*
X231299D02*
X235294D01*
X242200D02*
X244404D01*
X249584D02*
X253095D01*
X259169D02*
X262622D01*
X205839Y187741D02*
X212245D01*
X215758D02*
X220279D01*
X223248D02*
X225135D01*
X228245D02*
X230281D01*
X231044D02*
X235566D01*
X242089D02*
X244519D01*
X249542D02*
X253040D01*
X259178D02*
X262622D01*
X205683Y187835D02*
X212484D01*
X215602D02*
X220453D01*
X223155D02*
X225215D01*
X228130D02*
X230354D01*
X230889D02*
X235740D01*
X241990D02*
X244600D01*
X249499D02*
X252985D01*
X259183D02*
X262619D01*
X205535Y187929D02*
X212683D01*
X215454D02*
X220624D01*
X223074D02*
X225270D01*
X228021D02*
X230415D01*
X230741D02*
X235911D01*
X241903D02*
X244667D01*
X249457D02*
X252930D01*
X259187D02*
X262615D01*
X205428Y188022D02*
X212862D01*
X215348D02*
X220730D01*
X222996D02*
X225324D01*
X227927D02*
X230465D01*
X230634D02*
X236017D01*
X241824D02*
X244725D01*
X249414D02*
X252874D01*
X259191D02*
X262612D01*
X205346Y188116D02*
X213015D01*
X215265D02*
X220827D01*
X222934D02*
X225374D01*
X227833D02*
X230508D01*
X230552D02*
X236114D01*
X241760D02*
X244776D01*
X249371D02*
X252819D01*
X259194D02*
X262608D01*
X205272Y188210D02*
X213164D01*
X215192D02*
X220913D01*
X222871D02*
X225424D01*
X227740D02*
X230478D01*
X230537D02*
X236200D01*
X241696D02*
X244819D01*
X249329D02*
X252771D01*
X259189D02*
X262602D01*
X205209Y188304D02*
X213280D01*
X215129D02*
X220985D01*
X222830D02*
X225467D01*
X227646D02*
X230415D01*
X230566D02*
X236272D01*
X241644D02*
X244856D01*
X249286D02*
X252724D01*
X259185D02*
X262594D01*
X205157Y188397D02*
X213393D01*
X215076D02*
X221049D01*
X222797D02*
X225509D01*
X227556D02*
X230363D01*
X230578D02*
X236336D01*
X241597D02*
X244887D01*
X249246D02*
X252678D01*
X259180D02*
X262588D01*
X205119Y188491D02*
X213495D01*
X215038D02*
X221101D01*
X222764D02*
X225552D01*
X227468D02*
X230324D01*
X230583D02*
X236388D01*
X241550D02*
X244912D01*
X249207D02*
X252631D01*
X259172D02*
X262581D01*
X205084Y188585D02*
X213583D01*
X215003D02*
X221139D01*
X222752D02*
X225594D01*
X227380D02*
X230290D01*
X230589D02*
X236425D01*
X241510D02*
X244937D01*
X249168D02*
X252584D01*
X259163D02*
X262572D01*
X205056Y188678D02*
X213670D01*
X214975D02*
X221167D01*
X222741D02*
X225637D01*
X227292D02*
X230261D01*
X230581D02*
X236454D01*
X241472D02*
X244960D01*
X249129D02*
X252537D01*
X259155D02*
X262561D01*
X205040Y188772D02*
X213742D01*
X214959D02*
X221192D01*
X222732D02*
X225680D01*
X227204D02*
X230246D01*
X230570D02*
X236479D01*
X241434D02*
X244984D01*
X249088D02*
X252492D01*
X259143D02*
X262551D01*
X205033Y188866D02*
X213810D01*
X214952D02*
X221209D01*
X222742D02*
X225722D01*
X227116D02*
X230239D01*
X230545D02*
X236496D01*
X241396D02*
X245004D01*
X249047D02*
X252447D01*
X259124D02*
X262540D01*
X205024Y188959D02*
X213878D01*
X214944D02*
X221225D01*
X222751D02*
X225765D01*
X227028D02*
X230230D01*
X230518D02*
X236512D01*
X241358D02*
X245019D01*
X249006D02*
X252402D01*
X259105D02*
X262529D01*
X205016Y189053D02*
X213931D01*
X214935D02*
X221233D01*
X222761D02*
X225807D01*
X226940D02*
X230222D01*
X230489D02*
X236520D01*
X241320D02*
X245034D01*
X248965D02*
X252358D01*
X259086D02*
X262515D01*
X205024Y189147D02*
X213983D01*
X214943D02*
X221238D01*
X222789D02*
X225850D01*
X226852D02*
X230230D01*
X230456D02*
X236525D01*
X241282D02*
X245048D01*
X248926D02*
X252313D01*
X259064D02*
X262500D01*
X205035Y189241D02*
X214034D01*
X214954D02*
X221231D01*
X222822D02*
X225892D01*
X226763D02*
X230241D01*
X230406D02*
X236518D01*
X241244D02*
X245063D01*
X248887D02*
X252269D01*
X259042D02*
X262486D01*
X205047Y189334D02*
X214081D01*
X214967D02*
X221224D01*
X222859D02*
X225935D01*
X226676D02*
X230253D01*
X230355D02*
X236511D01*
X241206D02*
X245076D01*
X248849D02*
X252224D01*
X259019D02*
X262472D01*
X205074Y189428D02*
X214124D01*
X214993D02*
X221208D01*
X222900D02*
X225977D01*
X226587D02*
X230280D01*
X230290D02*
X236494D01*
X241168D02*
X245091D01*
X248811D02*
X252181D01*
X258994D02*
X262450D01*
X205100Y189522D02*
X214166D01*
X215020D02*
X221190D01*
X222941D02*
X226020D01*
X226500D02*
X230225D01*
X230306D02*
X236477D01*
X241130D02*
X245100D01*
X248772D02*
X252138D01*
X258966D02*
X262429D01*
X205155Y189615D02*
X214209D01*
X215074D02*
X221170D01*
X222982D02*
X226062D01*
X226411D02*
X230158D01*
X230361D02*
X236457D01*
X241092D02*
X245109D01*
X248730D02*
X252095D01*
X258937D02*
X262407D01*
X205217Y189709D02*
X214238D01*
X215137D02*
X221143D01*
X223022D02*
X226105D01*
X226324D02*
X230091D01*
X230424D02*
X236429D01*
X241054D02*
X245118D01*
X248689D02*
X252052D01*
X258905D02*
X262386D01*
X205312Y189803D02*
X214267D01*
X215232D02*
X221115D01*
X223062D02*
X226147D01*
X226235D02*
X230019D01*
X230519D02*
X236402D01*
X241016D02*
X245126D01*
X248647D02*
X252009D01*
X258863D02*
X262362D01*
X205425Y189896D02*
X214295D01*
X215344D02*
X221083D01*
X223102D02*
X229944D01*
X230631D02*
X236369D01*
X240978D02*
X245133D01*
X248606D02*
X251967D01*
X258821D02*
X262337D01*
X205589Y189990D02*
X214322D01*
X215508D02*
X221045D01*
X223143D02*
X229867D01*
X230794D02*
X236332D01*
X240940D02*
X245140D01*
X248566D02*
X251924D01*
X258779D02*
X262311D01*
X205839Y190084D02*
X214341D01*
X215758D02*
X221007D01*
X223183D02*
X229780D01*
X231044D02*
X236294D01*
X240902D02*
X245147D01*
X248528D02*
X251882D01*
X258737D02*
X262286D01*
X210513Y190178D02*
X214359D01*
X217833D02*
X220970D01*
X223223D02*
X229692D01*
X233119D02*
X236257D01*
X240864D02*
X245154D01*
X248489D02*
X251842D01*
X258694D02*
X262259D01*
X210959Y190271D02*
X214378D01*
X217795D02*
X220932D01*
X223263D02*
X229602D01*
X233081D02*
X236219D01*
X240826D02*
X245161D01*
X248450D02*
X251802D01*
X258652D02*
X262229D01*
X211152Y190365D02*
X214396D01*
X217757D02*
X220894D01*
X223303D02*
X229511D01*
X233044D02*
X236181D01*
X240788D02*
X245169D01*
X248411D02*
X251761D01*
X258601D02*
X262199D01*
X211284Y190459D02*
X214407D01*
X217719D02*
X220856D01*
X223343D02*
X229420D01*
X233006D02*
X236143D01*
X240750D02*
X245176D01*
X248374D02*
X251721D01*
X258547D02*
X262169D01*
X211379Y190552D02*
X214417D01*
X217681D02*
X220818D01*
X223383D02*
X229328D01*
X232968D02*
X236105D01*
X240712D02*
X245183D01*
X248336D02*
X251681D01*
X258493D02*
X262137D01*
X211444Y190646D02*
X214428D01*
X217644D02*
X220780D01*
X223423D02*
X229237D01*
X232930D02*
X236067D01*
X240674D02*
X245190D01*
X248298D02*
X251641D01*
X258435D02*
X262098D01*
X211483Y190740D02*
X214438D01*
X217606D02*
X220742D01*
X223463D02*
X229146D01*
X232893D02*
X236029D01*
X240636D02*
X245197D01*
X248261D02*
X251601D01*
X258376D02*
X262059D01*
X211514Y190833D02*
X214444D01*
X217568D02*
X220704D01*
X223504D02*
X229055D01*
X232855D02*
X235991D01*
X240598D02*
X245204D01*
X248224D02*
X251561D01*
X258317D02*
X262020D01*
X211525Y190927D02*
X214447D01*
X217530D02*
X220666D01*
X223544D02*
X228964D01*
X232817D02*
X235953D01*
X240560D02*
X245211D01*
X248185D02*
X251523D01*
X258251D02*
X261980D01*
X211532Y191021D02*
X214450D01*
X217493D02*
X220628D01*
X223584D02*
X228873D01*
X232779D02*
X235915D01*
X240522D02*
X245218D01*
X248148D02*
X251485D01*
X258178D02*
X261939D01*
X208231Y191115D02*
X214454D01*
X217455D02*
X220590D01*
X223624D02*
X228782D01*
X232741D02*
X235877D01*
X240484D02*
X245225D01*
X248109D02*
X251447D01*
X258106D02*
X261897D01*
X207665Y191208D02*
X214457D01*
X217417D02*
X220552D01*
X223664D02*
X228691D01*
X232704D02*
X235839D01*
X240446D02*
X245232D01*
X248071D02*
X251409D01*
X258030D02*
X261856D01*
X207337Y191302D02*
X214453D01*
X217379D02*
X220515D01*
X223704D02*
X228600D01*
X232666D02*
X235801D01*
X240408D02*
X245239D01*
X248033D02*
X251371D01*
X257953D02*
X261813D01*
X207110Y191396D02*
X214448D01*
X217341D02*
X220476D01*
X223744D02*
X228508D01*
X232628D02*
X235763D01*
X240370D02*
X245246D01*
X247995D02*
X251333D01*
X257876D02*
X261764D01*
X206932Y191489D02*
X214443D01*
X217304D02*
X220439D01*
X223785D02*
X228417D01*
X232590D02*
X235726D01*
X240332D02*
X245253D01*
X247957D02*
X251295D01*
X257794D02*
X261715D01*
X206789Y191583D02*
X214438D01*
X217266D02*
X220400D01*
X223825D02*
X228326D01*
X232552D02*
X235687D01*
X240294D02*
X245260D01*
X247919D02*
X251257D01*
X257712D02*
X261667D01*
X206655Y191677D02*
X214433D01*
X217228D02*
X220363D01*
X223865D02*
X228235D01*
X232515D02*
X235650D01*
X240256D02*
X245267D01*
X247881D02*
X251219D01*
X257629D02*
X261617D01*
X206531Y191770D02*
X214428D01*
X217190D02*
X220325D01*
X223905D02*
X228144D01*
X232476D02*
X235611D01*
X240218D02*
X245274D01*
X247843D02*
X251181D01*
X257524D02*
X261566D01*
X206419Y191864D02*
X214420D01*
X217152D02*
X220287D01*
X223945D02*
X228053D01*
X232439D02*
X235574D01*
X240180D02*
X245281D01*
X247805D02*
X251143D01*
X257418D02*
X261515D01*
X206306Y191958D02*
X214409D01*
X217114D02*
X220249D01*
X223985D02*
X227962D01*
X232401D02*
X235535D01*
X240142D02*
X245289D01*
X247767D02*
X251105D01*
X257308D02*
X261465D01*
X206228Y192052D02*
X214399D01*
X217076D02*
X220211D01*
X223913D02*
X227870D01*
X232363D02*
X235498D01*
X240104D02*
X245296D01*
X247729D02*
X251067D01*
X257194D02*
X261407D01*
X206150Y192145D02*
X214389D01*
X217039D02*
X220173D01*
X223819D02*
X227780D01*
X232325D02*
X235460D01*
X240066D02*
X245302D01*
X247691D02*
X251029D01*
X257078D02*
X261343D01*
X206073Y192239D02*
X214378D01*
X217001D02*
X220135D01*
X223724D02*
X227688D01*
X232287D02*
X235422D01*
X240028D02*
X245309D01*
X247653D02*
X250991D01*
X256950D02*
X261280D01*
X206014Y192333D02*
X214368D01*
X216963D02*
X220097D01*
X223630D02*
X227597D01*
X232250D02*
X235384D01*
X239990D02*
X245317D01*
X247615D02*
X250953D01*
X256824D02*
X261215D01*
X205954Y192426D02*
X214347D01*
X216925D02*
X220059D01*
X223535D02*
X227506D01*
X232212D02*
X235346D01*
X239952D02*
X245324D01*
X247577D02*
X250915D01*
X256677D02*
X261150D01*
X205895Y192520D02*
X214323D01*
X216887D02*
X220021D01*
X223441D02*
X227535D01*
X232174D02*
X235308D01*
X239914D02*
X245331D01*
X247539D02*
X250877D01*
X256529D02*
X261085D01*
X205847Y192614D02*
X214299D01*
X216850D02*
X219983D01*
X223347D02*
X227576D01*
X232136D02*
X235270D01*
X239876D02*
X245338D01*
X247501D02*
X250839D01*
X256363D02*
X261020D01*
X205800Y192707D02*
X214275D01*
X216812D02*
X219945D01*
X223252D02*
X227616D01*
X232098D02*
X235232D01*
X239838D02*
X245345D01*
X247463D02*
X250801D01*
X256196D02*
X260954D01*
X205754Y192801D02*
X214251D01*
X216774D02*
X219907D01*
X223158D02*
X227656D01*
X232061D02*
X235194D01*
X239800D02*
X245352D01*
X247425D02*
X250763D01*
X256001D02*
X260881D01*
X205719Y192895D02*
X214227D01*
X216736D02*
X219869D01*
X223063D02*
X227696D01*
X232023D02*
X235156D01*
X239762D02*
X245359D01*
X247387D02*
X250725D01*
X255790D02*
X260809D01*
X205690Y192989D02*
X214196D01*
X216698D02*
X219831D01*
X222969D02*
X227737D01*
X231985D02*
X235118D01*
X239724D02*
X245366D01*
X247349D02*
X250687D01*
X255569D02*
X260737D01*
X205661Y193082D02*
X214166D01*
X216661D02*
X219793D01*
X222874D02*
X227777D01*
X231947D02*
X235080D01*
X239686D02*
X245373D01*
X247311D02*
X250649D01*
X255342D02*
X260660D01*
X205633Y193176D02*
X214135D01*
X216623D02*
X219756D01*
X222780D02*
X227817D01*
X231909D02*
X235042D01*
X239648D02*
X245380D01*
X247273D02*
X250611D01*
X255049D02*
X260580D01*
X205616Y193270D02*
X214105D01*
X216585D02*
X219717D01*
X222686D02*
X227857D01*
X231872D02*
X235004D01*
X239610D02*
X245387D01*
X247235D02*
X250573D01*
X254722D02*
X260500D01*
X205600Y193363D02*
X208809D01*
X210900D02*
X214075D01*
X216547D02*
X219680D01*
X222591D02*
X227898D01*
X231834D02*
X234966D01*
X239572D02*
X245394D01*
X247197D02*
X250535D01*
X254378D02*
X260419D01*
X205585Y193457D02*
X208574D01*
X210843D02*
X214040D01*
X216509D02*
X219642D01*
X222497D02*
X227938D01*
X231796D02*
X234928D01*
X239534D02*
X245401D01*
X247159D02*
X250497D01*
X253953D02*
X260334D01*
X205569Y193551D02*
X208458D01*
X210785D02*
X213999D01*
X216472D02*
X219604D01*
X222402D02*
X227978D01*
X231758D02*
X234891D01*
X239496D02*
X245408D01*
X247121D02*
X250459D01*
X253425D02*
X260249D01*
X205565Y193644D02*
X208395D01*
X210725D02*
X213958D01*
X216434D02*
X219566D01*
X222308D02*
X228019D01*
X231720D02*
X234852D01*
X239458D02*
X245415D01*
X247083D02*
X250421D01*
X252657D02*
X260163D01*
X205561Y193738D02*
X208364D01*
X210664D02*
X213917D01*
X216396D02*
X219528D01*
X222214D02*
X228059D01*
X231683D02*
X234815D01*
X239420D02*
X245422D01*
X247044D02*
X250383D01*
X251969D02*
X260070D01*
X205557Y193832D02*
X208354D01*
X210599D02*
X213876D01*
X216358D02*
X219490D01*
X222119D02*
X228099D01*
X231645D02*
X234776D01*
X239382D02*
X245430D01*
X247007D02*
X250345D01*
X251634D02*
X259968D01*
X205554Y193926D02*
X208359D01*
X210505D02*
X213833D01*
X216320D02*
X219452D01*
X222025D02*
X228139D01*
X231607D02*
X234739D01*
X239344D02*
X245437D01*
X246969D02*
X250307D01*
X251365D02*
X259865D01*
X205556Y194019D02*
X208373D01*
X210412D02*
X213779D01*
X216282D02*
X219414D01*
X221930D02*
X228180D01*
X231569D02*
X234701D01*
X239306D02*
X245444D01*
X246931D02*
X250269D01*
X251191D02*
X259763D01*
X205560Y194113D02*
X208408D01*
X210292D02*
X213724D01*
X216244D02*
X219376D01*
X221837D02*
X228220D01*
X231531D02*
X234663D01*
X239268D02*
X245451D01*
X246893D02*
X250231D01*
X251041D02*
X259656D01*
X205565Y194207D02*
X208463D01*
X210166D02*
X213670D01*
X216207D02*
X219338D01*
X221743D02*
X228260D01*
X231493D02*
X234625D01*
X239230D02*
X245458D01*
X246854D02*
X250193D01*
X250948D02*
X259548D01*
X205571Y194300D02*
X208552D01*
X210009D02*
X213615D01*
X216169D02*
X219300D01*
X221654D02*
X228300D01*
X231456D02*
X234587D01*
X239192D02*
X245465D01*
X246817D02*
X250155D01*
X250854D02*
X259441D01*
X205584Y194394D02*
X208678D01*
X209785D02*
X213560D01*
X216131D02*
X219262D01*
X221573D02*
X225293D01*
X225302D02*
X228341D01*
X231418D02*
X234549D01*
X239154D02*
X242499D01*
X242510D02*
X245472D01*
X246778D02*
X250117D01*
X250790D02*
X259328D01*
X205598Y194488D02*
X209100D01*
X209325D02*
X213495D01*
X216094D02*
X219224D01*
X221491D02*
X225212D01*
X225341D02*
X228381D01*
X231381D02*
X234511D01*
X239116D02*
X242461D01*
X242517D02*
X245479D01*
X246741D02*
X250079D01*
X250737D02*
X259211D01*
X205611Y194581D02*
X213429D01*
X216061D02*
X219186D01*
X221417D02*
X225130D01*
X225380D02*
X228421D01*
X231347D02*
X234473D01*
X239078D02*
X242423D01*
X242524D02*
X245486D01*
X246702D02*
X250041D01*
X250687D02*
X259094D01*
X205633Y194675D02*
X213364D01*
X216027D02*
X219148D01*
X221344D02*
X225048D01*
X225419D02*
X228461D01*
X231313D02*
X234435D01*
X239040D02*
X242385D01*
X242532D02*
X245493D01*
X246664D02*
X250003D01*
X250657D02*
X258972D01*
X205658Y194769D02*
X213298D01*
X215993D02*
X219110D01*
X221283D02*
X224967D01*
X225459D02*
X228502D01*
X231280D02*
X234397D01*
X239002D02*
X242346D01*
X242539D02*
X245500D01*
X246626D02*
X249965D01*
X250628D02*
X258839D01*
X205682Y194863D02*
X213230D01*
X215959D02*
X219072D01*
X221229D02*
X224885D01*
X225498D02*
X228544D01*
X231246D02*
X234359D01*
X238964D02*
X242308D01*
X242546D02*
X245507D01*
X246588D02*
X249927D01*
X250598D02*
X258706D01*
X205714Y194956D02*
X213150D01*
X215928D02*
X219035D01*
X221178D02*
X224803D01*
X225537D02*
X228569D01*
X231215D02*
X234321D01*
X238926D02*
X242270D01*
X242554D02*
X245514D01*
X246550D02*
X249889D01*
X250590D02*
X258570D01*
X205748Y195050D02*
X213070D01*
X215897D02*
X218996D01*
X221131D02*
X224721D01*
X225576D02*
X228594D01*
X231184D02*
X234283D01*
X238888D02*
X242231D01*
X242561D02*
X245521D01*
X246512D02*
X249851D01*
X250581D02*
X258416D01*
X205783Y195144D02*
X212989D01*
X215866D02*
X218958D01*
X221084D02*
X224639D01*
X225615D02*
X228617D01*
X231153D02*
X234245D01*
X238850D02*
X242193D01*
X242568D02*
X245528D01*
X246474D02*
X249813D01*
X250573D02*
X258261D01*
X205825Y195237D02*
X212909D01*
X215841D02*
X218920D01*
X221048D02*
X224557D01*
X225654D02*
X228639D01*
X231128D02*
X234207D01*
X238812D02*
X242155D01*
X242576D02*
X245535D01*
X246436D02*
X249775D01*
X250569D02*
X258105D01*
X205875Y195331D02*
X212819D01*
X215819D02*
X218882D01*
X221013D02*
X224476D01*
X225693D02*
X228655D01*
X231106D02*
X234169D01*
X238774D02*
X242117D01*
X242583D02*
X245543D01*
X246398D02*
X249737D01*
X250577D02*
X257945D01*
X205924Y195425D02*
X212722D01*
X215797D02*
X218844D01*
X220989D02*
X224394D01*
X225732D02*
X228664D01*
X231083D02*
X234130D01*
X238736D02*
X242079D01*
X242590D02*
X245550D01*
X246360D02*
X249699D01*
X250586D02*
X257785D01*
X205981Y195519D02*
X212625D01*
X215789D02*
X218800D01*
X220967D02*
X224312D01*
X225771D02*
X228661D01*
X231076D02*
X234086D01*
X238698D02*
X242041D01*
X242597D02*
X245557D01*
X246322D02*
X249661D01*
X250594D02*
X257606D01*
X206039Y195612D02*
X212528D01*
X215783D02*
X218755D01*
X220956D02*
X224231D01*
X225811D02*
X228651D01*
X231070D02*
X234042D01*
X238660D02*
X242002D01*
X242605D02*
X245564D01*
X246284D02*
X249623D01*
X250614D02*
X257412D01*
X206100Y195706D02*
X212426D01*
X215782D02*
X218710D01*
X220948D02*
X224149D01*
X225850D02*
X228641D01*
X231069D02*
X233997D01*
X238622D02*
X241964D01*
X242612D02*
X245571D01*
X246246D02*
X249585D01*
X250643D02*
X257216D01*
X206176Y195800D02*
X212311D01*
X215789D02*
X218661D01*
X220951D02*
X224067D01*
X225889D02*
X228617D01*
X231075D02*
X233948D01*
X238584D02*
X241926D01*
X242619D02*
X245578D01*
X246208D02*
X249547D01*
X250693D02*
X257002D01*
X206252Y195893D02*
X212197D01*
X215795D02*
X218607D01*
X220957D02*
X223985D01*
X225928D02*
X228586D01*
X231081D02*
X233894D01*
X238546D02*
X241888D01*
X242627D02*
X245585D01*
X246170D02*
X249509D01*
X250745D02*
X256788D01*
X206340Y195987D02*
X212083D01*
X215831D02*
X218552D01*
X220962D02*
X223900D01*
X225967D02*
X228554D01*
X231117D02*
X233839D01*
X238508D02*
X241849D01*
X242634D02*
X245592D01*
X246132D02*
X249471D01*
X250798D02*
X256554D01*
X206441Y196081D02*
X211957D01*
X215867D02*
X218489D01*
X220994D02*
X223806D01*
X226008D02*
X228507D01*
X231153D02*
X233776D01*
X238470D02*
X241811D01*
X242641D02*
X245599D01*
X246094D02*
X249433D01*
X250870D02*
X256316D01*
X206546Y196174D02*
X211819D01*
X215921D02*
X218408D01*
X221025D02*
X223712D01*
X226049D02*
X228452D01*
X231208D02*
X233695D01*
X238432D02*
X241773D01*
X242648D02*
X245606D01*
X246056D02*
X249395D01*
X250961D02*
X256064D01*
X206671Y196268D02*
X211681D01*
X215979D02*
X218327D01*
X221065D02*
X223619D01*
X226099D02*
X228397D01*
X231265D02*
X233613D01*
X238394D02*
X241735D01*
X242656D02*
X245613D01*
X246018D02*
X249357D01*
X251068D02*
X255807D01*
X206802Y196362D02*
X211521D01*
X216051D02*
X218228D01*
X221111D02*
X223525D01*
X226157D02*
X228319D01*
X231338D02*
X233515D01*
X238356D02*
X241696D01*
X242663D02*
X245620D01*
X245980D02*
X249319D01*
X251177D02*
X255495D01*
X206956Y196456D02*
X211327D01*
X216129D02*
X218128D01*
X221166D02*
X223422D01*
X226219D02*
X228238D01*
X231416D02*
X233414D01*
X238318D02*
X241658D01*
X242670D02*
X245627D01*
X245942D02*
X249281D01*
X251341D02*
X255150D01*
X207119Y196549D02*
X211133D01*
X216250D02*
X217985D01*
X221245D02*
X223313D01*
X226287D02*
X228146D01*
X231537D02*
X233272D01*
X238280D02*
X241620D01*
X242678D02*
X245634D01*
X245904D02*
X249243D01*
X251515D02*
X254762D01*
X207297Y196643D02*
X210895D01*
X216400D02*
X217809D01*
X221328D02*
X223182D01*
X226370D02*
X228039D01*
X231687D02*
X233096D01*
X238242D02*
X241582D01*
X242685D02*
X245641D01*
X245866D02*
X249206D01*
X251796D02*
X254272D01*
X207545Y196737D02*
X210653D01*
X216598D02*
X217569D01*
X221441D02*
X223031D01*
X226467D02*
X227923D01*
X231885D02*
X232855D01*
X238204D02*
X241544D01*
X242692D02*
X245648D01*
X245828D02*
X249167D01*
X252282D02*
X253473D01*
X207861Y196830D02*
X210323D01*
X221588D02*
X222843D01*
X226584D02*
X227746D01*
X238166D02*
X241505D01*
X242700D02*
X245656D01*
X245790D02*
X249130D01*
X208248Y196924D02*
X209844D01*
X221834D02*
X222628D01*
X226760D02*
X227502D01*
X238128D02*
X241467D01*
X242707D02*
X245663D01*
X245752D02*
X249091D01*
X238090Y197018D02*
X241429D01*
X242714D02*
X245669D01*
X245714D02*
X249054D01*
X238052Y197111D02*
X241391D01*
X242721D02*
X249015D01*
X238014Y197205D02*
X241352D01*
X242729D02*
X248978D01*
X237976Y197299D02*
X241314D01*
X242736D02*
X248939D01*
X215685Y197393D02*
X216787D01*
X230972D02*
X232074D01*
X237938D02*
X241276D01*
X242743D02*
X248902D01*
X215461Y197486D02*
X217021D01*
X230748D02*
X232308D01*
X237900D02*
X241238D01*
X242750D02*
X248863D01*
X215312Y197580D02*
X217170D01*
X230599D02*
X232456D01*
X237862D02*
X241200D01*
X242758D02*
X248826D01*
X215172Y197674D02*
X217310D01*
X230459D02*
X232597D01*
X237824D02*
X241161D01*
X242765D02*
X248787D01*
X215076Y197767D02*
X217406D01*
X230362D02*
X232693D01*
X237786D02*
X241123D01*
X242772D02*
X248750D01*
X214989Y197861D02*
X217493D01*
X230276D02*
X232779D01*
X237748D02*
X241085D01*
X242780D02*
X248711D01*
X214911Y197955D02*
X217571D01*
X230197D02*
X232858D01*
X237710D02*
X241046D01*
X242787D02*
X248674D01*
X214837Y198048D02*
X217644D01*
X230124D02*
X232931D01*
X237672D02*
X241008D01*
X242794D02*
X248635D01*
X214773Y198142D02*
X217700D01*
X230060D02*
X232986D01*
X237634D02*
X240970D01*
X242802D02*
X248598D01*
X214719Y198236D02*
X217752D01*
X230005D02*
X233039D01*
X237596D02*
X240932D01*
X242809D02*
X248559D01*
X214677Y198330D02*
X217804D01*
X229964D02*
X233091D01*
X237558D02*
X240894D01*
X242816D02*
X248522D01*
X214639Y198423D02*
X217835D01*
X229926D02*
X233121D01*
X237520D02*
X240856D01*
X242823D02*
X248483D01*
X214607Y198517D02*
X217862D01*
X229893D02*
X233149D01*
X237482D02*
X240817D01*
X242831D02*
X248446D01*
X214589Y198611D02*
X217888D01*
X229876D02*
X233174D01*
X237444D02*
X240779D01*
X242838D02*
X248407D01*
X214572Y198704D02*
X217906D01*
X229859D02*
X233193D01*
X237406D02*
X240741D01*
X242845D02*
X248370D01*
X214556Y198798D02*
X217914D01*
X229842D02*
X233201D01*
X237368D02*
X240702D01*
X242852D02*
X248331D01*
X214549Y198892D02*
X217923D01*
X229836D02*
X233209D01*
X237330D02*
X240664D01*
X242860D02*
X248294D01*
X214549Y198985D02*
X217931D01*
X229836D02*
X233218D01*
X237292D02*
X240626D01*
X242867D02*
X248256D01*
X214549Y199079D02*
X217926D01*
X229836D02*
X233212D01*
X237254D02*
X240588D01*
X242874D02*
X248218D01*
X214550Y199173D02*
X217917D01*
X229836D02*
X233204D01*
X237216D02*
X240550D01*
X242881D02*
X248180D01*
X214567Y199267D02*
X217909D01*
X229854D02*
X233195D01*
X237178D02*
X240511D01*
X242889D02*
X248142D01*
X214584Y199360D02*
X217896D01*
X229871D02*
X233182D01*
X237140D02*
X240473D01*
X242896D02*
X248104D01*
X214603Y199454D02*
X217868D01*
X229890D02*
X233154D01*
X237102D02*
X240435D01*
X242904D02*
X248066D01*
X214633Y199548D02*
X217840D01*
X229919D02*
X233126D01*
X237064D02*
X240396D01*
X242911D02*
X248028D01*
X214670Y199641D02*
X217811D01*
X229957D02*
X233098D01*
X237026D02*
X240358D01*
X242918D02*
X247990D01*
X214707Y199735D02*
X217766D01*
X229994D02*
X233052D01*
X236988D02*
X240320D01*
X242925D02*
X247952D01*
X214752Y199829D02*
X217717D01*
X230039D02*
X233004D01*
X236950D02*
X240282D01*
X242933D02*
X247914D01*
X214815Y199922D02*
X217665D01*
X230102D02*
X232952D01*
X236912D02*
X240244D01*
X242940D02*
X247876D01*
X214886Y200016D02*
X217596D01*
X230173D02*
X232883D01*
X236874D02*
X240206D01*
X242947D02*
X247838D01*
X214962Y200110D02*
X217520D01*
X230249D02*
X232807D01*
X236836D02*
X240167D01*
X242954D02*
X247800D01*
X215044Y200204D02*
X217437D01*
X230331D02*
X232724D01*
X236798D02*
X240129D01*
X242962D02*
X247762D01*
X215152Y200297D02*
X217330D01*
X230439D02*
X232617D01*
X236760D02*
X240091D01*
X242969D02*
X247724D01*
X215270Y200391D02*
X217211D01*
X230557D02*
X232498D01*
X236722D02*
X240053D01*
X242976D02*
X247686D01*
X215426Y200485D02*
X217056D01*
X230713D02*
X232343D01*
X236684D02*
X240014D01*
X242983D02*
X247648D01*
X215624Y200578D02*
X216858D01*
X230911D02*
X232145D01*
X236646D02*
X239976D01*
X242991D02*
X247610D01*
X216011Y200672D02*
X216471D01*
X231298D02*
X231757D01*
X236608D02*
X239938D01*
X242998D02*
X247572D01*
X236570Y200766D02*
X239900D01*
X243006D02*
X247534D01*
X236532Y200859D02*
X239861D01*
X243013D02*
X247496D01*
X236494Y200953D02*
X239823D01*
X243020D02*
X247458D01*
X236456Y201047D02*
X239785D01*
X243028D02*
X247420D01*
X236418Y201141D02*
X239747D01*
X243035D02*
X247382D01*
X234605Y201234D02*
X239709D01*
X243042D02*
X247344D01*
X233946Y201328D02*
X239670D01*
X243049D02*
X247306D01*
X233712Y201422D02*
X239632D01*
X243057D02*
X247268D01*
X233511Y201515D02*
X239594D01*
X243064D02*
X247230D01*
X233360Y201609D02*
X239556D01*
X243071D02*
X247192D01*
X233221Y201703D02*
X239517D01*
X243078D02*
X247154D01*
X233116Y201796D02*
X239479D01*
X243086D02*
X247116D01*
X233031Y201890D02*
X239441D01*
X243093D02*
X247078D01*
X232954Y201984D02*
X239403D01*
X243100D02*
X247040D01*
X232881Y202078D02*
X239365D01*
X243107D02*
X247002D01*
X232834Y202171D02*
X239326D01*
X243115D02*
X246964D01*
X232789Y202265D02*
X239288D01*
X243122D02*
X246926D01*
X232746Y202359D02*
X239250D01*
X243130D02*
X246888D01*
X232714Y202452D02*
X239211D01*
X243137D02*
X246850D01*
X232691Y202546D02*
X239174D01*
X243146D02*
X246812D01*
X232676Y202640D02*
X239135D01*
X243156D02*
X246774D01*
X232669Y202733D02*
X239098D01*
X243166D02*
X246735D01*
X232661Y202827D02*
X239059D01*
X243176D02*
X246693D01*
X232655Y202921D02*
X239021D01*
X243189D02*
X246652D01*
X232654Y203015D02*
X238980D01*
X243216D02*
X246611D01*
X232665Y203108D02*
X238936D01*
X243244D02*
X246564D01*
X232676Y203202D02*
X238892D01*
X243271D02*
X246506D01*
X232698Y203296D02*
X238835D01*
X243301D02*
X246448D01*
X232729Y203389D02*
X238773D01*
X243343D02*
X246390D01*
X232762Y203483D02*
X238707D01*
X243385D02*
X246315D01*
X232820Y203577D02*
X238627D01*
X243428D02*
X246238D01*
X232878Y203670D02*
X238544D01*
X243496D02*
X246159D01*
X232986Y203764D02*
X238422D01*
X243566D02*
X246065D01*
X233121Y203858D02*
X238289D01*
X243647D02*
X245972D01*
X233312Y203952D02*
X238146D01*
X243755D02*
X245851D01*
X233604Y204045D02*
X237831D01*
X243873D02*
X245715D01*
X244042Y204139D02*
X245516D01*
X244319Y204233D02*
X245219D01*
X0Y0D02*
M02*
